 <svg
      xmlns="http://www.w3.org/2000/svg"
      width="18"
      height="16"
      fill="none"
      viewBox="0 0 18 16"
    >
      <path
        fill="#F37D7C"
        d="M6.865 8.939c-1.512 0-2.761-1.64-2.962-3.767h-.41c.228 2.423 1.65 4.29 3.372 4.29s3.145-1.867 3.373-4.29h-.411c-.2 2.128-1.45 3.767-2.962 3.767z"
      ></path>
      <path
        fill="#F37D7C"
        d="M12.706 13.743l-.009.042-.02.106-.076.076-.032.032-.38.38a.695.695 0 01-.984-.006l-.824-.828a.691.691 0 01-.204-.494.69.69 0 01.206-.492l.377-.376.107-.107.109-.02.04-.008.045-.008 1.18-1.174a2.027 2.027 0 01-1.93-1.752 4.438 4.438 0 00-.482-.097l-.024-.003a5.402 5.402 0 00-.19-.022l-.002.02c-.001.019-.004.036-.007.056a.913.913 0 01-.092.308c-.333.838-1.41 2.426-2.045 3.328l-.13-1.874c.185-.095.344-.252.446-.434a.866.866 0 00.119-.42s-.473.21-.957.21l-.082-.003a1.628 1.628 0 01-.083.002c-.483 0-.956-.21-.956-.21 0 .146.045.29.118.42.103.183.262.34.447.435l-.13 1.874c-.635-.902-1.712-2.49-2.045-3.328a.911.911 0 01-.093-.308c-.002-.02-.006-.037-.007-.056l-.002-.02a5.341 5.341 0 00-.19.022l-.024.003A4.53 4.53 0 000 13.503C0 16.006 2.029 16 4.532 16h4.666c2.502 0 4.531.005 4.531-2.497 0-.257-.024-.507-.065-.752l-.95.946-.008.046zM3.33 4.667h7.067a.498.498 0 100-.996h-.135c0-1.325-.759-2.471-1.864-3.032l-.101.575-.18 1.022a.26.26 0 11-.513-.09l.198-1.127.123-.698A.682.682 0 007.345 0h-.963a.682.682 0 00-.58.321l.124.698.198 1.126a.26.26 0 11-.513.09l-.18-1.021L5.33.64a3.396 3.396 0 00-1.864 3.03H3.33a.498.498 0 000 .997z"
      ></path>
      <path
        fill="#F37D7C"
        d="M12.915 10.914l-.254.062-.037.01-.028.027-1.362 1.355-.152.03-.042.007-.03.03-.377.376a.338.338 0 00-.1.241c-.001.092.034.178.099.242l.825.828a.344.344 0 00.483.002l.378-.377.03-.03.008-.042.03-.152 1.36-1.355.028-.028.009-.037.064-.257-.932-.932zM14.732 8.263l.098.098.098-.097.081-.08c.118.157.283.459.052.688l-.61.606.839.84.596-.596a.62.62 0 01.277-.094c.062 0 .092.022.108.04.276.275.05.666.048.67l-.055.093.076.076.196.196.088.09.098-.08c.027-.022.677-.558.696-1.25.019-.652-.188-.925-.211-.954l-.005-.006-.005-.004-.755-.76-.025-.023-.033-.01-.57-.177-.073-.074.11-.11.1-.097-.099-.099-.308-.31a.281.281 0 00-.398-.001l-.722.718a.28.28 0 000 .398l.308.31z"
      ></path>
      <path
        fill="#F37D7C"
        d="M17.099 12.63l-3.204-3.205a1.675 1.675 0 00-1.502-2.263l-.314.314.78.782v.649l-.466.465h-.648l-.781-.78-.315.313a1.672 1.672 0 002.263 1.502l3.204 3.205a.695.695 0 10.982-.983zm-.729.254a.334.334 0 01.475-.001.336.336 0 11-.475.001z"
      ></path>
    </svg>