   <svg
      xmlns="http://www.w3.org/2000/svg"
      width="17"
      height="15"
      fill="none"
      viewBox="0 0 17 15"
    >
      <path
        fill="#FB5A7C"
        d="M16.615 3.094h-4.71a.31.31 0 00-.31.31v.943c-.394-.583-.945-.946-1.557-.946 0 0-.636-.111-.928.31C8.41 4.722 6.413 5.98 6.017 6.184l.007.012a.47.47 0 00-.104-.012.464.464 0 00-.134.022l.1-.283c.01-.029.09-.29-.034-.527a.597.597 0 00-.38-.29.63.63 0 00-.801.394l-.286.615a1.08 1.08 0 00-1.076-1.014v2.165c.24 0 .46-.08.639-.212l-1.689 3.627a2.121 2.121 0 00-2.204 1.34L0 12.16l.38.161a1.684 1.684 0 00.104 2.094A1.69 1.69 0 001.769 15a1.687 1.687 0 001.66-1.38l.335.143h5.98c.26.733.954 1.237 1.743 1.237.793 0 1.483-.503 1.743-1.238h.93a.748.748 0 00.548-.24.737.737 0 00.193-.558c-.1-1.215-.482-2.323-.909-3.09a.305.305 0 00.152-.26v-.97a.31.31 0 00-.31-.31h2.781a.31.31 0 00.31-.309v-4.62a.31.31 0 00-.31-.31zM8.693 9.92l-.497 1.986-.169-1.799c.009-.502.073-.73.368-.829v.335a.31.31 0 00.298.307zM6.327 8.659c0 1.442.256 2.8.37 3.335-1.23-.337-2.312-1.019-2.336-1.763l1.176-3.322a.463.463 0 00.827-.131c.287-.198 2.275-1.537 2.94-1.284.045.017.084.04.116.072.214.214.31.673.31.928-.001 1.051-3.363.981-3.403 2.165zm8.535-3.101l-1.128 1.094.622-.908-.344-.127.85-.975s-.454.782-.44.821c.012.038.44.095.44.095z"
      ></path>
      <path
        fill="#FB5A7C"
        d="M8.418 9.732a.309.309 0 010 0zM9.305 5.494a.32.32 0 01.115.073c.213.213.309.672.309.927 0 1.052-3.362.982-3.402 2.165 0 1.442.256 2.8.37 3.335-.114-.535-.37-1.893-.37-3.335.04-1.183 3.403-1.113 3.403-2.165 0-.255-.096-.713-.31-.927a.319.319 0 00-.115-.073zM5.92 7.113a.463.463 0 000 0zM6.794 1.547H8.1c-.01.118-.013.285.006.464h-.5c.001-.013.004-.027.004-.04 0-.224-.764-.224-.764 0s.17.565.381.565c.172 0 .316-.226.364-.431h.526c.035.222.111.455.265.64.193.23.468.348.82.348.844 0 1.078-.808 1.083-1.237A1.858 1.858 0 008.43 0c-.826 0-1.56.555-1.785 1.35a.154.154 0 00.148.197z"
      ></path>
    </svg>