  <svg
      xmlns="http://www.w3.org/2000/svg"
      width="13"
      height="15"
      fill="none"
      viewBox="0 0 13 15"
    >
      <path
        fill="#8677FE"
        d="M7.853 10.823L6.688 9.225l.183 1.415c.023.069.023.137-.023.183l-1.141 3.014c-.16.388-.023.845.342 1.05.069.046.16.069.228.091.366.092.754-.114.914-.48l.844-1.986-.137-1.552c0-.069-.023-.114-.045-.137z"
      ></path>
      <path
        fill="#8677FE"
        d="M11.711 5.8l-1.484-.205s-.936-1.347-1.05-1.507c-.114-.137-.297-.457-.525-.617a1.315 1.315 0 00-1.005-.205c-.183.046-.388.16-.502.228-.115.092-1.827 1.325-1.827 1.325l-.365.296a.693.693 0 00-.274.48l-.16 1.827v.182a.65.65 0 00.182.32l-.639 1.347-1.324-.64a.658.658 0 00-.89.32L.065 12.627a.658.658 0 00.32.89l1.461.709c0 .41.343.753.754.753a.76.76 0 00.753-.753c0-.046-.022-.092-.022-.16l1.712-3.608a.658.658 0 00-.32-.89l-.205-.092.64-1.347h.045c.365 0 .64-.296.685-.662l.137-1.484.548-.388-.206 2.01a.84.84 0 00.16.57l1.713 2.352c.068.114.137.228.137.365l.32 3.22c.045.41.296.799.707.867.091.023.16 0 .251 0 .388-.046.73-.388.685-.776l-.183-3.836a.46.46 0 00-.09-.297s-1.051-1.986-1.12-2.1a.444.444 0 01-.023-.298c0-.09.115-1.415.115-1.415l.274.388c.114.16.274.251.456.297l1.804.251h.183c.32-.046.57-.32.57-.662.046-.388-.25-.685-.616-.73zm-9.567 5.526l-.73 1.552c-.069.114-.206.183-.32.114-.114-.068-.183-.205-.114-.32l.73-1.552c.069-.114.206-.182.32-.114.114.069.16.206.114.32zm.434 3.174a.302.302 0 01-.297-.297c0-.16.137-.297.297-.297.16 0 .297.137.297.297a.288.288 0 01-.297.297zM9.456 1.227a1.438 1.438 0 11-2.846.423 1.438 1.438 0 012.846-.423z"
      ></path>
    </svg>