<svg width="66" height="64" viewBox="0 0 66 64" fill="none" xmlns="http://www.w3.org/2000/svg">
<path d="M-9 37.5C-9 58.2107 7.78932 75 28.5 75C49.2107 75 66 58.2107 66 37.5C66 16.7893 49.2107 0 28.5 0C7.78932 0 -9 16.7893 -9 37.5Z" fill="#BDE5DE"/>
<path d="M34.9926 16.881C30.7635 11.632 24.2022 12.7051 20.7383 17.747C19.1763 20.0209 17.3168 22.0929 15.1439 23.8461C10.527 27.5704 9.36353 36.1453 19.6545 37.8188C21.7158 38.1535 23.7506 38.6157 25.7589 39.2001C29.6 40.3158 34.9979 40.6187 36.1401 34.6736C36.5545 32.5113 36.9211 30.3384 37.5161 28.2186C38.6159 24.319 39.2747 18.9371 34.9926 16.881Z" fill="#4880A1"/>
<path d="M42.0854 56.8548C42.0163 55.6169 41.6019 54.4534 41.1928 53.3324C40.7253 52.0361 40.2578 50.7398 39.7849 49.4434C39.2165 47.8709 38.5258 46.1495 37.3729 45.6023C36.6132 45.241 35.8109 45.4907 35.0565 45.7351C34.233 46.0061 33.2608 46.4842 33.1173 47.7008C33.0323 48.4074 33.2714 49.1353 33.5052 49.7994C34.1321 51.5951 34.7537 53.3909 35.3806 55.1866C35.981 56.908 36.6291 58.709 37.7342 59.7981C39.4608 61.4876 42.266 60.0425 42.0854 56.8548Z" fill="#E8CAB5"/>
<path d="M36.8472 56.9503C36.9747 56.8121 37.1182 56.6899 37.2669 56.5837C37.6123 56.3393 38.0107 56.4137 38.4198 56.3924C39.2167 56.3446 40.019 56.3021 40.8159 56.2543C41.8413 56.1958 42.8666 56.1374 43.892 56.079C44.3914 55.7761 44.8908 55.4733 45.3902 55.1705C46.2243 54.6658 47.0585 54.161 47.8926 53.6563C48.0201 53.5819 48.1476 53.5022 48.2751 53.4279C48.3229 53.4013 48.3707 53.3641 48.4185 53.3429C48.8329 53.125 49.4333 53.3482 49.8636 53.4279C50.3736 53.5182 50.889 53.6138 51.399 53.7041C51.5478 53.7307 51.7018 53.736 51.8453 53.7785C51.9781 53.8157 52.0791 53.9007 52.1959 53.9698C52.4085 54.092 52.6103 54.2301 52.8175 54.3629C53.2744 54.6551 53.742 54.9473 54.1776 55.2767C54.2573 55.3352 54.337 55.3936 54.4008 55.4627C54.7248 55.7974 53.7048 56.2224 52.9663 55.8293C52.2278 55.4414 51.5106 54.8305 50.6818 54.8251C49.853 54.8251 48.8861 54.8092 48.8861 54.8092C49.6405 55.0005 50.4002 55.1917 51.1546 55.3883C51.2768 55.4202 51.399 55.452 51.5159 55.4786C51.9144 55.5796 52.2756 55.7708 52.6422 55.9515C53.1469 56.2012 53.6517 56.4562 54.1457 56.7271C55.2614 57.3434 55.033 57.7206 54.2626 57.6516C53.4976 57.5825 51.3193 56.7271 51.2874 56.7165C51.0324 56.6156 50.788 56.6952 50.5277 56.6846C50.2568 56.674 49.9858 56.6581 49.7095 56.6474C49.3961 56.6315 49.0136 56.674 48.7054 56.6049L52.2066 57.4231C52.2066 57.4231 54.3636 57.9703 54.4698 58.5175C54.5761 59.0648 51.4681 58.4857 51.4681 58.4857L48.7639 58.2094C48.7904 58.2147 48.8223 58.2253 48.8542 58.236C49.8105 58.5069 50.7509 58.7885 51.7284 58.9585C51.9462 58.9957 52.1694 59.0382 52.3872 59.0754C52.3872 59.0754 53.0619 59.2082 52.6635 59.527C52.2703 59.8458 50.8252 59.8776 50.4693 59.9042C50.1133 59.9308 48.546 59.6704 47.8873 59.8351C47.2231 59.9998 45.1937 60.7224 44.3542 60.3239C43.5201 59.9201 43.5201 59.9201 43.5201 59.9201C42.1069 60.2602 40.7256 60.7277 39.2911 60.9827C38.7333 61.0836 37.9257 61.3758 37.3944 61.0943C36.7994 60.7808 36.3691 59.8404 36.2044 59.2295C36.0131 58.4007 36.2734 57.5612 36.8472 56.9503Z" fill="#E8CAB5"/>
<path d="M15.9833 62.8689C15.1916 58.8896 14.2035 55.1653 13.7253 51.0798C13.38 48.163 13.5553 45.1985 14.0281 42.3243C14.1078 41.8355 14.1928 41.3361 14.4372 40.9164C14.7826 40.3213 15.3935 39.9919 15.9779 39.6997C16.9236 39.2163 17.8693 38.7328 18.815 38.2547C21.2801 36.9955 24.08 36.4589 26.7789 36.4005C29.005 36.3473 33.0746 36.4111 34.9234 37.9518C35.7576 38.6425 36.2517 39.7529 36.4695 40.8845C36.9636 43.4081 37.1601 46.1654 37.532 48.7475C37.9039 51.3773 38.1164 54.0284 37.9305 56.6901C37.8508 57.8536 37.7339 65.5519 35.9754 65.5519C29.6584 65.6953 22.6827 66.8163 16.4561 65.8866C16.3445 64.8931 16.1851 63.8837 15.9833 62.8689Z" fill="white"/>
<path d="M24.2504 65.6099C23.5438 65.1158 23.0869 64.2764 22.97 63.4051C22.2156 57.8851 29.6641 59.277 32.9634 58.9848C35.5029 58.7617 38.0425 58.5386 40.582 58.3154C40.5607 58.3154 40.8689 60.9506 40.8529 61.1418C40.6989 62.8313 38.9244 63.0916 37.3465 63.6707C34.0207 64.8927 30.5301 65.6737 27.0077 66.0349C26.2161 66.1146 25.382 66.1571 24.6542 65.833C24.5107 65.7746 24.3779 65.6949 24.2504 65.6099Z" fill="#F4DCC9"/>
<path d="M28.6863 60.9247C28.3888 59.4159 27.6768 58.0611 26.9809 56.7541C26.1786 55.2453 25.3817 53.7364 24.5795 52.2223C23.6072 50.3947 22.465 48.3917 20.9561 47.9242C19.9573 47.6161 19.017 48.057 18.135 48.4927C17.1681 48.9708 16.063 49.7306 16.0949 51.2447C16.1162 52.1267 16.5359 52.982 16.9343 53.7577C18.0128 55.8509 19.0913 57.9495 20.1698 60.0428C21.2058 62.051 22.3162 64.1549 23.8569 65.2918C26.2636 67.0769 29.4566 64.8084 28.6863 60.9247Z" fill="#F4DCC9"/>
<path d="M33.3775 50.7504C33.4465 50.7823 33.5209 50.8035 33.6006 50.8035C34.8013 50.8194 36.0073 50.8673 37.208 50.8513C38.2918 50.8301 39.3384 51.1541 40.4169 51.0691C40.1354 49.029 39.8591 46.9889 39.5775 44.9435C39.4819 44.2634 39.3916 43.5781 39.1791 42.9246C38.6584 41.3255 37.4683 40.0451 36.3155 38.8231C34.525 36.9265 32.1024 39.3278 31.9377 41.453C31.8049 43.169 32.4424 45.2729 32.6709 46.9836C32.7718 47.7008 32.5487 50.3466 33.3775 50.7504Z" fill="white"/>
<path d="M25.3927 52.8751C25.3289 52.9602 25.2439 53.0292 25.143 53.0877C23.6235 53.9377 22.1253 54.8356 20.5846 55.6484C19.1926 56.3816 18.0716 57.4654 16.6478 58.1189C15.6862 55.6856 14.7246 53.247 13.7576 50.8138C13.4389 50.0009 13.1148 49.1827 12.9607 48.3221C12.5888 46.2023 13.2742 43.9762 13.9489 41.8351C14.9955 38.5093 19.6283 39.4603 21.2115 41.6757C22.4919 43.4662 23.0338 46.2182 23.852 48.2583C24.1973 49.1031 26.1896 51.8498 25.3927 52.8751Z" fill="white"/>
<path d="M26.7308 30.2692C27.4587 30.6996 28.16 31.1777 28.8241 31.6984C29.2332 32.0171 29.6369 32.3625 29.8601 32.83C30.0726 33.2763 30.0991 33.7916 30.1204 34.2857C30.2001 36.1558 30.1416 36.7668 31.9321 37.3459C32.0702 37.3884 32.219 37.4415 32.3093 37.5531C32.4102 37.6806 32.4262 37.8559 32.4208 38.0206C32.3783 39.5932 31.0448 41.0224 29.4882 41.1711C28.925 41.2242 28.3618 41.1286 27.8093 41.033C26.8583 40.8736 25.9073 40.7089 24.9616 40.5495C23.8141 40.3529 22.5496 40.0926 21.843 39.1629C21.6518 38.9132 21.5136 38.5732 21.6464 38.2916C21.7315 38.1109 21.9068 37.9941 22.0715 37.8878C24.1913 36.5171 24.696 35.8211 25.4504 33.5685C25.5301 33.34 26.6246 30.2161 26.7308 30.2692Z" fill="#F2DAC7"/>
<path d="M31.1735 36.2514L31.1681 36.2567C30.7431 36.5542 30.2278 36.6817 29.7177 36.6233C28.9421 36.5383 28.2036 36.2726 27.4439 35.8157C25.6747 34.7479 24.4209 33 23.8896 30.997C22.572 26.0189 24.745 20.8708 24.745 20.8708C27.7201 14.9629 37.5595 16.9393 37.0441 22.9853C37.0388 22.9906 36.9166 32.2243 31.1735 36.2514Z" fill="#F2DAC7"/>
<path d="M21.3237 26.1194C22.1047 24.0793 23.8951 25.7156 23.8951 25.7156L23.8898 30.6725C22.5138 30.7469 20.3939 28.5527 21.3237 26.1194Z" fill="#F2DAC7"/>
<path d="M32.5756 35.8313C32.5703 35.8366 32.565 35.8419 32.5597 35.8419C31.2952 36.9257 29.4783 37.1807 27.9428 36.49C27.2469 36.1766 26.6146 35.7091 26.1046 35.0821C25.6158 34.4871 25.2546 33.8868 24.8083 33.3714C26.2002 31.666 26.9122 29.4931 26.8059 27.2883L26.79 27.0014C27.5763 26.8685 28.4476 26.741 29.3242 26.6454C31.8371 26.3745 34.3554 27.1395 36.2733 28.7387C35.7686 32.0007 33.941 34.6571 32.5756 35.8313Z" fill="#A2BAC7"/>
<path d="M23.6079 25.4661C23.7142 25.8805 23.9745 26.2311 24.2986 26.4915C24.6227 26.7571 24.9946 26.9537 25.3877 27.1131C25.5843 27.1928 25.7809 27.2565 25.9828 27.315C26.1846 27.3734 26.3865 27.4318 26.5884 27.4903C26.9922 27.6072 27.4013 27.7081 27.8157 27.8197C27.821 27.8197 27.8263 27.825 27.8263 27.8356C27.8263 27.8409 27.821 27.8462 27.8157 27.8462C27.3853 27.8569 26.955 27.7984 26.5353 27.7134C26.1156 27.6231 25.7065 27.4637 25.3133 27.2831C24.9202 27.1024 24.543 26.8793 24.2242 26.5818C23.9054 26.2896 23.6557 25.9017 23.5867 25.4767C23.5867 25.4714 23.592 25.4661 23.5973 25.4661C23.6026 25.4555 23.6079 25.4608 23.6079 25.4661Z" fill="#A2BAC7"/>
<path d="M23.8208 30.6727C23.9536 30.9543 24.1236 31.2146 24.3096 31.459C24.4955 31.7034 24.6974 31.9372 24.9206 32.1497C24.9737 32.2028 25.0321 32.2506 25.0906 32.3038C25.149 32.3569 25.2075 32.4047 25.2659 32.4525L25.6219 32.7447C25.6803 32.7979 25.7387 32.8457 25.7972 32.8935C25.8556 32.9413 25.9141 32.9891 25.9725 33.0423C26.0894 33.1432 26.2169 33.2335 26.3285 33.3451C26.3338 33.3504 26.3338 33.3557 26.3285 33.361C26.3231 33.3663 26.3178 33.3663 26.3178 33.3663C26.0203 33.2601 25.7387 33.1113 25.4784 32.9254C25.2128 32.7501 25.0003 32.5057 24.7877 32.2772C24.5752 32.0434 24.384 31.7884 24.214 31.5228C24.0493 31.2571 23.8952 30.9756 23.7943 30.6781C23.7943 30.6727 23.7943 30.6674 23.7996 30.6621C23.8102 30.6621 23.8155 30.6621 23.8208 30.6727Z" fill="#A2BAC7"/>
<path d="M34.7431 18.4428C34.7431 18.4428 31.6829 26.4652 23.5968 25.4717C19.8832 19.532 31.0242 12.5084 34.7431 18.4428Z" fill="#4880A1"/>
<path d="M47.9134 55.4415C47.9346 55.4362 47.9506 55.4362 47.9718 55.4256C48.0515 55.399 48.1099 55.3353 48.1631 55.2715C48.8697 54.5171 49.1778 54.4852 49.4488 53.4705C49.4806 53.3536 50.6601 42.4411 50.6601 42.3189C50.6654 41.4263 51.5845 41.4529 51.6058 42.2551C51.627 43.0627 52.7215 53.4811 52.918 54.5596C53.0243 55.1546 53.7415 57.1044 54.4959 56.2066C54.565 56.1269 54.6075 56.0312 54.6819 55.9569C54.9263 55.7072 55.2875 55.8028 55.3991 56.095C55.5319 56.4456 55.3672 56.9397 55.1547 57.2266C54.8891 57.5826 54.4641 57.8004 54.0231 57.8429C53.7734 57.8642 53.4493 57.7101 53.2049 57.811C52.7321 58.0129 53.2899 58.5442 53.3749 58.778C53.4228 58.9108 53.3909 59.0861 53.2634 59.1499C53.2102 59.1764 53.1465 59.1817 53.0934 59.2136C52.934 59.2986 52.9393 59.5218 52.8915 59.6971C52.8383 59.8777 52.748 60.0743 52.578 60.1593C48.9759 61.9869 48.6625 59.0436 48.604 58.5017C48.5881 58.3583 48.5668 58.2095 48.4871 58.0873C48.2693 57.7685 47.7965 57.8323 47.4193 57.7367C46.8136 57.5826 46.4417 56.9504 46.3089 56.3341C46.2398 56.0153 46.2186 55.6647 46.3726 55.3725C46.6064 54.9262 47.0899 54.8837 47.4352 55.2024C47.5787 55.3353 47.7487 55.4681 47.9134 55.4415Z" fill="white"/>
<path d="M55.293 55.1968C55.5366 55.1965 55.7337 54.9988 55.7334 54.7553C55.7331 54.5118 55.5355 54.3146 55.2919 54.3149C55.0484 54.3152 54.8512 54.5129 54.8515 54.7564C54.8518 54.9999 55.0495 55.1971 55.293 55.1968Z" fill="white"/>
<path d="M45.2832 61.5303C45.7454 61.6525 46.2077 61.7906 46.6646 61.9181C47.4721 62.1359 48.285 62.3537 49.0925 62.5716C49.2678 62.6194 49.4432 62.6672 49.6238 62.6831C49.9532 62.715 50.3038 62.6672 50.6332 62.646C50.9786 62.6247 51.3239 62.63 51.6745 62.6247C52.6096 62.6141 53.4384 62.1837 54.315 61.8915C54.4744 61.8384 54.6391 61.7853 54.7666 61.6684C54.8622 61.5834 54.9313 61.4399 54.8729 61.3231C54.8304 61.2381 54.74 61.1956 54.6497 61.1637C54.0228 60.9512 53.2896 61.339 52.6893 61.5303C52.6255 61.5249 52.5618 61.5196 52.498 61.5143C52.1793 61.4931 51.8605 61.4718 51.5417 61.4506C51.3877 61.4399 51.2336 61.4293 51.0795 61.4187C51.0158 61.4134 50.9467 61.4134 50.8829 61.3974C50.8404 61.3868 50.7767 61.3762 50.7607 61.3443C50.7554 61.3337 50.7661 61.2009 50.7448 61.2062C51.0795 61.1902 51.4142 61.1584 51.7436 61.1371C52.0199 61.1159 52.2961 61.0999 52.5724 61.0787C52.6893 61.068 52.8434 61.084 52.9549 61.0521C52.9762 61.0468 53.7412 60.8237 55.4679 60.2446C55.7707 60.1436 56.5783 59.9417 56.7164 59.5805C56.9289 59.0067 56.0151 59.182 55.7654 59.2245C55.3935 59.2936 55.0269 59.3786 54.655 59.4636C54.145 59.5858 53.6403 59.7133 53.1356 59.8461C52.8487 59.8514 52.5565 59.8567 52.2696 59.862C51.9774 59.8673 51.6852 59.8727 51.393 59.878C51.292 59.878 51.1911 59.8833 51.0901 59.8833C51.0423 59.8833 50.9042 59.8992 50.8776 59.8674C50.8723 59.862 50.867 59.8461 50.867 59.8355C50.8617 59.7983 50.8617 59.7558 50.8404 59.7239C51.1858 59.6548 51.5524 59.6495 51.903 59.6123C52.3227 59.5698 52.7371 59.5273 53.1568 59.4795C53.8209 59.3414 54.485 59.1767 55.1332 58.9748C55.606 58.8314 56.0948 58.672 56.5198 58.4223C56.7058 58.3107 56.8439 58.1885 56.7749 57.9547C56.6845 57.6625 56.4295 57.7157 56.1851 57.7369C55.8717 57.7635 55.5582 57.806 55.2448 57.8485C54.8091 57.9069 54.3788 57.976 53.9431 58.0451L50.8457 58.2151L50.8723 58.0451C50.8723 58.0451 53.0134 57.6307 54.9791 57.4288C55.3245 57.3916 56.7323 57.3916 56.7217 56.839C56.7058 56.2281 54.2885 56.4353 53.8262 56.4565C53.7412 56.4671 53.6615 56.4778 53.5765 56.4831C53.0134 56.5468 52.4449 56.6159 51.8817 56.6797C51.6161 56.7115 51.3558 56.7434 51.0901 56.77C50.9945 56.7806 50.9095 56.7806 50.8192 56.7753C50.7342 56.77 50.6651 56.7753 50.5801 56.7859C50.5535 56.7912 50.3835 56.77 50.3835 56.77C50.9361 56.4406 51.6214 56.4831 52.174 56.1749C52.5087 55.989 52.7371 55.6171 52.7743 55.2346C52.7849 55.1283 52.753 55.0114 52.6627 54.953C52.498 54.8361 52.0783 55.038 51.903 55.0752C51.5895 55.1389 51.2761 55.1814 50.9573 55.2133C50.3623 55.2771 49.7619 55.3143 49.1722 55.4046C48.8853 55.4471 48.6037 55.5055 48.3328 55.6065C48.0512 55.7127 47.7856 55.8721 47.5252 56.0262C47.1002 56.2812 46.7071 56.5893 46.2927 56.8656C45.942 57.0994 45.6604 57.4128 45.2832 57.6041C44.9113 57.7954 44.4438 57.806 44.0347 57.8591C42.68 58.0291 41.3252 58.1832 39.9704 58.316C39.2904 58.3851 38.6103 58.4435 37.9356 58.502C37.3671 58.5498 36.8093 58.6932 36.2461 58.7835C36.0177 58.8207 35.6936 58.8526 35.5077 59.012C35.3589 59.1448 35.3323 59.3733 35.2898 59.5645C35.1942 60.0108 35.1889 60.4783 35.2579 60.9299C35.3908 61.8172 35.8105 62.6672 36.464 63.2888C36.6552 63.4694 36.8784 63.6395 37.1334 63.6766C37.4893 63.7298 37.7709 63.5332 38.0897 63.4323C38.435 63.3207 38.7591 63.1985 39.0938 63.055C39.8535 62.731 40.6239 62.4228 41.3996 62.1359C41.8937 61.9553 42.3877 61.7906 42.8872 61.6312C43.3015 61.5037 43.6947 61.2806 44.1357 61.2646C44.5022 61.2699 44.9432 61.4399 45.2832 61.5303Z" fill="#F4DCC9"/>
<path d="M45.5175 48.3225C46.4418 48.3225 47.191 47.5709 47.191 46.6437C47.191 45.7165 46.4418 44.9648 45.5175 44.9648C44.5932 44.9648 43.844 45.7165 43.844 46.6437C43.844 47.5709 44.5932 48.3225 45.5175 48.3225Z" fill="white"/>
<path d="M44.2479 51.7496C44.5531 51.7496 44.8004 51.5022 44.8004 51.1971C44.8004 50.8919 44.5531 50.6445 44.2479 50.6445C43.9428 50.6445 43.6954 50.8919 43.6954 51.1971C43.6954 51.5022 43.9428 51.7496 44.2479 51.7496Z" fill="white"/>
<path d="M62.4175 66.025H59.4158V40.4172C59.4158 38.3771 57.8113 36.7195 55.835 36.7195C53.8586 36.7195 52.2541 38.3771 52.2541 40.4172V42.9621H49.2524V40.4172C49.2524 36.7248 52.2063 33.7178 55.835 33.7178C59.4636 33.7178 62.4175 36.7248 62.4175 40.4172V66.025Z" fill="#CCCCCC"/>
</svg>
