   <svg
      xmlns="http://www.w3.org/2000/svg"
      width="18"
      height="10"
      fill="none"
      viewBox="0 0 18 10"
    >
      <path
        fill="#58B2B4"
        d="M.985.859l5.109 4.6s.086.082.004.138C4.774 6.499 1.46 9.044.958 9.431a.667.667 0 01-.008-.105V1.101c0-.084.012-.165.035-.242zM1.63.262a.864.864 0 01.177-.018h14.385a.86.86 0 01.166.016l-7.19 6.302a.28.28 0 01-.175.057.28.28 0 01-.176-.057L1.63.262zM17.01.85c.025.079.038.163.038.25v8.226a.671.671 0 01-.01.113c-.46-.355-3.814-2.942-5.17-3.857-.066-.045.009-.108.009-.108L17.01.85zm-.514 9.136a.669.669 0 01-.12.01H1.622a.673.673 0 01-.09-.005c.846-.614 3.989-2.892 5.294-3.798.067-.047.126.005.126.005l1.7 1.357a.538.538 0 00.342.117c.128 0 .249-.042.34-.117l1.682-1.342s.076-.07.16-.011c1.318.902 4.461 3.164 5.321 3.784z"
      ></path>
    </svg>