<svg width="255" height="134" viewBox="0 0 255 134" fill="none" xmlns="http://www.w3.org/2000/svg">
<rect width="255" height="134" rx="7" fill="#FFC727"/>
<mask id="mask0_6369_21575" style="mask-type:alpha" maskUnits="userSpaceOnUse" x="0" y="0" width="255" height="134">
<rect width="255" height="134" rx="7" fill="#FFC727"/>
</mask>
<g mask="url(#mask0_6369_21575)">
<circle cx="231" cy="-14" r="45" fill="white" fill-opacity="0.16"/>
<path fill-rule="evenodd" clip-rule="evenodd" d="M-45.5533 63.4796L-36.0522 73.055C-26.551 82.6305 -7.54868 101.781 14.8933 107.549C37.3353 113.318 63.2171 105.703 88.0668 102.103C112.917 98.5038 136.735 98.9189 157.801 110.04C178.867 121.161 197.181 142.989 206.338 153.902L215.496 164.816L209.304 188.905L198.083 186.021C186.862 183.137 164.42 177.369 141.978 171.6C119.536 165.832 97.0941 160.064 74.652 154.296C52.21 148.528 29.768 142.76 7.32602 136.991C-15.116 131.223 -37.558 125.455 -48.779 122.571L-60 119.687L-45.5533 63.4796Z" fill="white" fill-opacity="0.22"/>
<path fill-rule="evenodd" clip-rule="evenodd" d="M-116.309 79.9886L-101.764 89.6611C-87.2183 99.3337 -58.1271 118.679 -28.1572 120.152C1.81267 121.626 32.6612 105.228 63.2462 94.191C93.8311 83.1543 124.152 77.4791 153.771 86.1013C183.389 94.7235 212.305 117.643 226.762 129.103L241.22 140.562L239.639 172.732L224.654 171.995C209.669 171.258 179.699 169.785 149.729 168.311C119.759 166.838 89.7892 165.364 59.8193 163.891C29.8495 162.417 -0.120411 160.944 -30.0903 159.47C-60.0601 157.997 -90.03 156.523 -105.015 155.786L-120 155.05L-116.309 79.9886Z" fill="white" fill-opacity="0.22"/>
</g>
</svg>
