<svg width="25" height="25" viewBox="0 0 25 25" fill="none" xmlns="http://www.w3.org/2000/svg">
<circle cx="12.5" cy="12.5" r="12.5" fill="#FFC727"/>
<path fill-rule="evenodd" clip-rule="evenodd" d="M14.6488 12.8112C14.6488 11.7257 13.7685 10.8455 12.683 10.8455C11.5975 10.8455 10.7172 11.7257 10.7172 12.8112C10.7172 13.8968 11.5975 14.777 12.683 14.777C13.7685 14.777 14.6488 13.8968 14.6488 12.8112Z" stroke="#282828" stroke-linecap="round" stroke-linejoin="round"/>
<path fill-rule="evenodd" clip-rule="evenodd" d="M12.6828 17.625C17.7111 17.625 18.3098 16.1184 18.3098 12.8539C18.3098 10.5658 18.0072 9.34145 16.1012 8.81513C15.9262 8.75987 15.7322 8.6546 15.5749 8.48158C15.321 8.20329 15.1355 7.34868 14.5223 7.09013C13.9091 6.83223 11.4466 6.84408 10.8433 7.09013C10.2407 7.33684 10.0447 8.20329 9.79072 8.48158C9.63348 8.6546 9.44006 8.75987 9.2644 8.81513C7.35848 9.34145 7.05585 10.5658 7.05585 12.8539C7.05585 16.1184 7.65453 17.625 12.6828 17.625Z" stroke="#282828" stroke-linecap="round" stroke-linejoin="round"/>
<path d="M15.7528 10.625H15.7584" stroke="#282828" stroke-linecap="round" stroke-linejoin="round"/>
</svg>
