<svg width="244" height="78" viewBox="0 0 244 78" fill="none" xmlns="http://www.w3.org/2000/svg">
<path fill-rule="evenodd" clip-rule="evenodd" d="M-45.5533 7.47962L-36.0522 17.055C-26.551 26.6305 -7.54868 45.7813 14.8933 51.5495C37.3353 57.3177 63.2171 49.7032 88.0668 46.1035C112.917 42.5038 136.735 42.9189 157.801 54.0402C178.867 65.1614 197.181 86.9888 206.338 97.9025L215.496 108.816L209.304 132.905L198.083 130.021C186.862 127.137 164.42 121.369 141.978 115.6C119.536 109.832 97.0941 104.064 74.652 98.2959C52.21 92.5277 29.768 86.7595 7.32602 80.9913C-15.116 75.2231 -37.558 69.455 -48.779 66.5709L-60 63.6868L-45.5533 7.47962Z" fill="white" fill-opacity="0.22"/>
<path fill-rule="evenodd" clip-rule="evenodd" d="M-116.309 23.9886L-101.764 33.6611C-87.2183 43.3337 -58.1271 62.6789 -28.1572 64.1524C1.81268 65.6259 32.6612 49.2277 63.2462 38.191C93.8311 27.1543 124.152 21.4791 153.771 30.1013C183.389 38.7234 212.305 61.643 226.762 73.1027L241.22 84.5625L239.639 116.732L224.654 115.995C209.669 115.258 179.699 113.785 149.729 112.311C119.759 110.838 89.7892 109.364 59.8193 107.891C29.8495 106.417 -0.120408 104.944 -30.0903 103.47C-60.0601 101.997 -90.03 100.523 -105.015 99.7864L-120 99.0496L-116.309 23.9886Z" fill="white" fill-opacity="0.22"/>
</svg>
