<svg width="19" height="19" viewBox="0 0 19 19" fill="none" xmlns="http://www.w3.org/2000/svg">
<rect width="19" height="19" rx="5" fill="#E1E0E0"/>
<path d="M10.2637 9.50002L12.5929 7.17627C12.6949 7.07427 12.7522 6.93593 12.7522 6.79169C12.7522 6.64744 12.6949 6.5091 12.5929 6.4071C12.4909 6.3051 12.3525 6.2478 12.2083 6.2478C12.0641 6.2478 11.9257 6.3051 11.8237 6.4071L9.49997 8.73627L7.17622 6.4071C7.07422 6.3051 6.93588 6.2478 6.79163 6.2478C6.64739 6.2478 6.50905 6.3051 6.40705 6.4071C6.30505 6.5091 6.24775 6.64744 6.24775 6.79169C6.24775 6.93593 6.30505 7.07427 6.40705 7.17627L8.73622 9.50002L6.40705 11.8238C6.35628 11.8741 6.31598 11.934 6.28848 12C6.26098 12.066 6.24683 12.1368 6.24683 12.2084C6.24683 12.2799 6.26098 12.3507 6.28848 12.4167C6.31598 12.4827 6.35628 12.5426 6.40705 12.5929C6.45741 12.6437 6.51731 12.684 6.58332 12.7115C6.64933 12.739 6.72013 12.7532 6.79163 12.7532C6.86314 12.7532 6.93394 12.739 6.99995 12.7115C7.06595 12.684 7.12586 12.6437 7.17622 12.5929L9.49997 10.2638L11.8237 12.5929C11.8741 12.6437 11.934 12.684 12 12.7115C12.066 12.739 12.1368 12.7532 12.2083 12.7532C12.2798 12.7532 12.3506 12.739 12.4166 12.7115C12.4826 12.684 12.5425 12.6437 12.5929 12.5929C12.6437 12.5426 12.6839 12.4827 12.7114 12.4167C12.7389 12.3507 12.7531 12.2799 12.7531 12.2084C12.7531 12.1368 12.7389 12.066 12.7114 12C12.6839 11.934 12.6437 11.8741 12.5929 11.8238L10.2637 9.50002Z" fill="#2B2C43"/>
</svg>
