<svg width="20" height="20" viewBox="0 0 20 20" fill="none" xmlns="http://www.w3.org/2000/svg">
<path d="M9.96757 13.7642V11.5742" stroke="#C1C1C1" stroke-width="1.2" stroke-linecap="round" stroke-linejoin="round"/>
<path d="M17.5746 9.56445L17.5504 9.58195C15.5321 10.8253 12.8671 11.5761 9.96375 11.5761C7.06041 11.5761 4.40291 10.8253 2.38541 9.58195L2.36041 9.56445" stroke="#C1C1C1" stroke-width="1.2" stroke-linecap="round" stroke-linejoin="round"/>
<path fill-rule="evenodd" clip-rule="evenodd" d="M2.29181 11.1259C2.29181 5.99921 4.21098 4.29004 9.96764 4.29004C15.7251 4.29004 17.6435 5.99921 17.6435 11.1259C17.6435 16.2525 15.7251 17.9617 9.96764 17.9617C4.21098 17.9617 2.29181 16.2525 2.29181 11.1259Z" stroke="#C1C1C1" stroke-width="1.2" stroke-linecap="round" stroke-linejoin="round"/>
<path d="M12.6865 4.47449V3.94949C12.6865 2.89616 11.9173 2.04199 10.9698 2.04199H8.96563C8.01813 2.04199 7.24896 2.89616 7.24896 3.94949V4.47449" stroke="#C1C1C1" stroke-width="1.2" stroke-linecap="round" stroke-linejoin="round"/>
</svg>
