<svg width="13" height="13" viewBox="0 0 13 13" fill="none" xmlns="http://www.w3.org/2000/svg">
<path d="M6.47982 8.94694V7.52344" stroke="#FFC727" stroke-linecap="round" stroke-linejoin="round"/>
<path d="M11.4244 6.21875L11.4087 6.23013C10.0967 7.03829 8.36449 7.52633 6.47732 7.52633C4.59016 7.52633 2.86278 7.03829 1.55141 6.23013L1.53516 6.21875" stroke="#FFC727" stroke-linecap="round" stroke-linejoin="round"/>
<path fill-rule="evenodd" clip-rule="evenodd" d="M1.49023 7.23235C1.49023 3.90002 2.73769 2.78906 6.47953 2.78906C10.2219 2.78906 11.4688 3.90002 11.4688 7.23235C11.4688 10.5647 10.2219 11.6756 6.47953 11.6756C2.73769 11.6756 1.49023 10.5647 1.49023 7.23235Z" stroke="#FFC727" stroke-linecap="round" stroke-linejoin="round"/>
<path d="M8.24727 2.90925V2.568C8.24727 1.88333 7.74731 1.32812 7.13143 1.32812H5.82872C5.21285 1.32812 4.71289 1.88333 4.71289 2.568V2.90925" stroke="#FFC727" stroke-linecap="round" stroke-linejoin="round"/>
</svg>
