<svg width="13" height="14" viewBox="0 0 13 14" fill="none" xmlns="http://www.w3.org/2000/svg">
<path d="M3.77604 1.17188H3.64583C3.71745 1.17188 3.77604 1.11328 3.77604 1.04167V1.17188H8.72396V1.04167C8.72396 1.11328 8.78255 1.17188 8.85417 1.17188H8.72396V2.34375H9.89583V1.04167C9.89583 0.467122 9.42871 0 8.85417 0H3.64583C3.07129 0 2.60417 0.467122 2.60417 1.04167V2.34375H3.77604V1.17188ZM11.9792 2.34375H0.520833C0.232747 2.34375 0 2.5765 0 2.86458V3.38542C0 3.45703 0.0585937 3.51563 0.130208 3.51563H1.11328L1.5153 12.028C1.54134 12.583 2.00033 13.0208 2.55534 13.0208H9.94466C10.5013 13.0208 10.9587 12.5846 10.9847 12.028L11.3867 3.51563H12.3698C12.4414 3.51563 12.5 3.45703 12.5 3.38542V2.86458C12.5 2.5765 12.2673 2.34375 11.9792 2.34375ZM9.81933 11.849H2.68066L2.28678 3.51563H10.2132L9.81933 11.849Z" fill="#E64D2E"/>
</svg>
