<svg width="26" height="25" viewBox="0 0 26 25" fill="none" xmlns="http://www.w3.org/2000/svg">
<path d="M12.833 7.8125C13.696 7.8125 14.3955 7.11295 14.3955 6.25C14.3955 5.38706 13.696 4.6875 12.833 4.6875C11.9701 4.6875 11.2705 5.38706 11.2705 6.25C11.2705 7.11295 11.9701 7.8125 12.833 7.8125Z" fill="#2B2C43"/>
<path d="M12.833 14.0625C13.696 14.0625 14.3955 13.3629 14.3955 12.5C14.3955 11.6371 13.696 10.9375 12.833 10.9375C11.9701 10.9375 11.2705 11.6371 11.2705 12.5C11.2705 13.3629 11.9701 14.0625 12.833 14.0625Z" fill="#2B2C43"/>
<path d="M12.833 20.3125C13.696 20.3125 14.3955 19.6129 14.3955 18.75C14.3955 17.8871 13.696 17.1875 12.833 17.1875C11.9701 17.1875 11.2705 17.8871 11.2705 18.75C11.2705 19.6129 11.9701 20.3125 12.833 20.3125Z" fill="#2B2C43"/>
</svg>
