<svg width="24" height="24" viewBox="0 0 24 24" fill="none" xmlns="http://www.w3.org/2000/svg">
<circle cx="12" cy="12" r="11.5" fill="white" stroke="#FFC727"/>
<path d="M15.3199 13.5402C15.3199 14.1962 15.0799 14.7602 14.5999 15.2322C14.1199 15.6962 13.4279 15.9842 12.5239 16.0962V17.4402H11.3239V16.1322C10.7319 16.1002 10.1679 15.9962 9.63194 15.8202C9.09594 15.6442 8.66394 15.4282 8.33594 15.1722L8.99594 13.7082C9.29994 13.9322 9.65594 14.1202 10.0639 14.2722C10.4719 14.4242 10.8919 14.5202 11.3239 14.5602V12.5562C10.7559 12.4202 10.2759 12.2682 9.88394 12.1002C9.49194 11.9322 9.16394 11.6882 8.89994 11.3682C8.63594 11.0402 8.50394 10.6082 8.50394 10.0722C8.50394 9.40816 8.74394 8.84016 9.22394 8.36816C9.71194 7.88816 10.4119 7.59616 11.3239 7.49216V6.16016H12.5239V7.46816C13.5079 7.54816 14.3199 7.79216 14.9599 8.20016L14.3599 9.67616C13.7599 9.33216 13.1479 9.12416 12.5239 9.05216V11.0922C13.0839 11.2202 13.5559 11.3682 13.9399 11.5362C14.3319 11.6962 14.6599 11.9402 14.9239 12.2682C15.1879 12.5882 15.3199 13.0122 15.3199 13.5402ZM10.4359 9.97616C10.4359 10.1762 10.5119 10.3402 10.6639 10.4682C10.8159 10.5962 11.0359 10.7042 11.3239 10.7922V9.08816C11.0199 9.16016 10.7959 9.27616 10.6519 9.43616C10.5079 9.58816 10.4359 9.76816 10.4359 9.97616ZM12.5239 14.5122C12.8119 14.4482 13.0279 14.3442 13.1719 14.2002C13.3159 14.0562 13.3879 13.8842 13.3879 13.6842C13.3879 13.4842 13.3119 13.3202 13.1599 13.1922C13.0159 13.0642 12.8039 12.9522 12.5239 12.8562V14.5122Z" fill="#FFC727"/>
</svg>
