<svg width="22" height="22" viewBox="0 0 22 22" fill="none" xmlns="http://www.w3.org/2000/svg">
<path d="M0.846152 7.61537C1.07053 7.61537 1.28585 7.52622 1.4445 7.36757C1.60315 7.20892 1.6923 6.9936 1.6923 6.76922V4.23076C1.6923 3.55742 1.95975 2.91188 2.43571 2.43571C2.91186 1.95975 3.55742 1.6923 4.23076 1.6923H6.76922C7.0716 1.6923 7.35093 1.53101 7.50203 1.26923C7.65313 1.00745 7.65313 0.684851 7.50203 0.423076C7.35093 0.161301 7.07159 0 6.76922 0H4.23076C3.10905 0.00132212 2.03376 0.447441 1.2407 1.2407C0.447445 2.03376 0.00130549 3.10905 0 4.23076V6.76922C0 6.9936 0.0891506 7.20892 0.247802 7.36757C0.406453 7.52622 0.621772 7.61537 0.846152 7.61537Z" fill="#C1C1C1"/>
<path d="M4.23076 22.0001H6.76922C7.0716 22.0001 7.35093 21.8388 7.50203 21.577C7.65313 21.3153 7.65313 20.9927 7.50203 20.7309C7.35093 20.4691 7.07159 20.3078 6.76922 20.3078H4.23076C3.55742 20.3078 2.91188 20.0404 2.43571 19.5644C1.95975 19.0883 1.6923 18.4427 1.6923 17.7694V15.2309C1.6923 14.9285 1.53101 14.6492 1.26923 14.4981C1.00745 14.347 0.684851 14.347 0.423076 14.4981C0.161301 14.6492 0 14.9285 0 15.2309V17.7694C0.00132212 18.8911 0.447441 19.9664 1.2407 20.7594C2.03376 21.5527 3.10905 21.9988 4.23076 22.0001Z" fill="#C1C1C1"/>
<path d="M17.7694 0H15.2309C14.9285 0 14.6492 0.161296 14.4981 0.423076C14.347 0.684856 14.347 1.00745 14.4981 1.26923C14.6492 1.531 14.9285 1.6923 15.2309 1.6923H17.7694C18.4427 1.6923 19.0882 1.95975 19.5644 2.43571C20.0404 2.91186 20.3078 3.55742 20.3078 4.23076V6.76922C20.3078 7.0716 20.4691 7.35093 20.7309 7.50203C20.9927 7.65313 21.3153 7.65313 21.577 7.50203C21.8388 7.35093 22.0001 7.07159 22.0001 6.76922V4.23076C21.9988 3.10905 21.5527 2.03376 20.7594 1.2407C19.9664 0.447445 18.8911 0.00130549 17.7694 0Z" fill="#C1C1C1"/>
<path d="M21.154 14.3848C20.9296 14.3848 20.7143 14.4739 20.5556 14.6326C20.397 14.7912 20.3078 15.0065 20.3078 15.2309V17.7694C20.3078 18.4427 20.0404 19.0883 19.5644 19.5644C19.0883 20.0404 18.4427 20.3078 17.7694 20.3078H15.2309C14.9285 20.3078 14.6492 20.4691 14.4981 20.7309C14.347 20.9927 14.347 21.3153 14.4981 21.5771C14.6492 21.8388 14.9285 22.0001 15.2309 22.0001H17.7694C18.8911 21.9988 19.9664 21.5527 20.7594 20.7594C21.5527 19.9664 21.9988 18.8911 22.0001 17.7694V15.2309C22.0001 15.0065 21.911 14.7912 21.7523 14.6326C21.5937 14.4739 21.3784 14.3848 21.154 14.3848Z" fill="#C1C1C1"/>
<path d="M15.2304 4.23047H6.76884C6.09549 4.23047 5.44995 4.49791 4.97378 4.97387C4.49782 5.45003 4.23038 6.09558 4.23038 6.76893V9.30738H3.38423C3.08184 9.30738 2.80251 9.46868 2.65141 9.73046C2.50031 9.99224 2.50031 10.3148 2.65141 10.5766C2.80251 10.8384 3.08185 10.9997 3.38423 10.9997H18.615C18.9174 10.9997 19.1967 10.8384 19.3478 10.5766C19.4989 10.3148 19.4989 9.99223 19.3478 9.73046C19.1967 9.46868 18.9173 9.30738 18.615 9.30738H17.7688V6.76893C17.7688 6.09558 17.5014 5.45004 17.0254 4.97387C16.5493 4.49791 15.9037 4.23047 15.2304 4.23047ZM5.92268 9.30738V6.76893C5.92268 6.54454 6.01183 6.32923 6.17048 6.17057C6.32914 6.01192 6.54446 5.92277 6.76884 5.92277H15.2304C15.4547 5.92277 15.6701 6.01192 15.8287 6.17057C15.9874 6.32923 16.0765 6.54454 16.0765 6.76893V9.30738H5.92268Z" fill="#C1C1C1"/>
<path d="M5.07662 11.8457C4.85224 11.8457 4.63692 11.9349 4.47827 12.0935C4.31962 12.2522 4.23047 12.4675 4.23047 12.6919V16.0765C4.23047 16.7498 4.49791 17.3953 4.97387 17.8715C5.45003 18.3475 6.09558 18.6149 6.76893 18.6149H15.2304C15.9038 18.6149 16.5493 18.3475 17.0255 17.8715C17.5015 17.3954 17.7689 16.7498 17.7689 16.0765V12.6919C17.7689 12.4675 17.6798 12.2522 17.5211 12.0935C17.3625 11.9349 17.1471 11.8457 16.9228 11.8457H5.07662ZM16.0766 16.0765C16.0766 16.3008 15.9874 16.5162 15.8288 16.6748C15.6701 16.8335 15.4548 16.9226 15.2304 16.9226H6.76893C6.54454 16.9226 6.32923 16.8335 6.17057 16.6748C6.01192 16.5162 5.92277 16.3008 5.92277 16.0765V13.538H16.0766V16.0765Z" fill="#C1C1C1"/>
</svg>
