<svg width="17" height="15" viewBox="0 0 17 15" fill="none" xmlns="http://www.w3.org/2000/svg">
<path d="M16.6147 3.09387H11.9041C11.7333 3.09387 11.5948 3.23226 11.5948 3.40318V4.34684C11.2011 3.76443 10.6501 3.40109 10.0379 3.40109C10.0379 3.40109 9.40162 3.2896 9.11014 3.7104C8.40875 4.72291 6.41258 5.97994 6.01748 6.18472L6.02364 6.19718C5.99033 6.1897 5.95596 6.18472 5.92041 6.18472C5.87319 6.18472 5.82859 6.1939 5.78557 6.20688L5.88565 5.92421C5.89549 5.89522 5.97669 5.63353 5.85194 5.39717C5.77862 5.25799 5.64731 5.15791 5.47208 5.10793C4.98725 4.97059 4.73174 5.31518 4.67103 5.50078L4.38468 6.11611C4.34861 5.55089 3.88346 5.10215 3.30921 5.10215V7.26703C3.54899 7.26703 3.76845 7.18649 3.94791 7.05453L2.25919 10.6822C1.89676 10.6439 1.52883 10.6978 1.18594 10.8471C0.664541 11.0744 0.263023 11.4915 0.0549607 12.0211L0 12.1609L0.379355 12.3222C0.200568 12.5755 0.0909081 12.8678 0.0692623 13.1818C0.0381745 13.6352 0.18548 14.0738 0.48391 14.4162C0.782588 14.7587 1.19658 14.9643 1.64978 14.9953C1.68965 14.9979 1.72927 14.9992 1.76901 14.9992C2.1796 14.9992 2.57141 14.8531 2.88398 14.5807C3.17374 14.3283 3.35803 13.9909 3.42912 13.6192L3.764 13.7615H9.74395C10.0042 14.4949 10.6976 14.9987 11.4871 14.9987C12.28 14.9987 12.9703 14.4962 13.2305 13.7615H14.1599C14.3673 13.7615 14.5674 13.6737 14.7084 13.5204C14.8476 13.369 14.918 13.1657 14.9011 12.9626C14.8004 11.7484 14.419 10.6397 13.9921 9.87314C14.081 9.81884 14.1436 9.72518 14.1436 9.61329L14.1437 8.64262C14.1437 8.47184 14.0054 8.33332 13.8344 8.33332H16.6153C16.7861 8.33332 16.9246 8.19493 16.9246 8.02401V3.40305C16.9241 3.2324 16.7858 3.09375 16.6149 3.09375L16.6147 3.09387ZM8.69284 9.92071L8.19635 11.9065L8.02727 10.1084C8.0358 9.60563 8.10007 9.37752 8.39457 9.27916V9.61365C8.39457 9.65537 8.40284 9.69511 8.41792 9.73118C8.46305 9.83953 8.56877 9.916 8.69286 9.9206L8.69284 9.92071ZM6.32715 8.65884C6.32715 10.1009 6.58268 11.4587 6.69707 11.9936C6.69694 11.9936 6.69694 11.9936 6.69668 11.9935V11.9936C5.4664 11.6568 4.38542 10.975 4.36115 10.2306L5.53685 6.90941C5.53685 6.90955 5.53698 6.90955 5.53698 6.90981L5.53712 6.90941C5.62067 7.03206 5.76103 7.11247 5.92053 7.11247C6.13146 7.11234 6.30748 6.97067 6.36362 6.77759C6.65115 6.58017 8.63908 5.24143 9.30477 5.49382C9.34937 5.51061 9.38807 5.53448 9.41981 5.56636C9.63375 5.7803 9.72911 6.23887 9.72911 6.49414C9.72898 7.54523 6.36741 7.47545 6.32711 8.65889L6.32715 8.65884ZM14.8622 5.55792L13.7339 6.65243L14.3563 5.74418L14.0122 5.61747L14.8622 4.64247C14.8622 4.64247 14.4084 5.42439 14.4214 5.4631C14.4342 5.50128 14.8622 5.55794 14.8622 5.55794L14.8622 5.55792Z" fill="#36888B"/>
<path d="M8.41797 9.73242C8.46309 9.84077 8.56882 9.91724 8.69291 9.92196V9.92183C8.56856 9.9175 8.46296 9.8409 8.41797 9.73242Z" fill="#36888B"/>
<path d="M9.305 5.49414C9.34933 5.51093 9.38777 5.53481 9.41951 5.56655C9.63346 5.78049 9.72882 6.23906 9.72882 6.49433C9.72895 7.54569 6.36744 7.47588 6.32715 8.65935C6.32715 10.1014 6.58293 11.4588 6.69707 11.994C6.6972 11.994 6.6972 11.994 6.69746 11.9942C6.58308 11.4591 6.32754 10.1015 6.32754 8.65934C6.36794 7.47591 9.72955 7.54569 9.72955 6.49447C9.72955 6.23907 9.63418 5.78062 9.42024 5.56668C9.38824 5.53467 9.34954 5.5108 9.3052 5.49414L9.305 5.49414Z" fill="#36888B"/>
<path d="M5.92026 7.11321H5.92066C5.76115 7.11321 5.62067 7.03267 5.53724 6.91016L5.53711 6.91055C5.6204 7.0328 5.76089 7.11321 5.92026 7.11321H5.92026Z" fill="#36888B"/>
<path d="M6.79354 1.54658L8.10118 1.54645C8.09134 1.66529 8.08767 1.83175 8.10695 2.01093H7.60705C7.60823 1.99755 7.61059 1.98351 7.61059 1.97092C7.61059 1.74701 6.84651 1.74701 6.84651 1.97092C6.84651 2.19483 7.01769 2.5356 7.22848 2.5356C7.40032 2.5356 7.54382 2.30972 7.59195 2.10497H8.11835C8.15311 2.32691 8.22906 2.56001 8.38345 2.74521C8.57588 2.97594 8.85149 3.09293 9.20355 3.09293C10.0474 3.09293 10.2805 2.28503 10.286 1.85571C10.286 0.832284 9.45341 0 8.43026 0C7.60362 0 6.86932 0.555113 6.6446 1.34975C6.63122 1.39645 6.6408 1.44656 6.67005 1.48512C6.69943 1.52395 6.74495 1.54651 6.79349 1.54651L6.79354 1.54658Z" fill="#36888B"/>
</svg>
