<svg width="18" height="16" viewBox="0 0 18 16" fill="none" xmlns="http://www.w3.org/2000/svg">
<path d="M6.86501 8.93851C5.35318 8.93851 4.10405 7.29976 3.90331 5.17188H3.49219C3.72063 7.59516 5.14335 9.46213 6.86501 9.46213C8.58678 9.46213 10.0097 7.59506 10.2378 5.17188H9.82686C9.6261 7.29962 8.37713 8.93851 6.86501 8.93851Z" fill="#FF7544"/>
<path d="M12.7057 13.7428L12.6973 13.7847L12.6768 13.8908L12.6005 13.9675L12.5693 13.9988L12.1886 14.3786C12.0569 14.5071 11.8836 14.5777 11.7001 14.5777C11.5154 14.5777 11.3408 14.5059 11.2054 14.3727L10.381 13.5453C10.2488 13.4131 10.1764 13.2373 10.1771 13.0511C10.1775 12.864 10.2508 12.6886 10.3828 12.5585L10.7595 12.1834L10.8672 12.0757L10.9757 12.0556L11.0158 12.0483L11.0608 12.0395L12.2403 10.8656C11.7293 10.8451 11.2516 10.6388 10.8873 10.2753C10.5707 9.95831 10.3701 9.5514 10.3107 9.1137C10.153 9.07387 9.99289 9.03931 9.82911 9.01676C9.82141 9.01554 9.81318 9.015 9.80535 9.01352C9.74243 9.00555 9.67898 8.99799 9.61512 8.99219C9.61498 8.99853 9.61296 9.00515 9.61282 9.01176C9.61201 9.03053 9.60877 9.04835 9.60648 9.06752C9.59473 9.17364 9.56314 9.27652 9.51372 9.37562C9.18065 10.2139 8.10354 11.8023 7.46928 12.7038L7.33859 10.8304C7.52382 10.7353 7.68314 10.5783 7.78534 10.3956C7.85865 10.2644 7.90375 10.1214 7.90375 9.97549C7.90375 9.97549 7.43055 10.1853 6.94747 10.1853C6.91979 10.1853 6.89225 10.1841 6.86485 10.1827C6.83717 10.1841 6.8099 10.1853 6.78222 10.1853C6.29914 10.1853 5.82594 9.97549 5.82594 9.97549C5.82594 10.1214 5.8709 10.2644 5.94435 10.3956C6.04655 10.5783 6.20586 10.7353 6.3911 10.8304L6.26041 12.7038C5.62602 11.8024 4.54887 10.2139 4.21597 9.37562C4.16628 9.27652 4.13469 9.17351 4.12281 9.06752C4.12052 9.04835 4.11714 9.03053 4.11647 9.01176C4.11633 9.00542 4.11458 8.9988 4.11431 8.99219C4.05017 8.99799 3.98672 9.00555 3.92381 9.01352C3.91571 9.015 3.90774 9.01568 3.90004 9.01676C1.69599 9.32269 0 11.2147 0 13.503C0 16.0055 2.02893 15.9996 4.5315 15.9996H9.19815C11.7005 15.9996 13.7293 16.0054 13.7293 13.503C13.7293 13.2465 13.7051 12.996 13.6641 12.7512L12.7142 13.6973L12.7057 13.7428Z" fill="#FF7544"/>
<path d="M3.3303 4.66748H10.3973C10.6727 4.66748 10.8958 4.44431 10.8958 4.16929C10.8958 3.89401 10.6727 3.67069 10.3973 3.67069H10.2616C10.2616 2.34639 9.50329 1.20002 8.39795 0.639308L8.29669 1.2135L8.11631 2.23565C8.09404 2.36202 7.98427 2.45113 7.86047 2.45113C7.84535 2.45113 7.83009 2.44978 7.81484 2.44708C7.67294 2.4221 7.57857 2.28723 7.60368 2.14533L7.80201 1.0188L7.92487 0.32146C7.80404 0.128262 7.59018 0 7.34581 0H6.38158C6.13735 0 5.92363 0.128531 5.80266 0.32146L5.92552 1.0188L6.12412 2.14533C6.1491 2.28723 6.05459 2.4221 5.91283 2.44708C5.89757 2.45005 5.88245 2.45113 5.8676 2.45113C5.74339 2.45113 5.63336 2.36229 5.61108 2.23565L5.43084 1.21377L5.32958 0.639723C4.224 1.20029 3.46604 2.34639 3.46604 3.67069H3.33022C3.05493 3.67069 2.83203 3.894 2.83203 4.16929C2.8323 4.44431 3.0552 4.66748 3.33022 4.66748H3.3303Z" fill="#FF7544"/>
<path d="M12.9149 10.9141L12.6608 10.9762L12.6237 10.9855L12.5961 11.0128L11.2342 12.3684L11.0824 12.3974L11.0404 12.4051L11.0106 12.4351L10.6331 12.8108C10.5683 12.875 10.5322 12.9608 10.5322 13.0522C10.5318 13.1438 10.5672 13.2295 10.6319 13.294L11.4569 14.122C11.5229 14.1869 11.6087 14.2225 11.6997 14.2225C11.79 14.2225 11.8752 14.1875 11.9401 14.1243L12.3179 13.7473L12.3479 13.717L12.356 13.6752L12.3851 13.5233L13.7462 12.1676L13.7737 12.1404L13.783 12.103L13.8471 11.8463L12.9149 10.9141Z" fill="#FF7544"/>
<path d="M14.7324 8.26327L14.8297 8.36102L14.928 8.26408L15.0095 8.18375C15.1269 8.34117 15.2921 8.6425 15.0609 8.87217C14.9797 8.95304 14.7387 9.19214 14.4503 9.47836L15.29 10.3184L15.886 9.72151C15.9368 9.69032 16.0601 9.62822 16.1633 9.62822C16.2249 9.62822 16.2547 9.65049 16.2714 9.6675C16.5468 9.94293 16.3209 10.3343 16.3187 10.3384L16.2643 10.4308L16.3401 10.5067L16.5361 10.7034L16.6245 10.7923L16.7217 10.7131C16.7494 10.6907 17.3986 10.1549 17.4181 9.46323C17.4367 8.81058 17.2302 8.53826 17.2066 8.50923L17.202 8.50343L17.1971 8.49856L16.4415 7.73981L16.417 7.71565L16.3844 7.70525L15.8145 7.52933L15.7408 7.45521L15.8516 7.34545L15.9503 7.2477L15.8522 7.14914L15.5437 6.83889C15.4901 6.78529 15.419 6.75586 15.3437 6.75586C15.2688 6.75586 15.1983 6.78475 15.1456 6.83754L14.4244 7.55606C14.3714 7.60885 14.3418 7.68 14.3418 7.7552C14.3418 7.83027 14.3708 7.90074 14.424 7.9538L14.7324 8.26327Z" fill="#FF7544"/>
<path d="M17.0988 12.6292L13.8946 9.42527C14.1179 8.82934 13.9907 8.13121 13.5107 7.65179C13.2005 7.34113 12.7992 7.17818 12.3929 7.16211L12.0786 7.47628L12.8598 8.25756L12.8597 8.90668L12.3931 9.37221H11.7453L10.9637 8.59116L10.6494 8.90547C10.6651 9.31227 10.8283 9.71295 11.139 10.024C11.4662 10.3507 11.8952 10.5141 12.3235 10.5141C12.5231 10.5141 12.7229 10.4785 12.9122 10.4077L16.1164 13.6123C16.2516 13.7482 16.4293 13.8162 16.6068 13.8162C16.785 13.8162 16.9634 13.748 17.0992 13.6123C17.3709 13.3406 17.3696 12.9 17.0988 12.6292L17.0988 12.6292ZM16.3703 12.8838C16.4359 12.8177 16.5219 12.7847 16.6082 12.7847C16.6938 12.7847 16.7795 12.8173 16.8453 12.8826C16.9757 13.0142 16.9753 13.2271 16.8453 13.358C16.7792 13.4236 16.6935 13.4561 16.6077 13.4561C16.5217 13.4561 16.4358 13.4236 16.3698 13.3578C16.2391 13.2273 16.2387 13.0146 16.3703 12.8838L16.3703 12.8838Z" fill="#FF7544"/>
</svg>
