<svg width="228" height="151" viewBox="0 0 228 151" fill="none" xmlns="http://www.w3.org/2000/svg">
<path d="M43.7144 128.072C51.944 120.854 52.6947 109.065 51.1934 98.7044C50.9445 96.9776 50.9328 95.1263 49.9372 93.6951C48.9415 92.2638 46.9036 91.4354 45.4296 92.3377C44.2083 93.0845 43.8116 94.6479 43.2282 95.9664C42.4465 97.7253 41.1848 99.2283 39.5879 100.303C38.5456 100.999 37.2155 101.501 36.0565 101.019C34.4696 100.357 34.0652 98.2961 33.8863 96.5809L32.8828 86.9239C32.7 85.1971 32.5134 83.4236 31.7938 81.8679C31.0743 80.3122 29.7209 78.8965 28.029 78.6203C26.3372 78.3442 24.412 79.511 24.2487 81.2378C24.1826 81.9573 24.4081 82.6729 24.4393 83.3925C24.4704 84.112 24.2215 84.9482 23.5642 85.2204C22.9069 85.4927 22.1524 85.0843 21.5807 84.637C19.6088 83.0813 18.1503 80.9772 16.7735 78.8692C15.3967 76.7613 14.0511 74.5911 12.2231 72.8759C10.3952 71.1608 7.9955 69.8929 5.50638 70.0251C3.01726 70.1573 0.551475 71.9697 0.193663 74.4705C-0.164148 76.9713 1.53157 79.2854 3.30507 81.0822C5.91798 83.7513 8.90347 86.0281 12.1687 87.8418C12.7559 88.1685 13.3938 88.5224 13.6699 89.1369C14.1716 90.2492 13.2071 91.5093 12.1142 92.0149C10.8736 92.5866 9.46564 92.6061 8.13552 92.9133C6.80539 93.2206 5.41304 93.9751 5.02411 95.3013C4.51462 97.1448 6.19089 98.8328 7.7777 99.8829C10.9549 101.988 14.47 103.531 18.1698 104.445C19.4921 104.768 20.8728 105.028 21.9929 105.81C23.113 106.592 23.9064 108.07 23.4203 109.353C22.9341 110.637 21.3901 111.204 20.0327 111.103C18.6754 111.002 17.4075 110.415 16.0851 110.077C13.6155 109.443 10.5702 109.944 9.27507 112.161C8.42721 113.62 8.54389 115.506 9.2284 117.058C9.91291 118.61 11.0875 119.878 12.3165 121.033C16.5946 125.074 21.8724 128.131 27.5857 129.43C33.299 130.729 38.4756 130.686 43.7066 128.084" fill="#EBEBEB"/>
<path d="M44.6952 135.765C43.6828 130.997 42.2136 126.337 40.3081 121.85C37.9553 116.376 35.292 111.042 32.3312 105.873C31.5534 104.496 30.7846 103.136 30.0249 101.793C29.247 100.455 28.512 99.1286 27.6913 97.8762C26.1196 95.4752 24.4148 93.1639 22.5848 90.9534C20.854 88.8298 19.135 86.8774 17.5287 85.0612C15.9225 83.2449 14.3512 81.592 12.8616 80.1413C10.5468 77.8361 8.05095 75.72 5.39815 73.8134C4.46084 73.1367 3.71799 72.6467 3.2085 72.3044L2.629 71.9155C2.56484 71.8701 2.49722 71.8298 2.42676 71.7949C2.48291 71.8498 2.54411 71.8993 2.60955 71.9427L3.1735 72.3316C3.67132 72.6817 4.4025 73.195 5.32425 73.8873C7.94387 75.8294 10.414 77.9655 12.7138 80.2774C14.1723 81.7358 15.7086 83.3888 17.3226 85.2128C18.9366 87.0369 20.644 88.9893 22.3786 91.1128C24.1871 93.3226 25.8749 95.6284 27.4346 98.0202C28.2475 99.2686 28.9904 100.583 29.7682 101.909L32.0473 106.036C35.0057 111.197 37.6715 116.521 40.0319 121.982C41.9475 126.442 43.441 131.073 44.4929 135.812" fill="#E0E0E0"/>
<path d="M27.6016 97.8708C27.6562 97.6229 27.6849 97.3701 27.6872 97.1163C27.7261 96.6301 27.7572 95.9262 27.7844 95.0511C27.8388 93.3048 27.8311 90.8935 27.8155 88.2332C27.8 85.573 27.8155 83.1772 27.905 81.4231C27.9439 80.5519 27.9789 79.848 28.0139 79.3618C28.0433 79.1034 28.0433 78.8424 28.0139 78.584C27.9416 78.8272 27.8959 79.0776 27.8777 79.3307C27.8077 79.813 27.7338 80.5169 27.6677 81.3881C27.5277 83.1305 27.4655 85.5496 27.4849 88.2138C27.5044 90.8779 27.5316 93.2115 27.5471 95.0277C27.5471 95.8484 27.5471 96.5407 27.5471 97.0929C27.5347 97.3535 27.553 97.6145 27.6016 97.8708Z" fill="#E0E0E0"/>
<path d="M4.9502 96.1736C5.24773 96.2013 5.54719 96.2013 5.84472 96.1736C6.42033 96.1736 7.25263 96.1386 8.27939 96.1425C10.3368 96.1425 13.1798 96.2319 16.3107 96.4692C19.4415 96.7064 22.2651 97.0603 24.3031 97.3676C25.3221 97.5115 26.1427 97.6515 26.7106 97.7565C27.0027 97.8253 27.3011 97.8644 27.6012 97.8732C27.3197 97.7685 27.0295 97.6891 26.7339 97.636C26.17 97.5037 25.3532 97.3287 24.3381 97.1498C22.304 96.7881 19.4727 96.4069 16.334 96.1619C13.6549 95.9458 10.9666 95.8666 8.27939 95.9247C7.24485 95.9519 6.41255 96.0064 5.83694 96.0569C5.53851 96.0697 5.24177 96.1087 4.9502 96.1736Z" fill="#E0E0E0"/>
<path d="M39.9893 121.474C40.0411 121.384 40.0816 121.287 40.1098 121.186C40.1915 120.957 40.2848 120.677 40.4015 120.339C40.6504 119.607 40.9849 118.534 41.3777 117.204C42.1556 114.544 43.1473 110.833 44.1663 106.726C45.1853 102.619 46.1304 98.901 46.8655 96.2252C47.2233 94.9223 47.5227 93.8566 47.7405 93.0593C47.8378 92.7171 47.9117 92.4293 47.9778 92.1959C48.0109 92.0966 48.0306 91.9932 48.0361 91.8887C47.9864 91.9803 47.946 92.0767 47.9156 92.1765C47.8378 92.4059 47.7405 92.686 47.6239 93.0204C47.3749 93.7555 47.0405 94.829 46.6477 96.1591C45.8698 98.8193 44.8819 102.53 43.8591 106.641C42.8362 110.752 41.895 114.462 41.1638 117.142C40.8021 118.444 40.5065 119.514 40.2848 120.307L40.0515 121.171C40.0168 121.269 39.9959 121.371 39.9893 121.474Z" fill="#E0E0E0"/>
<path d="M9.44629 115.219C9.54411 115.263 9.6475 115.293 9.75354 115.308L10.6403 115.499L13.9112 116.176C16.6764 116.747 20.4801 117.58 24.6844 118.509C28.8887 119.439 32.7079 120.232 35.4809 120.749C36.8694 121.006 37.9934 121.2 38.7712 121.321L39.6697 121.453C39.7747 121.474 39.8816 121.483 39.9886 121.481C39.8908 121.437 39.7874 121.407 39.6813 121.391L38.7946 121.197L35.5237 120.524C32.7624 119.952 28.9548 119.12 24.7505 118.19C20.5462 117.261 16.7309 116.467 13.9539 115.954C12.5694 115.697 11.4454 115.499 10.6636 115.382L9.76521 115.246C9.6608 115.221 9.55335 115.212 9.44629 115.219Z" fill="#E0E0E0"/>
<path d="M47.5144 0.0078125L70.8732 14.8298L61.329 31.0557L37.3984 15.3081L47.5144 0.0078125Z" fill="#EBEBEB"/>
<path d="M70.8728 14.8297C70.8456 14.8416 70.8168 14.8495 70.7873 14.8531L70.5267 14.9036L69.531 15.0864L65.8596 15.7087L53.6629 17.7117H53.5773L53.5501 17.63C53.4879 17.455 53.4217 17.2411 53.3556 17.0699C51.726 12.3639 50.2442 8.12465 49.1825 5.01325C48.6652 3.48088 48.2413 2.23243 47.9418 1.35346C47.8018 0.929531 47.6929 0.575609 47.6151 0.353922C47.5801 0.248912 47.5568 0.159459 47.5334 0.0894526C47.5292 0.0597831 47.5292 0.0296695 47.5334 0C47.5481 0.0277112 47.5611 0.056285 47.5723 0.085564L47.6734 0.338364C47.759 0.579498 47.8835 0.910085 48.0351 1.32623C48.3502 2.20132 48.7935 3.44199 49.338 4.96657C50.4231 8.07797 51.9166 12.3134 53.5657 17.0233L53.7601 17.5872L53.6473 17.5211L65.8557 15.5765L69.5194 15.0281L70.5228 14.8842L70.7834 14.8531C70.8113 14.8392 70.8417 14.8312 70.8728 14.8297Z" fill="#E0E0E0"/>
<path d="M37.3984 15.3076C37.3984 15.2531 40.5526 14.417 44.4769 13.433C48.4011 12.449 51.5942 11.7023 51.6059 11.7567C51.6175 11.8112 48.4517 12.6512 44.5274 13.6313C40.6032 14.6114 37.4101 15.362 37.3984 15.3076Z" fill="#E0E0E0"/>
<path d="M61.3289 31.0554C61.2745 31.0554 60.7378 27.9051 60.131 24.0003C59.5243 20.0955 59.0809 16.9219 59.1354 16.9141C59.1898 16.9063 59.7265 20.0644 60.3333 23.9692C60.94 27.874 61.3834 31.0437 61.3289 31.0554Z" fill="#E0E0E0"/>
<path d="M202.435 44.3982L224.802 40.7617L227.789 55.8909L204.566 59.2746L202.435 44.3982Z" fill="#F5F5F5"/>
<path d="M224.803 40.7617C224.754 40.8457 224.698 40.9251 224.635 40.999L224.126 41.6524C223.667 42.2513 223.01 43.0292 222.232 44.0365L215.857 51.9044L215.803 51.9705L215.729 51.9317L215.301 51.6944L206.189 46.5723L203.435 45.0166L202.684 44.5849C202.596 44.5352 202.512 44.4793 202.432 44.4176C202.525 44.4536 202.616 44.4965 202.704 44.546L203.482 44.9349L206.266 46.4517L215.41 51.5077L215.834 51.745L215.706 51.7722L222.131 43.9392L224.075 41.6057C224.301 41.3464 224.48 41.1364 224.612 40.9756C224.67 40.8996 224.734 40.8281 224.803 40.7617Z" fill="#E0E0E0"/>
<path d="M204.566 59.2755C204.519 59.2444 205.997 57.0003 207.867 54.2661C209.738 51.532 211.286 49.3345 211.333 49.3696C211.379 49.4046 209.902 51.6409 208.035 54.3789C206.168 57.1169 204.612 59.3066 204.566 59.2755Z" fill="#E0E0E0"/>
<path d="M227.789 55.8941C227.754 55.9369 225.7 54.2995 223.203 52.2382C220.706 50.1769 218.731 48.4773 218.75 48.4307C218.77 48.384 220.839 50.0214 223.336 52.0827C225.832 54.144 227.824 55.8669 227.789 55.8941Z" fill="#E0E0E0"/>
<path d="M140.199 25.7833L178.45 15.5312L186.299 41.3092L146.519 51.2657L140.199 25.7833Z" fill="#455A64"/>
<path d="M146.52 51.265C146.47 51.2417 148.578 47.2785 151.223 42.4208C153.867 37.5632 156.053 33.6467 156.104 33.67C156.154 33.6934 154.046 37.6565 151.401 42.5181C148.757 47.3796 146.571 51.2922 146.52 51.265Z" fill="#263238"/>
<path d="M186.3 41.3081C186.268 41.3548 182.41 38.8346 177.704 35.6804C172.998 32.5262 169.195 29.9321 169.226 29.8854C169.257 29.8387 173.115 32.3551 177.817 35.5132C182.519 38.6712 186.331 41.2615 186.3 41.3081Z" fill="#263238"/>
<path d="M140.199 25.7833C140.243 25.7971 140.286 25.814 140.328 25.8339L140.693 26.005L142.086 26.6778L147.204 29.1786L164.044 37.5016L164.25 37.6028L164.118 37.6378L174.23 21.9757C175.525 19.9883 176.564 18.3743 177.307 17.2503L178.151 15.9707L178.376 15.6401C178.4 15.6012 178.427 15.5647 178.458 15.5312C178.439 15.5731 178.417 15.6134 178.392 15.6518L178.186 15.9941L177.373 17.2931L174.351 22.0535L164.281 37.7467L164.235 37.8244L164.153 37.7817L163.947 37.6805L147.13 29.307L142.043 26.7479L140.666 26.04L140.308 25.8533C140.269 25.8344 140.233 25.8109 140.199 25.7833Z" fill="#263238"/>
<path d="M8.24882 36.5879L45.784 40.341L44.0922 65.9517L5.29688 61.4247L8.24882 36.5879Z" fill="#455A64"/>
<path d="M5.29722 61.4226C5.25833 61.3799 8.46696 58.5602 12.4612 55.1221C16.4555 51.684 19.7264 48.9304 19.7614 48.9731C19.7964 49.0159 16.5916 51.8356 12.5935 55.2737C8.59531 58.7118 5.33223 61.4654 5.29722 61.4226Z" fill="#263238"/>
<path d="M44.1042 65.9521C44.0614 65.9871 41.4789 62.4517 38.3403 58.0452C35.2017 53.6387 32.697 50.0528 32.7398 50.0217C32.7826 49.9906 35.3689 53.522 38.5076 57.9285C41.6462 62.3351 44.1392 65.9209 44.1042 65.9521Z" fill="#263238"/>
<path d="M8.24902 36.5879C8.24902 36.5879 8.28403 36.6151 8.34625 36.6773L8.61461 36.9496L9.6336 38.0191L13.3478 41.9706L25.5523 55.0579L25.7001 55.2174H25.5679L39.8453 44.6698L44.1818 41.4767L45.3486 40.6249L45.6597 40.4071C45.693 40.3794 45.7296 40.3559 45.7686 40.3371C45.7686 40.3371 45.7375 40.3682 45.6714 40.4227L45.3719 40.6561L44.2052 41.5428C43.1784 42.3206 41.716 43.4096 39.927 44.767L25.6845 55.3652L25.6106 55.4197L25.5484 55.3535L25.4006 55.1941L13.2389 42.064L9.57137 38.0697L8.57961 36.9729L8.32681 36.6851C8.29833 36.6548 8.27231 36.6223 8.24902 36.5879Z" fill="#263238"/>
<path d="M222.566 75.1693C222.566 75.1693 219.198 72.9835 215.177 81.0304C211.155 89.0773 209.65 93.7093 209.65 93.7093C209.65 93.7093 208.585 95.3973 207.422 94.3083C206.259 93.2193 204.652 90.1235 202.7 90.6991C200.67 91.298 200.02 93.5732 200.437 96.9024C200.853 100.232 201.494 107.563 201.549 108.228C201.603 108.893 201.238 109.842 200.328 109.227C199.418 108.613 194.159 102.857 191.577 105.513C188.994 108.17 191.678 117.259 191.966 118.258C192.254 119.258 192.047 119.69 191.577 119.938C191.106 120.187 189.519 118.091 187.956 116.512C186.392 114.933 184.308 113.401 182.947 115.042C181.585 116.683 181.2 123.54 187.8 134.589L191.192 139.509L197.181 139.12C209.954 137.518 215.107 133.006 215.577 130.914C216.048 128.822 213.536 128.129 211.33 127.869C209.125 127.608 206.496 127.655 206.403 127.126C206.309 126.597 206.531 126.181 207.488 125.78C208.445 125.38 217.258 121.891 217.763 118.231C218.269 114.571 210.494 113.953 209.452 113.618C208.41 113.284 208.942 112.401 209.487 112.043C210.031 111.685 216.219 107.672 219.097 105.949C221.975 104.226 223.375 102.316 222.597 100.348C221.851 98.4542 218.42 99.096 216.845 98.8471C215.27 98.5981 215.947 96.7235 215.947 96.7235C215.947 96.7235 218.669 92.6826 222.559 84.5618C226.448 76.4411 222.527 75.1226 222.527 75.1226" fill="#FFC727"/>
<path d="M218.954 82.3672C218.933 82.4267 218.91 82.4851 218.884 82.5422L218.654 83.0478L217.756 84.973C216.978 86.6454 215.811 89.0606 214.388 92.0359C211.525 97.9864 207.496 106.173 203.019 115.204C198.543 124.235 194.494 132.414 191.597 138.349C190.154 141.309 188.987 143.712 188.174 145.381C187.785 146.201 187.459 146.847 187.241 147.29L186.992 147.784L186.902 147.952C186.923 147.892 186.946 147.834 186.972 147.777L187.202 147.275L188.1 145.33C188.878 143.658 190.045 141.247 191.468 138.271C194.331 132.317 198.36 124.13 202.841 115.099C207.321 106.068 211.362 97.8931 214.259 91.9581L217.686 84.9224L218.619 83.0128L218.864 82.5189L218.954 82.3672Z" fill="#263238"/>
<path d="M204.773 95.123C204.843 95.2454 204.897 95.3761 204.933 95.512C205.022 95.7764 205.139 96.1576 205.279 96.636C205.559 97.5888 205.913 98.9151 206.275 100.385C206.636 101.855 206.94 103.143 207.181 104.154C207.294 104.601 207.387 104.982 207.461 105.293C207.509 105.43 207.538 105.573 207.546 105.717C207.479 105.594 207.425 105.464 207.387 105.328C207.298 105.068 207.181 104.683 207.045 104.204C206.773 103.248 206.438 101.918 206.076 100.447C205.715 98.9773 205.392 97.6977 205.143 96.6865C205.03 96.2393 204.933 95.862 204.855 95.5509C204.811 95.4119 204.784 95.2683 204.773 95.123Z" fill="#263238"/>
<path d="M208.095 105.837C208.095 105.782 210.782 104.934 214.131 103.943C217.479 102.951 220.206 102.189 220.221 102.243C220.237 102.297 217.534 103.145 214.185 104.137C210.837 105.129 208.11 105.891 208.095 105.837Z" fill="#263238"/>
<path d="M200.593 119.393C200.739 119.365 200.888 119.356 201.036 119.366H202.234C203.245 119.366 204.645 119.342 206.186 119.272C207.726 119.202 209.122 119.089 210.129 119.004L211.327 118.903C211.473 118.887 211.621 118.887 211.767 118.903C211.627 118.953 211.482 118.984 211.335 118.996C211.055 119.043 210.65 119.101 210.145 119.163C209.137 119.288 207.741 119.42 206.197 119.49C204.653 119.56 203.245 119.556 202.234 119.525C201.725 119.525 201.316 119.49 201.032 119.471C200.883 119.46 200.736 119.434 200.593 119.393Z" fill="#263238"/>
<path d="M195.459 110.367C195.552 110.467 195.631 110.578 195.696 110.698C195.84 110.916 196.042 111.238 196.284 111.639C196.774 112.436 197.45 113.545 198.162 114.778C198.874 116.01 199.527 117.111 199.986 117.947L200.519 118.92C200.59 119.036 200.647 119.16 200.69 119.289C200.595 119.19 200.514 119.079 200.449 118.959C200.305 118.741 200.107 118.418 199.862 118.021C199.372 117.224 198.695 116.112 197.987 114.879C197.279 113.646 196.618 112.526 196.163 111.709C195.933 111.301 195.751 110.97 195.63 110.737C195.554 110.624 195.496 110.499 195.459 110.367Z" fill="#263238"/>
<path d="M187.314 121.494C187.428 121.625 187.528 121.767 187.614 121.918L188.392 123.124C189.026 124.143 189.885 125.558 190.826 127.126C191.768 128.693 192.612 130.124 193.211 131.163C193.491 131.661 193.728 132.073 193.915 132.4C194.006 132.548 194.084 132.704 194.148 132.866C194.032 132.735 193.93 132.592 193.845 132.439L193.063 131.237C192.429 130.218 191.565 128.802 190.624 127.231C189.683 125.66 188.843 124.232 188.244 123.194L187.54 121.961C187.449 121.813 187.373 121.657 187.314 121.494Z" fill="#263238"/>
<path d="M194.043 132.547C194.233 132.511 194.425 132.49 194.619 132.485L196.139 132.419C197.423 132.364 199.192 132.283 201.149 132.139C203.105 131.995 204.867 131.82 206.146 131.688L207.659 131.532C207.843 131.5 208.029 131.488 208.215 131.497C208.037 131.549 207.855 131.587 207.671 131.61C207.313 131.668 206.8 131.746 206.162 131.828C204.886 131.999 203.12 132.197 201.164 132.341C199.208 132.485 197.43 132.543 196.143 132.563C195.501 132.563 194.976 132.563 194.619 132.563C194.427 132.58 194.234 132.574 194.043 132.547Z" fill="#263238"/>
<path d="M26.9913 128.37C25.14 128.623 23.491 129.658 22.1414 130.964C21.4258 131.668 20.7491 132.52 20.6246 133.5C20.5002 134.48 21.1497 135.639 22.1492 135.717C22.7515 135.71 23.3317 135.489 23.7866 135.095C24.9533 134.251 26.1201 133.127 27.5669 133.173C28.3914 133.201 29.2199 133.625 30.0055 133.372C30.3834 133.223 30.7022 132.955 30.913 132.608C31.1238 132.261 31.2148 131.854 31.1723 131.451C31.0603 130.643 30.6426 129.909 30.0055 129.401C29.6163 129.009 29.1418 128.712 28.619 128.533C28.0962 128.354 27.5392 128.298 26.9913 128.37Z" fill="#FFC727"/>
<g opacity="0.3">
<path d="M26.9913 128.372C25.14 128.625 23.491 129.66 22.1414 130.966C21.4258 131.67 20.7491 132.522 20.6246 133.502C20.5002 134.482 21.1497 135.641 22.1492 135.719C22.7515 135.712 23.3317 135.491 23.7866 135.097C24.9533 134.253 26.1201 133.129 27.5669 133.175C28.3914 133.203 29.2199 133.627 30.0055 133.374C30.3834 133.225 30.7022 132.957 30.913 132.61C31.1238 132.263 31.2148 131.856 31.1723 131.452C31.0603 130.645 30.6426 129.911 30.0055 129.403C29.6163 129.011 29.1418 128.714 28.619 128.535C28.0962 128.356 27.5392 128.3 26.9913 128.372Z" fill="black"/>
</g>
<path d="M25.895 120.175C25.895 121.945 24.0048 122.684 22.7486 122.486C21.4923 122.287 20.4384 121.459 19.4466 120.662C17.1831 118.834 14.8339 116.901 13.6905 114.225C13.3119 113.437 13.1584 112.559 13.2471 111.689C13.2982 111.256 13.4613 110.844 13.7206 110.493C13.9798 110.143 14.326 109.866 14.725 109.69C15.6935 109.336 16.7591 109.779 17.6575 110.281C20.3082 111.764 22.5937 113.821 24.3471 116.302C25.1638 117.469 25.8794 118.764 25.9028 120.191" fill="#FFC727"/>
<g opacity="0.3">
<path d="M25.895 120.177C25.895 121.947 24.0048 122.686 22.7486 122.488C21.4923 122.289 20.4384 121.461 19.4466 120.664C17.1831 118.836 14.8339 116.903 13.6905 114.227C13.3119 113.439 13.1584 112.561 13.2471 111.691C13.2982 111.258 13.4613 110.846 13.7206 110.495C13.9798 110.145 14.326 109.868 14.725 109.692C15.6935 109.338 16.7591 109.781 17.6575 110.283C20.3082 111.766 22.5937 113.823 24.3471 116.304C25.1638 117.47 25.8794 118.766 25.9028 120.193" fill="white"/>
</g>
<path d="M29.3712 120.276C27.7183 119.84 26.4504 118.398 25.9098 116.776C25.4343 115.126 25.4208 113.377 25.8709 111.72C26.3328 109.762 27.1716 107.912 28.3405 106.275C28.7722 105.611 29.3412 105.047 30.009 104.622C30.3461 104.414 30.7288 104.292 31.124 104.265C31.5191 104.239 31.9147 104.309 32.2765 104.47C33.3149 105.003 33.6066 106.329 33.7349 107.488C33.9597 109.534 34.0234 111.593 33.9255 113.649C33.8477 115.302 33.6377 117.025 32.7121 118.394C31.7864 119.763 30.433 120.63 29.1456 120.225" fill="#FFC727"/>
<path d="M38.5157 138.042C38.3476 137.896 38.1951 137.733 38.0606 137.556L36.8938 136.183C36.3122 135.509 35.6955 134.867 35.0464 134.258C34.2446 133.523 33.3849 132.855 32.4757 132.258C31.572 131.66 30.5888 131.191 29.5548 130.866C28.7128 130.602 27.8227 130.529 26.949 130.652C26.3617 130.744 25.7922 130.926 25.2611 131.193C25.0751 131.313 24.8769 131.414 24.6699 131.492C24.8365 131.345 25.0177 131.214 25.2105 131.103C25.7385 130.791 26.318 130.575 26.9218 130.466C27.8234 130.312 28.7483 130.368 29.6248 130.629C30.6878 130.947 31.6981 131.421 32.6234 132.033C33.5473 132.638 34.4166 133.323 35.2215 134.079C35.8673 134.703 36.4751 135.365 37.0416 136.062C37.5278 136.657 37.8973 137.151 38.154 137.493C38.2938 137.663 38.4151 137.847 38.5157 138.042Z" fill="#263238"/>
<path d="M37.6204 136.982C37.5477 136.909 37.4837 136.829 37.4298 136.741L36.9281 136.025C36.4964 135.403 35.8624 134.505 35.0534 133.42C33.4394 131.238 31.0981 128.305 28.3639 125.198C25.6298 122.09 23.0084 119.403 21.0327 117.544C20.5465 117.073 20.0954 116.657 19.6909 116.299C19.2864 115.941 18.9519 115.622 18.6641 115.377L18.0069 114.798C17.9265 114.735 17.8535 114.663 17.7891 114.584C17.8807 114.629 17.9658 114.687 18.0419 114.755L18.7303 115.296C19.0297 115.529 19.3837 115.832 19.792 116.186C20.2004 116.54 20.6671 116.941 21.1649 117.404C23.7625 119.807 26.2292 122.348 28.5545 125.015C31.277 128.126 33.6105 131.09 35.1896 133.303C35.9674 134.408 36.5936 135.325 37.002 135.967L37.4609 136.714C37.5239 136.797 37.5774 136.887 37.6204 136.982Z" fill="#263238"/>
<path d="M33.4446 131.067C33.2533 130.829 33.0803 130.577 32.9273 130.313C32.6162 129.815 32.1962 129.072 31.7333 128.127C31.1999 127.017 30.7285 125.878 30.3215 124.716C29.8147 123.293 29.4092 121.836 29.1081 120.356C28.5007 117.67 28.386 114.896 28.7697 112.169C28.8388 111.699 28.9388 111.234 29.0692 110.777C29.1198 110.575 29.1586 110.388 29.217 110.213L29.3881 109.754C29.4792 109.463 29.595 109.181 29.7343 108.91C29.8043 108.933 29.2598 110.131 28.9564 112.197C28.6338 114.902 28.7732 117.643 29.3687 120.302C29.663 121.769 30.0527 123.215 30.5354 124.631C30.928 125.791 31.3784 126.93 31.885 128.045C32.3206 128.998 32.7134 129.749 32.9934 130.262C33.1684 130.516 33.3194 130.785 33.4446 131.067Z" fill="#263238"/>
<path d="M187.282 46.2773H42.3727C39.2431 46.2773 36.7061 48.8144 36.7061 51.944V143.933C36.7061 147.062 39.2431 149.599 42.3727 149.599H187.282C190.412 149.599 192.949 147.062 192.949 143.933V51.944C192.949 48.8144 190.412 46.2773 187.282 46.2773Z" fill="#263238"/>
<path d="M30.1719 141.957H199.448V144.077C199.448 145.913 198.718 147.674 197.42 148.972C196.122 150.27 194.361 151 192.525 151H37.1025C36.1934 151 35.2932 150.82 34.4533 150.473C33.6133 150.125 32.8502 149.615 32.2073 148.972C31.5645 148.329 31.0545 147.566 30.7066 146.726C30.3587 145.886 30.1797 144.986 30.1797 144.077V141.957H30.1719Z" fill="#263238"/>
<path d="M188.318 50.3809H40.8994V137.636H188.318V50.3809Z" fill="#455A64"/>
<path d="M99.4238 141.957L101.524 145.298H131.082L133.035 141.957H99.4238Z" fill="#455A64"/>
<path d="M184.31 53.3359H45.2073C44.5049 53.3359 43.9355 53.9053 43.9355 54.6077V136.084C43.9355 136.786 44.5049 137.355 45.2073 137.355H184.31C185.013 137.355 185.582 136.786 185.582 136.084V54.6077C185.582 53.9053 185.013 53.3359 184.31 53.3359Z" fill="#EBEBEB"/>
<path d="M185.582 59.4941H43.9355V137.357H185.582V59.4941Z" fill="#FAFAFA"/>
<path d="M55.5526 56.579C55.5526 56.8029 55.4862 57.0217 55.3619 57.2078C55.2375 57.3939 55.0608 57.539 54.8539 57.6247C54.6471 57.7103 54.4196 57.7327 54.2 57.6891C53.9805 57.6454 53.7788 57.5376 53.6206 57.3793C53.4623 57.221 53.3545 57.0194 53.3108 56.7998C53.2671 56.5803 53.2896 56.3527 53.3752 56.1459C53.4609 55.9391 53.6059 55.7624 53.7921 55.638C53.9782 55.5136 54.197 55.4473 54.4208 55.4473C54.721 55.4473 55.0089 55.5665 55.2211 55.7788C55.4334 55.991 55.5526 56.2789 55.5526 56.579Z" fill="#455A64"/>
<path d="M48.6962 56.579C48.6962 56.8029 48.6298 57.0217 48.5054 57.2078C48.3811 57.3939 48.2043 57.539 47.9975 57.6247C47.7907 57.7103 47.5631 57.7327 47.3436 57.6891C47.1241 57.6454 46.9224 57.5376 46.7641 57.3793C46.6058 57.221 46.498 57.0194 46.4544 56.7998C46.4107 56.5803 46.4331 56.3527 46.5188 56.1459C46.6044 55.9391 46.7495 55.7624 46.9356 55.638C47.1217 55.5136 47.3405 55.4473 47.5644 55.4473C47.8646 55.4473 48.1524 55.5665 48.3647 55.7788C48.5769 55.991 48.6962 56.2789 48.6962 56.579Z" fill="#455A64"/>
<path d="M51.9872 56.579C51.9872 56.8031 51.9207 57.022 51.7962 57.2082C51.6716 57.3944 51.4946 57.5395 51.2876 57.625C51.0806 57.7106 50.8528 57.7328 50.6332 57.6888C50.4135 57.6448 50.2119 57.5366 50.0537 57.3779C49.8956 57.2193 49.7881 57.0173 49.7449 56.7975C49.7017 56.5777 49.7246 56.35 49.8109 56.1432C49.8972 55.9365 50.0428 55.76 50.2295 55.6361C50.4161 55.5122 50.6353 55.4465 50.8593 55.4473C51.0077 55.4473 51.1547 55.4766 51.2918 55.5335C51.4289 55.5904 51.5534 55.6739 51.6582 55.779C51.763 55.8841 51.846 56.0089 51.9024 56.1462C51.9589 56.2835 51.9877 56.4306 51.9872 56.579Z" fill="#455A64"/>
<path d="M191.607 141.957C191.607 142.011 156.927 142.058 114.161 142.058C71.3943 142.058 36.7139 142.011 36.7139 141.957C36.7139 141.902 71.3865 141.855 114.168 141.855C156.95 141.855 191.607 141.902 191.607 141.957Z" fill="#455A64"/>
<path d="M71.8538 109.71C71.8199 108.763 71.8524 107.816 71.951 106.874C71.9794 105.927 72.0782 104.983 72.2466 104.051C72.2804 104.998 72.2479 105.947 72.1493 106.89C72.1185 107.836 72.0197 108.778 71.8538 109.71Z" fill="#FAFAFA"/>
<path d="M171.212 102.148C163.255 89.8464 154.994 76.0434 154.994 76.0434C147.807 67.277 142 64.2123 130.671 63.7378L108.63 63.6445C104.298 63.8895 94.2401 61.6571 84.9059 75.0439L84.8632 74.9778C84.8632 74.9778 76.5985 88.7807 68.645 101.086C59.7269 114.881 65.063 129.206 74.5917 130.042C84.2253 130.886 90.1992 131.142 93.4001 131.209L93.2484 137.385L144.349 137.303L143.828 130.384C148.954 130.384 163.146 130.33 165.242 130.069C174.736 128.914 180.13 115.959 171.212 102.148ZM94.1235 99.4256L93.8046 113.761L84.8593 113.789L94.1235 99.4256ZM144.797 114.815L146.193 101.203L154.994 114.854L144.797 114.815Z" fill="#FFC727"/>
<path d="M129.815 63.0938C129.824 63.2012 129.824 63.3092 129.815 63.4166C129.812 63.7223 129.79 64.0275 129.749 64.3305C129.688 64.8131 129.595 65.2911 129.473 65.7618C129.299 66.3833 129.078 66.9906 128.811 67.5781C128.101 69.1086 127.053 70.4582 125.747 71.5256C124.127 72.8278 122.143 73.5931 120.068 73.7153C117.99 73.8619 115.922 73.3147 114.188 72.1596C112.795 71.2008 111.668 69.9058 110.909 68.3948C110.4 67.3826 110.063 66.2931 109.91 65.1706C109.865 64.8666 109.84 64.56 109.836 64.2527C109.826 64.1467 109.826 64.0399 109.836 63.9338C109.858 64.0388 109.871 64.1455 109.875 64.2527C109.875 64.4628 109.925 64.7661 109.988 65.1589C110.169 66.2642 110.523 67.3339 111.038 68.3287C111.799 69.8073 112.918 71.072 114.293 72.0079C115.998 73.1248 118.023 73.6509 120.057 73.5053C122.09 73.3857 124.037 72.6399 125.63 71.3701C126.922 70.3264 127.964 69.0068 128.679 67.508C129.169 66.4999 129.504 65.4233 129.671 64.315C129.72 64.0135 129.754 63.7098 129.772 63.4049C129.778 63.3002 129.792 63.1961 129.815 63.0938Z" fill="#263238"/>
<path d="M146.033 103.131C145.975 103.131 146.189 97.243 146.508 89.9895C146.826 82.7361 147.13 76.8672 147.169 76.8672C147.208 76.8672 147.013 82.7555 146.694 90.0129C146.375 97.2702 146.087 103.135 146.033 103.131Z" fill="#263238"/>
<path d="M95.166 76.8672C95.1837 76.945 95.1915 77.0247 95.1893 77.1044V77.7773C95.1893 78.3607 95.2088 79.2046 95.1893 80.2508C95.1893 82.3433 95.1349 85.2291 94.9871 88.4183C94.8393 91.6075 94.6254 94.4855 94.4348 96.5857C94.3415 97.628 94.2559 98.4681 94.1859 99.0515C94.1548 99.3237 94.1275 99.5454 94.1042 99.7165C94.0979 99.7953 94.0849 99.8734 94.0653 99.9499C94.0551 99.8712 94.0551 99.7914 94.0653 99.7127C94.0653 99.5376 94.0925 99.3237 94.1081 99.0437C94.1548 98.4331 94.217 97.5969 94.2909 96.574C94.4465 94.4933 94.637 91.6113 94.7848 88.4299C94.9326 85.2485 95.0065 82.3627 95.0493 80.2625C95.0493 79.2357 95.0804 78.3996 95.0921 77.7889C95.0921 77.5128 95.0921 77.2911 95.1115 77.1161C95.1231 77.0318 95.1414 76.9486 95.166 76.8672Z" fill="#263238"/>
<path d="M141.942 129.875C141.92 129.781 141.907 129.684 141.903 129.587C141.903 129.381 141.856 129.101 141.821 128.743C141.759 127.993 141.67 126.931 141.557 125.601C141.343 122.906 141.047 119.145 140.705 114.816V114.707H140.814L145.839 114.789L160.081 115.049L164.398 115.15L165.565 115.189H165.869C165.903 115.184 165.939 115.184 165.974 115.189C165.939 115.195 165.903 115.195 165.869 115.189H165.565H164.398L160.081 115.15L145.831 114.983L140.802 114.898L140.9 114.793C141.215 119.121 141.487 122.886 141.677 125.585C141.763 126.915 141.837 127.981 141.884 128.732C141.907 129.089 141.922 129.37 141.934 129.576C141.943 129.675 141.946 129.775 141.942 129.875Z" fill="#263238"/>
<path d="M164.026 112.261C164.026 112.296 163.473 112.261 162.594 112.308C161.447 112.373 160.311 112.572 159.211 112.903C158.113 113.243 157.058 113.711 156.068 114.295C155.31 114.746 154.874 115.073 154.855 115.053C154.835 115.034 154.948 114.952 155.139 114.793C155.41 114.569 155.696 114.362 155.994 114.175C156.974 113.542 158.037 113.05 159.152 112.712C160.267 112.373 161.422 112.189 162.587 112.164C162.94 112.157 163.293 112.17 163.644 112.203C163.773 112.206 163.902 112.225 164.026 112.261Z" fill="#263238"/>
<path d="M96.3247 131.317C96.3188 131.288 96.3188 131.257 96.3247 131.228C96.3247 131.158 96.3247 131.072 96.352 130.967C96.3831 130.722 96.4259 130.391 96.4764 129.964C96.597 129.077 96.7681 127.817 96.9781 126.253C97.4254 123.091 98.0399 118.712 98.74 113.757L98.8372 113.874L96.1147 113.835C90.4714 113.796 85.3571 113.901 81.6545 113.882C79.8032 113.882 78.3058 113.854 77.2713 113.827L76.0812 113.788H75.7701H75.665C75.6998 113.782 75.7353 113.782 75.7701 113.788H77.2713H81.6545C85.3532 113.769 90.4675 113.644 96.1186 113.683L98.8411 113.722H98.9422V113.835C98.2188 118.782 97.5771 123.169 97.1143 126.319C96.877 127.875 96.6864 129.139 96.5542 130.022C96.4842 130.446 96.4298 130.777 96.3909 131.018C96.3909 131.123 96.3598 131.208 96.3442 131.278C96.3286 131.348 96.3286 131.317 96.3247 131.317Z" fill="#263238"/>
<path d="M84.6414 113.942C84.3575 113.749 84.0966 113.524 83.8635 113.273C83.4046 112.833 82.7939 112.199 82.1639 111.46C81.5338 110.721 80.9971 110.017 80.6471 109.492C80.4358 109.22 80.257 108.923 80.1143 108.609C80.3531 108.856 80.5704 109.123 80.7638 109.407C81.1527 109.908 81.6933 110.573 82.3195 111.332C82.9456 112.09 83.5329 112.709 83.9685 113.171C84.2134 113.409 84.4385 113.667 84.6414 113.942Z" fill="#263238"/>
<path d="M107.498 80.7121C106.905 79.7603 106.37 78.7732 105.896 77.7562C105.363 76.7696 104.888 75.7528 104.473 74.7109C105.066 75.6627 105.602 76.6498 106.075 77.6668C106.61 78.6524 107.085 79.6694 107.498 80.7121Z" fill="#FAFAFA"/>
<path d="M129.376 80.4141C129.147 80.7131 128.886 80.9857 128.598 81.2269C127.274 82.4542 125.812 83.5232 124.242 84.4122C123.924 84.6086 123.588 84.7728 123.238 84.9023C123.533 84.673 123.845 84.4675 124.172 84.2878C124.751 83.9222 125.548 83.401 126.396 82.7826C127.244 82.1642 127.975 81.5653 128.5 81.118C128.776 80.8645 129.069 80.6293 129.376 80.4141Z" fill="#FAFAFA"/>
<path d="M139.896 78.5143C139.102 77.6346 138.36 76.7101 137.672 75.7452C136.929 74.8221 136.239 73.8572 135.606 72.8555C136.4 73.7362 137.144 74.6607 137.835 75.6246C138.577 76.5474 139.265 77.5122 139.896 78.5143Z" fill="#FAFAFA"/>
<path d="M139.173 92.1855C138.445 92.6954 137.681 93.1504 136.886 93.5468C136.121 94.0019 135.323 94.3985 134.498 94.733C135.225 94.2209 135.991 93.7658 136.789 93.3718C137.552 92.9162 138.349 92.5197 139.173 92.1855Z" fill="#FAFAFA"/>
<path d="M154.337 93.3152C154.262 92.0798 154.255 90.8412 154.313 89.6049C154.306 88.3671 154.366 87.1298 154.492 85.8984C154.566 87.1339 154.574 88.3725 154.515 89.6088C154.525 90.8466 154.465 92.084 154.337 93.3152Z" fill="#FAFAFA"/>
<path d="M160.625 103.926C159.299 104.107 157.965 104.221 156.627 104.268C154.414 104.4 152.621 104.463 152.617 104.408C153.943 104.227 155.278 104.113 156.615 104.066C158.836 103.934 160.621 103.871 160.625 103.926Z" fill="#FAFAFA"/>
<path d="M170.804 111.799C170.617 110.537 170.501 109.266 170.454 107.991C170.336 106.72 170.288 105.444 170.31 104.168C170.491 105.432 170.606 106.704 170.656 107.979C170.771 109.249 170.82 110.524 170.804 111.799Z" fill="#FAFAFA"/>
<path d="M166.515 121.675C165.619 122.672 164.673 123.622 163.679 124.522C162.736 125.472 161.744 126.373 160.708 127.221C160.669 127.182 161.937 125.906 163.539 124.374C165.142 122.842 166.476 121.636 166.515 121.675Z" fill="#FAFAFA"/>
<path d="M149.588 124.846C149.331 124.784 149.086 124.677 148.865 124.531C147.75 123.907 146.795 123.032 146.076 121.975C145.908 121.769 145.776 121.535 145.688 121.283C146.23 121.982 146.817 122.644 147.445 123.267C148.124 123.841 148.839 124.368 149.588 124.846Z" fill="#FAFAFA"/>
<path d="M105.165 89.5605C104.358 90.3886 103.502 91.1679 102.602 91.8941C101.746 92.6683 100.846 93.3929 99.9072 94.0643C100.714 93.2362 101.57 92.457 102.47 91.7307C103.327 90.9565 104.226 90.232 105.165 89.5605Z" fill="#FAFAFA"/>
<path d="M115.93 94.8753C115.07 93.8921 114.528 92.672 114.374 91.375C114.432 91.375 114.642 92.2034 115.074 93.168C115.506 94.1325 115.98 94.8442 115.93 94.8753Z" fill="#FAFAFA"/>
<path d="M97.0362 67.9894C97.0712 68.0361 95.6244 69.2612 93.8004 70.7119C91.9763 72.1626 90.4751 73.3371 90.4401 73.2944C90.4051 73.2516 91.8519 72.0226 93.6759 70.5719C95.5 69.1212 96.9973 67.9466 97.0362 67.9894Z" fill="#FAFAFA"/>
<path d="M89.561 88.4467C89.5026 88.4662 89.0593 87.1672 88.3164 85.6542C87.5736 84.1413 86.823 82.994 86.8735 82.959C87.087 83.1723 87.2714 83.413 87.4219 83.6746C87.8191 84.2822 88.1788 84.9134 88.4992 85.5648C88.8192 86.2161 89.0959 86.8878 89.3276 87.5755C89.4427 87.8546 89.5211 88.1475 89.561 88.4467Z" fill="#FAFAFA"/>
<path d="M86.4615 97.0273C86.1567 97.2028 85.8314 97.3399 85.4931 97.4357C83.8798 97.9782 82.1896 98.2566 80.4876 98.2602C80.1358 98.2793 79.7831 98.2544 79.4375 98.1863C79.7841 98.1383 80.1338 98.1149 80.4837 98.1163C81.3251 98.0812 82.1639 97.9994 82.9962 97.8713C83.8246 97.7303 84.6451 97.546 85.4542 97.319C85.7816 97.195 86.1185 97.0975 86.4615 97.0273Z" fill="#FAFAFA"/>
<path d="M78.2582 118.674C77.1762 119.474 76.0547 120.219 74.8979 120.906C73.0116 122.073 71.4598 123.018 71.4287 122.971C72.5098 122.169 73.6313 121.423 74.789 120.735C75.9101 119.99 77.068 119.302 78.2582 118.674Z" fill="#FAFAFA"/>
<path d="M88.9005 126.526C88.85 126.546 88.0643 124.508 87.1503 121.976C86.2364 119.444 85.5324 117.375 85.5946 117.356C85.6569 117.336 86.4308 119.374 87.3487 121.906C88.2666 124.438 88.955 126.507 88.9005 126.526Z" fill="#FAFAFA"/>
<path d="M100.354 110.187C99.8748 109.388 99.4524 108.556 99.09 107.698C98.6673 106.866 98.3072 106.004 98.0127 105.119C98.492 105.919 98.9131 106.752 99.2728 107.612C99.696 108.443 100.057 109.303 100.354 110.187Z" fill="#FAFAFA"/>
<path d="M143.634 103.129C143.556 103.431 143.448 103.724 143.311 104.004C143.093 104.537 142.79 105.268 142.475 106.085C142.16 106.901 141.891 107.64 141.697 108.189C141.61 108.488 141.494 108.779 141.351 109.056C141.384 108.745 141.454 108.44 141.561 108.146C141.724 107.59 141.973 106.835 142.292 106.015C142.611 105.194 142.934 104.459 143.186 103.946C143.304 103.658 143.455 103.384 143.634 103.129Z" fill="#FAFAFA"/>
<path d="M107.269 134.732C106.912 134.756 106.553 134.756 106.196 134.732C105.337 134.721 104.479 134.762 103.625 134.853C102.771 134.946 101.923 135.087 101.085 135.277C100.742 135.375 100.392 135.45 100.039 135.502C100.359 135.337 100.699 135.214 101.05 135.137C101.887 134.904 102.742 134.742 103.605 134.65C104.467 134.557 105.335 134.537 106.2 134.588C106.561 134.591 106.92 134.64 107.269 134.732Z" fill="#FAFAFA"/>
<path d="M117.755 135.484C117.7 135.515 117.097 134.422 116.094 133.279C115.091 132.135 114.099 131.377 114.149 131.334C114.398 131.449 114.627 131.601 114.83 131.785C115.348 132.194 115.826 132.651 116.257 133.15C116.695 133.647 117.085 134.184 117.424 134.753C117.567 134.98 117.679 135.226 117.755 135.484Z" fill="#FAFAFA"/>
<path d="M129.337 132.428C128.582 133.002 127.786 133.522 126.957 133.983C126.163 134.5 125.334 134.96 124.476 135.36C125.228 134.784 126.023 134.264 126.852 133.805C127.646 133.287 128.477 132.826 129.337 132.428Z" fill="#FAFAFA"/>
<path d="M141.623 134.938C141.046 134.977 140.466 134.95 139.896 134.856C139.318 134.83 138.745 134.736 138.188 134.576C138.765 134.537 139.345 134.564 139.915 134.658C140.494 134.682 141.067 134.776 141.623 134.938Z" fill="#FAFAFA"/>
<path d="M126.771 36.5408C126.692 36.8692 126.711 37.2136 126.826 37.5312C126.941 37.8488 127.147 38.1258 127.417 38.3278C127.688 38.5298 128.012 38.648 128.349 38.6677C128.687 38.6874 129.022 38.6078 129.315 38.4387C130.419 37.797 130.481 36.2218 130.178 34.9812C129.875 33.7405 129.381 32.4259 129.843 31.2358C130.193 30.3257 131.034 29.7151 131.671 28.98C132.235 28.3397 132.643 27.5771 132.862 26.7524C133.082 25.9277 133.107 25.0634 132.935 24.2274C132.745 23.3958 132.328 22.6331 131.73 22.0236C131.133 21.4141 130.379 20.9816 129.552 20.7737C127.856 20.3848 125.83 21.0343 124.519 19.8948C123.566 19.0702 123.43 17.639 122.676 16.6317C121.509 15.076 119.199 14.9437 117.285 15.3171C115.372 15.6905 113.435 16.4217 111.517 16.06C109.915 15.7566 108.554 14.7259 107.033 14.1153C105.374 13.4735 103.556 13.3648 101.832 13.8044C100.108 14.244 98.5638 15.2101 97.4145 16.5681C96.2653 17.9262 95.5679 19.6087 95.4195 21.3816C95.2711 23.1545 95.679 24.9296 96.5864 26.4598C97.1987 27.5867 98.1889 28.4613 99.3828 28.9295" fill="#263238"/>
<path d="M120.333 72.6838C117.768 72.8994 115.222 72.089 113.254 70.4304C111.285 68.7717 110.055 66.4002 109.832 63.8358C109.568 60.7866 109.354 58.2197 109.354 58.2197C109.354 58.2197 101.575 57.5624 100.934 49.8656C100.292 42.1687 100.389 25.4099 100.389 25.4099V24.3948C109.035 19.9378 119.47 21.3534 127.575 26.7284L127.672 28.3152L129.224 62.8673C129.257 65.3242 128.358 67.7023 126.708 69.5234C125.059 71.3445 122.781 72.4737 120.333 72.6838Z" fill="#FFBE9D"/>
<path d="M104.165 37.4341C104.374 37.3447 104.552 37.1941 104.675 37.002C104.798 36.81 104.859 36.5853 104.852 36.3575C104.845 36.1297 104.769 35.9094 104.635 35.7254C104.5 35.5414 104.314 35.4022 104.099 35.3261C103.846 35.2328 103.567 35.2412 103.321 35.3495C103.11 35.4382 102.931 35.5888 102.807 35.7813C102.684 35.9739 102.621 36.1994 102.628 36.4281C102.636 36.6568 102.712 36.878 102.847 37.0624C102.983 37.2469 103.171 37.386 103.387 37.4613C103.64 37.5534 103.919 37.5437 104.165 37.4341Z" fill="#263238"/>
<path d="M101.4 35.8241C101.528 35.9485 102.244 35.3146 103.306 35.2368C104.367 35.159 105.172 35.649 105.281 35.5051C105.336 35.439 105.196 35.2095 104.842 34.9762C104.365 34.6785 103.804 34.5427 103.244 34.5889C102.683 34.6352 102.152 34.861 101.73 35.2329C101.435 35.5168 101.338 35.7696 101.4 35.8241Z" fill="#263238"/>
<path d="M114.181 35.6101C113.999 35.7382 113.86 35.9173 113.781 36.1245C113.702 36.3318 113.686 36.558 113.735 36.7744C113.785 36.9907 113.897 37.1875 114.059 37.3398C114.22 37.492 114.423 37.5929 114.642 37.6296C114.861 37.6662 115.086 37.637 115.288 37.5457C115.49 37.4544 115.661 37.305 115.778 37.1166C115.895 36.9281 115.954 36.7091 115.947 36.4873C115.939 36.2655 115.866 36.0509 115.736 35.8707C115.563 35.6317 115.303 35.4705 115.012 35.4217C114.721 35.3729 114.422 35.4406 114.181 35.6101Z" fill="#263238"/>
<path d="M112.703 36.0037C112.831 36.1282 113.546 35.4943 114.608 35.4165C115.67 35.3387 116.475 35.8287 116.584 35.6848C116.635 35.6187 116.498 35.3892 116.144 35.1559C115.667 34.8582 115.107 34.7224 114.546 34.7686C113.986 34.8149 113.455 35.0407 113.033 35.4126C112.738 35.6965 112.64 35.9493 112.703 36.0037Z" fill="#263238"/>
<path d="M109.054 45.0538C109.054 44.9721 108.389 44.8905 107.312 44.8204C107.036 44.8204 106.802 44.766 106.767 44.6104C106.736 44.3291 106.784 44.0447 106.907 43.7898L107.596 41.5768C108.537 38.4226 109.182 35.8324 109.031 35.7896C108.879 35.7468 107.992 38.2593 107.047 41.4135C106.826 42.1913 106.612 42.9186 106.405 43.6381C106.249 44.0074 106.223 44.4189 106.332 44.8049C106.379 44.9038 106.448 44.9905 106.535 45.058C106.621 45.1255 106.722 45.172 106.829 45.1938C106.986 45.2247 107.145 45.2339 107.304 45.221C108.393 45.1938 109.054 45.1316 109.054 45.0538Z" fill="#263238"/>
<path d="M112.59 45.984C113.648 45.2489 109.661 47.8119 107.495 47.8586C107.495 47.8586 108.872 49.7527 111.034 48.7842C113.282 47.7769 112.59 45.984 112.59 45.984Z" fill="white"/>
<path d="M109.346 58.1056C109.346 58.1056 114.238 58.1639 119.186 54.5508C119.186 54.5508 117.202 60.2602 109.462 60.1046L109.346 58.1056Z" fill="#EB996E"/>
<path d="M127.571 33.4604C127.738 33.3943 133.28 32.6281 132.813 39.1854C132.347 45.7426 125.875 43.098 125.875 42.9113C125.875 42.7246 127.571 33.4604 127.571 33.4604Z" fill="#FFBE9D"/>
<path d="M128.049 40.7512C128.081 40.7512 128.158 40.8407 128.345 40.9418C128.609 41.0746 128.913 41.1024 129.197 41.0196C129.908 40.8173 130.57 39.7556 130.686 38.5771C130.745 38.0167 130.676 37.4501 130.484 36.9203C130.437 36.7106 130.34 36.5153 130.202 36.3514C130.063 36.1874 129.886 36.0597 129.687 35.9791C129.558 35.9355 129.417 35.9384 129.29 35.9874C129.163 36.0365 129.057 36.1284 128.991 36.2475C128.889 36.4225 128.924 36.5586 128.889 36.5664C128.854 36.5742 128.753 36.4458 128.827 36.1775C128.876 36.0189 128.978 35.8817 129.115 35.7885C129.305 35.6659 129.535 35.6226 129.757 35.668C130.022 35.7395 130.265 35.8784 130.461 36.0713C130.658 36.2641 130.801 36.5043 130.877 36.7686C131.117 37.3571 131.209 37.9954 131.145 38.6277C131.009 39.9461 130.243 41.1324 129.275 41.3502C129.095 41.3899 128.909 41.3882 128.73 41.3451C128.552 41.3019 128.385 41.2185 128.244 41.1012C128.049 40.9107 128.026 40.7629 128.049 40.7512Z" fill="#EB996E"/>
<path d="M117.182 31.8576C117.011 32.091 115.856 31.5115 114.347 31.527C112.838 31.5426 111.675 32.0598 111.507 31.8226C111.433 31.7137 111.647 31.3987 112.149 31.0875C112.82 30.7056 113.58 30.507 114.352 30.5118C115.124 30.5166 115.882 30.7245 116.548 31.1148C117.046 31.4337 117.256 31.7526 117.182 31.8576Z" fill="#263238"/>
<path d="M105.11 32.3045C105.048 32.5806 104.223 32.6234 103.255 32.6545C102.286 32.6857 101.458 32.674 101.38 32.4017C101.302 32.1295 102.111 31.6667 103.228 31.6239C104.344 31.5811 105.164 32.04 105.11 32.3045Z" fill="#263238"/>
<path d="M98.7547 28.6759C98.7547 28.6759 103.492 30.7528 109.435 27.5091C113.324 25.3778 117.929 24.2383 118.983 24.9967C120.037 25.7551 120.398 29.8466 124.381 30.8928C124.381 30.8928 124.381 38.7141 127.492 38.3212C130.604 37.9284 128.2 25.899 128.2 25.899L120.881 21.0296L112.507 19.7656L103.371 21.1269L98.2764 24.4833L98.7547 28.6759Z" fill="#263238"/>
<path d="M128.528 19.3384C127.94 19.3856 127.363 19.5166 126.813 19.7273C126.287 19.9928 125.802 20.3306 125.37 20.7307C125.35 20.7307 125.444 20.5324 125.669 20.2873C125.97 19.9698 126.332 19.7156 126.733 19.54C127.133 19.3643 127.565 19.2706 128.003 19.2645C128.329 19.2567 128.532 19.3073 128.528 19.3384Z" fill="#263238"/>
<path d="M125.205 16.3867C125.301 16.6089 125.359 16.8455 125.377 17.0868C125.47 17.6614 125.492 18.2453 125.443 18.8253C125.395 19.4083 125.245 19.9783 124.999 20.5093C124.912 20.7367 124.779 20.9443 124.61 21.1199C124.678 20.8917 124.764 20.6693 124.867 20.4549C125.07 19.9252 125.201 19.3705 125.256 18.8058C125.306 18.2391 125.306 17.6691 125.256 17.1023C125.213 16.8664 125.196 16.6264 125.205 16.3867Z" fill="#263238"/>
<path d="M124.899 19.7304C124.885 19.7999 124.868 19.8687 124.848 19.9365C124.792 20.1393 124.719 20.337 124.63 20.5277C124.333 21.1628 123.9 21.7253 123.363 22.176C122.825 22.6267 122.196 22.9548 121.519 23.1374C120.839 23.3206 120.124 23.334 119.438 23.1763C118.648 22.9967 117.914 22.6239 117.303 22.0912C116.611 21.4985 116.111 20.7132 115.868 19.8354C115.736 19.3609 115.707 18.8636 115.782 18.3769C115.862 17.8613 116.106 17.3853 116.478 17.0196C116.67 16.8259 116.899 16.6735 117.152 16.5718C117.405 16.4701 117.676 16.4213 117.949 16.4284C118.232 16.4495 118.508 16.5355 118.753 16.6798C118.999 16.8241 119.208 17.0228 119.364 17.2607C119.701 17.739 119.863 18.3185 119.823 18.902C119.756 19.4971 119.529 20.0629 119.166 20.5393C118.396 21.5026 117.372 22.2314 116.21 22.6434C115.004 23.0989 113.71 23.2732 112.426 23.1529C111.083 23.0295 109.794 22.5664 108.68 21.8072C108.103 21.4149 107.62 20.8979 107.269 20.2943C107.094 19.9832 106.975 19.6434 106.919 19.2909C106.869 18.9329 106.887 18.5686 106.973 18.2175C107.065 17.8636 107.229 17.5326 107.455 17.2452C107.69 16.9553 108.001 16.737 108.354 16.6151C108.713 16.5176 109.09 16.5019 109.456 16.5692C109.822 16.6365 110.168 16.7851 110.47 17.004C111.075 17.4257 111.537 18.023 111.792 18.7153C112.047 19.3908 112.126 20.1204 112.021 20.8349C111.892 21.5271 111.61 22.1818 111.197 22.7516C110.783 23.3214 110.248 23.7919 109.629 24.1291C108.444 24.7811 107.074 25.0127 105.74 24.7864C104.457 24.6078 103.246 24.082 102.24 23.2657C101.758 22.8618 101.373 22.3555 101.112 21.7839C100.862 21.2202 100.769 20.5993 100.844 19.9871C100.919 19.3903 101.203 18.8393 101.645 18.4314C101.858 18.2302 102.113 18.0772 102.39 17.9826C102.668 17.888 102.963 17.8541 103.255 17.883C103.535 17.9301 103.802 18.0355 104.038 18.1922C104.275 18.349 104.475 18.5537 104.628 18.7931C104.924 19.2554 105.06 19.8017 105.017 20.3488C104.98 20.8526 104.826 21.3409 104.566 21.7739C104.305 22.207 103.947 22.5728 103.519 22.8418C102.729 23.2998 101.814 23.4958 100.906 23.4018C100.102 23.3291 99.3223 23.0865 98.619 22.6901C97.2966 21.955 96.5149 20.7455 96.4332 19.6759C96.382 19.2667 96.4128 18.8513 96.5236 18.4541C96.6345 18.0568 96.8232 17.6855 97.0788 17.3618C97.2111 17.1985 97.3656 17.0545 97.5377 16.934L97.7205 16.8212C97.4907 16.9801 97.2851 17.1714 97.1099 17.3891C96.622 18.0321 96.403 18.8395 96.4993 19.6409C96.5926 20.6755 97.3627 21.8539 98.6617 22.5656C99.3522 22.9478 100.116 23.1798 100.902 23.2463C101.783 23.3314 102.669 23.1368 103.434 22.6901C103.839 22.4325 104.179 22.0832 104.425 21.6705C104.671 21.2578 104.816 20.793 104.85 20.3138C104.88 19.8033 104.743 19.2969 104.461 18.8709C104.323 18.6541 104.141 18.4685 103.928 18.3259C103.714 18.1832 103.473 18.0867 103.22 18.0424C102.952 18.0171 102.682 18.0495 102.428 18.1374C102.173 18.2252 101.941 18.3666 101.746 18.5519C101.331 18.9341 101.068 19.4536 101.007 20.0143C100.937 20.5936 101.025 21.1811 101.264 21.7139C101.513 22.2602 101.882 22.7429 102.345 23.1257C103.326 23.9165 104.504 24.426 105.752 24.5997C107.048 24.8191 108.38 24.5943 109.532 23.9619C110.124 23.6385 110.636 23.1877 111.032 22.6423C111.428 22.0968 111.698 21.4702 111.823 20.8077C111.924 20.1273 111.849 19.4324 111.605 18.7892C111.361 18.1378 110.926 17.5753 110.357 17.1751C110.082 16.97 109.765 16.8287 109.428 16.7614C109.092 16.6941 108.745 16.7026 108.412 16.7862C108.096 16.8992 107.819 17.0987 107.611 17.3618C107.402 17.6254 107.251 17.9302 107.168 18.2564C107.089 18.5809 107.072 18.9173 107.117 19.2481C107.171 19.577 107.282 19.8941 107.444 20.1854C107.779 20.7629 108.24 21.2574 108.793 21.6322C109.88 22.3734 111.136 22.827 112.445 22.9507C113.7 23.0702 114.965 22.9012 116.144 22.4568C117.273 22.0586 118.27 21.3543 119.022 20.4227C119.371 19.972 119.587 19.4335 119.648 18.867C119.684 18.3321 119.535 17.801 119.228 17.3618C119.087 17.1431 118.897 16.9594 118.674 16.8246C118.451 16.6899 118.2 16.6076 117.941 16.584C117.69 16.5783 117.441 16.6237 117.208 16.7173C116.975 16.8109 116.764 16.9508 116.587 17.1285C116.236 17.4701 116.006 17.9164 115.93 18.4003C115.857 18.8657 115.882 19.3414 116.004 19.7965C116.238 20.6487 116.72 21.4121 117.388 21.99C117.981 22.5123 118.693 22.8797 119.461 23.0596C120.128 23.2277 120.825 23.2277 121.492 23.0596C122.051 22.9183 122.579 22.6729 123.047 22.3362C123.709 21.8728 124.244 21.251 124.603 20.5277C124.695 20.3405 124.773 20.1468 124.836 19.9482C124.871 19.7965 124.899 19.7304 124.899 19.7304Z" fill="#455A64"/>
<path d="M132.526 27.4159C132.526 27.4159 132.526 27.4392 132.475 27.4742C132.425 27.5092 132.386 27.5598 132.304 27.6181C132.075 27.7908 131.822 27.9309 131.554 28.0342C131.128 28.1988 130.672 28.2755 130.216 28.2598C129.604 28.2426 129.011 28.048 128.508 27.6998C127.896 27.2759 127.437 26.6644 127.202 25.9574C127.053 25.5639 127.021 25.1359 127.108 24.7245C127.155 24.4968 127.279 24.2922 127.458 24.145C127.558 24.0697 127.675 24.0221 127.799 24.0071C127.922 23.9921 128.048 24.0101 128.162 24.0594C128.383 24.1674 128.559 24.3508 128.656 24.5767C128.762 24.794 128.82 25.0313 128.827 25.2729C128.827 26.0264 128.557 26.755 128.065 27.326C127.573 27.897 126.893 28.2725 126.148 28.3843C125.642 28.4549 125.126 28.4 124.647 28.2243C124.167 28.0487 123.738 27.7576 123.398 27.377C123.234 27.1904 123.114 26.9696 123.047 26.7307C122.98 26.4918 122.967 26.2409 123.009 25.9963C123.045 25.7542 123.157 25.5296 123.328 25.3544C123.499 25.1792 123.721 25.0622 123.962 25.0201C124.19 24.9923 124.422 25.0235 124.635 25.1107C124.848 25.1978 125.036 25.338 125.179 25.5179C125.438 25.8514 125.575 26.2629 125.568 26.6847C125.557 27.0616 125.463 27.4315 125.292 27.7677C125.121 28.1039 124.878 28.3981 124.58 28.6293C124.101 29.0199 123.49 29.2132 122.873 29.1699C122.414 29.1315 121.973 28.9747 121.593 28.7149C121.355 28.5522 121.148 28.348 120.983 28.112C120.922 28.0319 120.873 27.9443 120.835 27.8515C121.051 28.1586 121.323 28.4225 121.636 28.6293C122.009 28.8704 122.438 29.0111 122.881 29.0377C123.466 29.0661 124.041 28.8731 124.491 28.4971C124.761 28.2793 124.982 28.0057 125.137 27.6949C125.292 27.3841 125.378 27.0435 125.389 26.6963C125.4 26.3107 125.278 25.933 125.043 25.6268C124.919 25.4721 124.757 25.3516 124.574 25.2767C124.39 25.2019 124.19 25.1751 123.993 25.199C123.793 25.2399 123.611 25.342 123.471 25.4911C123.332 25.6402 123.243 25.829 123.215 26.0313C123.183 26.2489 123.199 26.471 123.263 26.6816C123.327 26.8922 123.437 27.0859 123.585 27.2486C123.903 27.6027 124.304 27.873 124.752 28.0358C125.199 28.1986 125.68 28.2488 126.152 28.182C126.85 28.0761 127.487 27.7237 127.948 27.1887C128.409 26.6536 128.663 25.9713 128.664 25.2651C128.67 25.0587 128.624 24.8541 128.528 24.6709C128.433 24.4877 128.292 24.332 128.12 24.2189C128.035 24.1814 127.942 24.1674 127.85 24.1784C127.759 24.1893 127.672 24.2248 127.598 24.2811C127.452 24.4043 127.351 24.5726 127.311 24.7595C127.228 25.138 127.257 25.5323 127.392 25.8952C127.613 26.5706 128.043 27.158 128.621 27.5714C129.099 27.9117 129.665 28.1074 130.251 28.1354C130.694 28.159 131.138 28.0956 131.558 27.9487C131.903 27.8153 132.229 27.6361 132.526 27.4159Z" fill="#455A64"/>
<path d="M103.703 105.562L136.403 106.126L136.773 128.377L102.925 127.233L103.703 105.562Z" fill="#455A64"/>
<path d="M103.702 105.562L120.628 92.5371L136.403 106.126" fill="#263238"/>
<path d="M102.925 127.236C102.883 127.197 105.574 124.404 108.926 121.013C112.279 117.621 115.033 114.876 115.071 114.914C115.11 114.953 112.427 117.746 109.07 121.157C105.714 124.568 102.964 127.275 102.925 127.236Z" fill="#263238"/>
<path d="M136.773 128.377C136.73 128.412 134.249 125.55 131.231 121.984C128.213 118.417 125.805 115.496 125.848 115.461C125.891 115.426 128.368 118.285 131.387 121.855C134.405 125.426 136.816 128.342 136.773 128.377Z" fill="#263238"/>
<path d="M136.403 106.126L119.664 118.84L103.702 105.562" fill="#263238"/>
<path d="M105.32 106.82L105.503 97.3066H134.159L134.214 107.722L119.668 118.67L105.32 106.82Z" fill="#EBEBEB"/>
<path d="M112.508 107.785C112.479 107.92 112.409 107.99 112.298 107.995C112.259 107.991 112.222 107.979 112.189 107.96C112.156 107.934 112.129 107.901 112.112 107.863C112.095 107.825 112.088 107.783 112.092 107.742L112.605 104.195C112.601 104.17 112.601 104.146 112.605 104.121C112.618 104.082 112.643 104.049 112.677 104.027C112.711 104.004 112.751 103.994 112.792 103.997C112.826 103.996 112.86 104.005 112.889 104.024C112.921 104.039 112.948 104.062 112.968 104.092C112.987 104.121 112.997 104.156 112.998 104.191C112.687 106.501 112.523 107.699 112.508 107.785Z" fill="#263238"/>
<path d="M115.997 107.823C115.977 107.956 115.907 108.022 115.79 108.022C115.744 108.019 115.699 108.003 115.66 107.976C115.622 107.949 115.592 107.913 115.573 107.87L114.297 104.875C114.297 105.015 114.258 105.175 114.235 105.35C114.048 106.777 113.935 107.594 113.9 107.792C113.865 107.991 113.803 108.002 113.686 108.002C113.647 108.003 113.609 107.99 113.577 107.967C113.543 107.943 113.516 107.91 113.498 107.872C113.481 107.833 113.473 107.791 113.476 107.749C113.811 105.393 113.982 104.21 113.982 104.202C113.989 104.174 113.999 104.147 114.013 104.121C114.032 104.088 114.06 104.061 114.094 104.043C114.128 104.025 114.166 104.017 114.204 104.02C114.246 104.014 114.289 104.02 114.327 104.038C114.366 104.056 114.399 104.085 114.421 104.121L115.689 107.049L116.098 104.237C116.097 104.206 116.106 104.175 116.121 104.148C116.134 104.113 116.158 104.083 116.19 104.063C116.221 104.042 116.259 104.033 116.296 104.035C116.332 104.035 116.366 104.044 116.397 104.062C116.427 104.081 116.452 104.108 116.469 104.139C116.486 104.17 116.495 104.206 116.494 104.241C116.494 104.3 116.475 104.362 116.467 104.428C116.192 106.461 116.035 107.593 115.997 107.823Z" fill="#263238"/>
<path d="M117.506 104.055C117.541 104.055 117.575 104.066 117.603 104.086C117.635 104.103 117.661 104.129 117.679 104.159C117.698 104.19 117.708 104.225 117.708 104.261C117.635 104.817 117.572 105.257 117.533 105.572C117.425 106.369 117.37 106.82 117.366 106.925C117.366 107.361 117.471 107.582 117.697 107.586C117.913 107.58 118.125 107.525 118.317 107.426C118.509 107.326 118.676 107.184 118.805 107.011C119.103 106.637 119.625 106.192 119.75 105.731C119.479 105.729 118.913 105.656 118.696 105.494C118.589 105.404 118.503 105.291 118.447 105.163C118.391 105.034 118.366 104.895 118.374 104.755C118.375 104.65 118.399 104.547 118.445 104.453C118.49 104.359 118.556 104.276 118.638 104.21C118.775 104.089 118.953 104.022 119.136 104.024C119.246 104.021 119.356 104.041 119.458 104.083C119.56 104.124 119.653 104.186 119.731 104.265C119.821 104.359 119.891 104.471 119.936 104.593C119.982 104.716 120.002 104.846 119.995 104.976C119.995 105.043 119.995 105.151 119.972 105.303L120.085 105.272C120.207 105.227 120.325 105.168 120.435 105.097C120.505 105.046 120.589 105.015 120.676 105.008C120.705 105.008 120.733 105.016 120.758 105.031C120.787 105.047 120.812 105.071 120.829 105.101C120.845 105.131 120.853 105.164 120.851 105.198C120.851 105.307 120.762 105.408 120.59 105.505C120.369 105.626 119.936 105.731 119.875 105.731" stroke="#263238" stroke-width="0.4"/>
<path d="M121.112 107.871C121.084 108.011 121.014 108.081 120.905 108.081C120.866 108.082 120.828 108.069 120.797 108.046C120.762 108.022 120.734 107.989 120.716 107.951C120.699 107.912 120.691 107.87 120.695 107.828L121.209 104.285V104.211C121.222 104.172 121.248 104.139 121.283 104.116C121.317 104.094 121.358 104.083 121.399 104.086C121.433 104.086 121.467 104.094 121.497 104.11C121.528 104.125 121.555 104.148 121.574 104.178C121.592 104.208 121.602 104.242 121.602 104.277C121.275 106.592 121.112 107.79 121.112 107.871Z" fill="#263238"/>
<path d="M125.3 104.334C125.299 104.369 125.288 104.402 125.269 104.431C125.247 104.462 125.217 104.486 125.183 104.502C125.149 104.519 125.112 104.526 125.074 104.524H123.907C123.607 106.695 123.45 107.82 123.437 107.9C123.437 107.9 123.437 107.92 123.437 107.931C123.432 107.983 123.407 108.03 123.368 108.063C123.329 108.097 123.278 108.114 123.227 108.11C123.188 108.111 123.149 108.099 123.118 108.075C123.084 108.05 123.058 108.017 123.041 107.979C123.024 107.941 123.017 107.899 123.021 107.857C123.021 107.857 123.133 107.052 123.355 105.524C123.433 104.999 123.48 104.672 123.499 104.532H122.398C122.359 104.53 122.32 104.523 122.282 104.513C122.243 104.504 122.209 104.482 122.185 104.451C122.161 104.419 122.148 104.381 122.149 104.342C122.15 104.302 122.161 104.263 122.181 104.229C122.201 104.196 122.23 104.17 122.264 104.153C122.299 104.136 122.337 104.128 122.375 104.132L125.098 104.159C125.123 104.154 125.15 104.154 125.175 104.159C125.211 104.172 125.242 104.196 125.264 104.228C125.286 104.259 125.298 104.296 125.3 104.334Z" fill="#263238"/>
<path d="M125.879 104.129L127.532 104.148C127.564 104.144 127.597 104.144 127.629 104.148C127.672 104.161 127.709 104.188 127.734 104.225C127.758 104.262 127.77 104.306 127.765 104.351C127.77 104.376 127.77 104.403 127.765 104.428C127.744 104.467 127.714 104.499 127.677 104.522C127.641 104.545 127.598 104.558 127.555 104.561H126.069L125.871 105.965H126.94C126.981 105.965 127.02 105.973 127.057 105.988C127.095 106.003 127.127 106.031 127.149 106.066C127.171 106.101 127.181 106.141 127.178 106.182C127.181 106.206 127.181 106.229 127.178 106.252C127.158 106.292 127.127 106.326 127.09 106.35C127.052 106.374 127.008 106.388 126.964 106.389H125.828L125.641 107.703H127.112C127.149 107.702 127.186 107.708 127.221 107.723C127.261 107.736 127.295 107.762 127.319 107.798C127.343 107.833 127.355 107.875 127.353 107.917C127.356 107.939 127.356 107.961 127.353 107.983C127.335 108.026 127.306 108.062 127.267 108.087C127.229 108.113 127.185 108.127 127.139 108.127H125.424C125.383 108.127 125.343 108.116 125.307 108.096C125.274 108.071 125.248 108.038 125.231 107.999C125.214 107.961 125.206 107.92 125.21 107.878C125.21 107.855 125.374 106.672 125.704 104.331C125.707 104.306 125.715 104.283 125.727 104.261C125.738 104.227 125.758 104.197 125.784 104.174C125.811 104.151 125.844 104.135 125.879 104.129Z" fill="#263238"/>
<path d="M103.415 113.574C103.415 113.574 102.925 118.517 104.123 118.494C106.215 118.459 114.235 116.398 114.799 117.942C115.362 119.486 112.749 120.933 112.749 120.933C112.749 120.933 115.308 121.415 114.048 122.749C112.788 124.083 108.49 130.656 105.725 130.792C101.75 130.986 96.6279 129.645 96.6279 129.645L98.7203 115.161L103.415 113.574Z" fill="#FFBE9D"/>
<path d="M113.721 120.203C113.617 120.296 113.502 120.377 113.379 120.444C113.154 120.592 112.819 120.786 112.399 121.016C110.195 122.206 107.821 123.049 105.36 123.513C104.889 123.602 104.504 123.66 104.239 123.688C104.102 123.713 103.963 123.722 103.823 123.715C103.823 123.684 104.403 123.583 105.332 123.373C107.757 122.829 110.108 121.995 112.333 120.887C113.189 120.467 113.721 120.176 113.721 120.203Z" fill="#EB996E"/>
<path d="M113.5 123.691C113.421 123.804 113.326 123.906 113.22 123.994C112.947 124.257 112.661 124.505 112.361 124.737C110.376 126.284 108.025 127.289 105.535 127.654C105.162 127.712 104.785 127.748 104.407 127.763C104.269 127.78 104.129 127.78 103.991 127.763C103.991 127.728 104.578 127.685 105.512 127.518C107.956 127.078 110.268 126.09 112.275 124.628C113.041 124.064 113.477 123.664 113.5 123.691Z" fill="#EB996E"/>
<path d="M136.524 113.463C136.524 113.463 136.971 117.589 135.404 118.13C133.428 118.826 125.292 116.034 124.724 117.574C124.156 119.114 126.778 120.569 126.778 120.569C126.778 120.569 124.215 121.051 125.475 122.385C126.735 123.719 131.032 130.288 133.798 130.424C136.524 130.508 139.252 130.321 141.942 129.864L140.802 114.797L136.524 113.463Z" fill="#FFBE9D"/>
<path d="M125.806 119.849C125.806 119.822 126.338 120.11 127.19 120.534C129.415 121.641 131.766 122.476 134.191 123.019C135.124 123.229 135.708 123.326 135.7 123.361C135.561 123.369 135.421 123.36 135.284 123.334C135.019 123.303 134.634 123.245 134.164 123.159C131.704 122.69 129.33 121.848 127.124 120.662C126.704 120.433 126.37 120.238 126.144 120.091C126.021 120.025 125.908 119.944 125.806 119.849Z" fill="#EB996E"/>
<path d="M126.252 123.337C126.275 123.31 126.703 123.699 127.45 124.255C128.417 124.979 129.461 125.596 130.561 126.095C131.67 126.585 132.834 126.943 134.027 127.16C134.944 127.328 135.52 127.367 135.52 127.402C135.391 127.418 135.26 127.418 135.131 127.402C134.76 127.388 134.39 127.353 134.023 127.297C132.808 127.115 131.622 126.771 130.499 126.274C129.379 125.772 128.327 125.13 127.368 124.364C127.003 124.065 126.719 123.816 126.532 123.629C126.427 123.543 126.333 123.445 126.252 123.337Z" fill="#EB996E"/>
<path d="M54.8065 94.5425C53.6853 94.6774 52.5519 94.6774 51.4307 94.5425C52.5519 94.4077 53.6853 94.4077 54.8065 94.5425Z" fill="#455A64"/>
<path d="M56.5992 89.1738C56.7342 90.5044 56.7342 91.8453 56.5992 93.1759C56.4643 91.8453 56.4643 90.5044 56.5992 89.1738Z" fill="#455A64"/>
<path d="M58.4932 94.4136C59.6144 94.2788 60.7478 94.2788 61.869 94.4136C60.7478 94.5485 59.6144 94.5485 58.4932 94.4136Z" fill="#455A64"/>
<path d="M56.7164 99.7813C56.5815 98.4494 56.5815 97.1073 56.7164 95.7754C56.8512 97.1073 56.8512 98.4494 56.7164 99.7813Z" fill="#455A64"/>
<path d="M59.4459 97.479C59.3992 97.5101 59.092 97.1601 58.7614 96.7011C58.533 96.4376 58.3574 96.1326 58.2441 95.8027C58.2908 95.7716 58.5942 96.1178 58.9286 96.5806C59.1564 96.8446 59.3319 97.1495 59.4459 97.479Z" fill="#455A64"/>
<path d="M59.2709 91.3915C59.3137 91.4265 59.0687 91.7804 58.7264 92.1927C58.3841 92.605 58.0691 92.8967 58.0263 92.8617C57.9836 92.8267 58.2286 92.4727 58.5708 92.0605C58.9131 91.6482 59.2437 91.3565 59.2709 91.3915Z" fill="#455A64"/>
<path d="M55.4171 92.9446C55.3782 92.9835 55.0826 92.7579 54.752 92.439C54.4214 92.1201 54.192 91.8284 54.2309 91.7895C54.2697 91.7506 54.5692 91.9762 54.8959 92.2951C55.2226 92.614 55.456 92.9018 55.4171 92.9446Z" fill="#455A64"/>
<path d="M55.2656 95.6239C55.3083 95.6589 55.0944 96.0128 54.7794 96.4017C54.4644 96.7907 54.1805 97.0979 54.1338 97.0629C54.2409 96.773 54.4063 96.5083 54.6199 96.285C54.9311 95.8883 55.2228 95.5889 55.2656 95.6239Z" fill="#455A64"/>
<path d="M164.375 75.48C163.629 75.6149 162.865 75.6149 162.119 75.48C162.865 75.3452 163.629 75.3452 164.375 75.48Z" fill="#455A64"/>
<path d="M165.577 72.4082C165.712 73.1658 165.712 73.9413 165.577 74.699C165.442 73.9413 165.442 73.1658 165.577 72.4082Z" fill="#455A64"/>
<path d="M166.852 75.4078C167.599 75.2729 168.364 75.2729 169.111 75.4078C168.364 75.5426 167.599 75.5426 166.852 75.4078Z" fill="#455A64"/>
<path d="M165.654 78.4744C165.519 77.7167 165.519 76.9412 165.654 76.1836C165.789 76.9412 165.789 77.7167 165.654 78.4744Z" fill="#455A64"/>
<path d="M167.479 77.1603C167.436 77.1953 167.222 77.0086 167 76.7441C166.779 76.4796 166.635 76.2346 166.677 76.1996C166.72 76.1646 166.934 76.3474 167.156 76.6119C167.378 76.8763 167.521 77.1252 167.479 77.1603Z" fill="#455A64"/>
<path d="M167.392 73.6778C167.431 73.7167 167.275 73.9384 167.046 74.1718C166.816 74.4051 166.599 74.5607 166.56 74.5179C166.521 74.4751 166.673 74.2612 166.902 74.0279C167.132 73.7945 167.334 73.6389 167.392 73.6778Z" fill="#455A64"/>
<path d="M164.784 74.5628C164.749 74.6056 164.543 74.4928 164.325 74.3139C164.107 74.135 163.955 73.9483 163.99 73.9056C164.025 73.8628 164.235 73.9756 164.453 74.1545C164.671 74.3334 164.823 74.5317 164.784 74.5628Z" fill="#455A64"/>
<path d="M164.669 76.0892C164.712 76.1281 164.576 76.342 164.366 76.5715C164.156 76.801 163.954 76.9604 163.915 76.9215C163.876 76.8826 164.008 76.6648 164.218 76.4354C164.428 76.2059 164.642 76.062 164.669 76.0892Z" fill="#455A64"/>
<path d="M180.325 72.8555L180.434 73.1238C180.63 73.5882 181.002 73.956 181.468 74.1467L181.756 74.2634L181.48 74.3762C181.245 74.4712 181.032 74.6125 180.853 74.7915C180.674 74.9706 180.533 75.1838 180.438 75.4185L180.36 75.6129L180.243 75.3679C180.029 74.9246 179.651 74.5816 179.189 74.4112L178.937 74.3217L179.267 74.1623C179.682 73.9614 180.008 73.6155 180.185 73.1899L180.325 72.8555Z" fill="#455A64"/>
<path d="M71.8016 77.752L71.9105 78.0164C72.0061 78.2466 72.1465 78.4554 72.3234 78.631C72.5003 78.8066 72.7102 78.9453 72.9411 79.0393L73.2328 79.156L72.9528 79.2688C72.719 79.3646 72.5068 79.5062 72.3284 79.6852C72.1501 79.8642 72.0093 80.077 71.9143 80.3111L71.8366 80.5055L71.7199 80.2605C71.5069 79.8172 71.1284 79.475 70.6659 79.3077L70.4131 79.2143L70.7437 79.0549C71.1566 78.8517 71.4825 78.5065 71.6615 78.0825L71.8016 77.752Z" fill="#455A64"/>
<path d="M58.0302 114.949L58.0846 115.081C58.1826 115.314 58.3685 115.499 58.6019 115.595L58.7458 115.653L58.6058 115.708C58.4886 115.756 58.3822 115.826 58.2928 115.916C58.2033 116.005 58.1325 116.112 58.0846 116.229L58.0457 116.326L57.9874 116.205C57.8812 115.984 57.6929 115.812 57.4623 115.727L57.334 115.68L57.5012 115.603C57.7073 115.5 57.87 115.328 57.9602 115.116L58.0302 114.949Z" fill="#455A64"/>
<path d="M152.318 61.3398L152.427 61.6043C152.523 61.8344 152.663 62.0433 152.84 62.2189C153.017 62.3945 153.227 62.5332 153.458 62.6272L153.749 62.7439L153.469 62.8566C153.236 62.9525 153.023 63.0941 152.845 63.2731C152.667 63.4521 152.526 63.6649 152.431 63.899L152.353 64.0934L152.236 63.8484C152.023 63.405 151.645 63.0629 151.182 62.8955L150.93 62.8022L151.26 62.6427C151.674 62.4407 152 62.0951 152.178 61.6704L152.318 61.3398Z" fill="#455A64"/>
</svg>
