<svg width="21" height="20" viewBox="0 0 21 20" fill="none" xmlns="http://www.w3.org/2000/svg">
<path d="M10.1783 9.72974C12.881 9.72974 15.0432 7.56757 15.0432 4.86487C15.0432 2.16216 12.881 0 10.1783 0C7.47564 0 5.31348 2.16216 5.31348 4.86487C5.31348 7.56757 7.47564 9.72974 10.1783 9.72974ZM10.1783 1.8018C11.8901 1.8018 13.2414 3.15315 13.2414 4.86487C13.2414 6.57658 11.8901 7.92793 10.1783 7.92793C8.46663 7.92793 7.11528 6.57658 7.11528 4.86487C7.11528 3.15315 8.46663 1.8018 10.1783 1.8018Z" fill="#C1C1C1"/>
<path d="M12.1605 11.1719H8.19649C3.78207 11.1719 0.268555 14.7755 0.268555 19.0998C0.268555 19.6403 0.628915 20.0007 1.16946 20.0007C1.71 20.0007 2.07036 19.6403 2.07036 19.0998C2.07036 15.6764 4.86315 12.9737 8.19649 12.9737H12.1605C15.5839 12.9737 18.2866 15.7665 18.2866 19.0998C18.2866 19.6403 18.6469 20.0007 19.1875 20.0007C19.728 20.0007 20.0884 19.6403 20.0884 19.0998C20.0884 14.7755 16.4848 11.1719 12.1605 11.1719Z" fill="#C1C1C1"/>
</svg>
