<svg width="17" height="19" viewBox="0 0 17 19" fill="none" xmlns="http://www.w3.org/2000/svg">
<path fill-rule="evenodd" clip-rule="evenodd" d="M5.67663 13.1926C0.901502 8.41688 1.58051 6.23001 2.08389 5.52531C2.14856 5.41141 3.74248 3.0254 5.45103 4.42526C9.69191 7.91793 4.32302 7.42412 7.88415 10.9859C11.446 14.5469 10.9522 9.17817 14.4443 13.4182C15.8442 15.1274 13.4581 16.7212 13.3449 16.7852C12.6402 17.2893 10.4525 17.9683 5.67663 13.1926Z" stroke="#282828" stroke-width="1.5" stroke-linecap="round" stroke-linejoin="round"/>
<path d="M10.3848 6.64152H15.5867" stroke="#282828" stroke-linecap="round" stroke-linejoin="round"/>
<path d="M12.075 8.32422C12.075 8.32422 10.3848 7.43002 10.3848 6.64301C10.3848 5.85641 12.075 4.9618 12.075 4.9618" stroke="#282828" stroke-linecap="round" stroke-linejoin="round"/>
<path d="M16.4978 2.55168L11.2959 2.55168" stroke="#282828" stroke-linecap="round" stroke-linejoin="round"/>
<path d="M14.8057 0.870005C14.8057 0.870005 16.4959 1.76462 16.4959 2.55121C16.4959 3.33781 14.8057 4.23242 14.8057 4.23242" stroke="#282828" stroke-linecap="round" stroke-linejoin="round"/>
</svg>
