<svg width="243" height="211" viewBox="0 0 243 211" fill="none" xmlns="http://www.w3.org/2000/svg">
<path d="M7.728 14L5.726 11.13C5.642 11.1393 5.516 11.144 5.348 11.144H3.136V14H1.316V4.2H5.348C6.19733 4.2 6.93467 4.34 7.56 4.62C8.19467 4.9 8.68 5.30133 9.016 5.824C9.352 6.34667 9.52 6.96733 9.52 7.686C9.52 8.42333 9.338 9.058 8.974 9.59C8.61933 10.122 8.106 10.5187 7.434 10.78L9.688 14H7.728ZM7.686 7.686C7.686 7.06067 7.48067 6.58 7.07 6.244C6.65933 5.908 6.05733 5.74 5.264 5.74H3.136V9.646H5.264C6.05733 9.646 6.65933 9.478 7.07 9.142C7.48067 8.79667 7.686 8.31133 7.686 7.686ZM18.5562 10.304C18.5562 10.4253 18.5469 10.598 18.5282 10.822H12.6622C12.7649 11.3727 13.0309 11.8113 13.4602 12.138C13.8989 12.4553 14.4402 12.614 15.0842 12.614C15.9056 12.614 16.5822 12.3433 17.1142 11.802L18.0522 12.88C17.7162 13.2813 17.2916 13.5847 16.7782 13.79C16.2649 13.9953 15.6862 14.098 15.0422 14.098C14.2209 14.098 13.4976 13.9347 12.8722 13.608C12.2469 13.2813 11.7616 12.8287 11.4162 12.25C11.0802 11.662 10.9122 10.9993 10.9122 10.262C10.9122 9.534 11.0756 8.88067 11.4022 8.302C11.7382 7.714 12.2002 7.25667 12.7882 6.93C13.3762 6.60333 14.0389 6.44 14.7762 6.44C15.5042 6.44 16.1529 6.60333 16.7222 6.93C17.3009 7.24733 17.7489 7.7 18.0662 8.288C18.3929 8.86667 18.5562 9.53867 18.5562 10.304ZM14.7762 7.84C14.2162 7.84 13.7402 8.008 13.3482 8.344C12.9656 8.67067 12.7322 9.10933 12.6482 9.66H16.8902C16.8156 9.11867 16.5869 8.68 16.2042 8.344C15.8216 8.008 15.3456 7.84 14.7762 7.84ZM23.8072 14.098C23.0326 14.098 22.3372 13.9347 21.7212 13.608C21.1052 13.2813 20.6246 12.8287 20.2792 12.25C19.9339 11.662 19.7612 10.9993 19.7612 10.262C19.7612 9.52467 19.9339 8.86667 20.2792 8.288C20.6246 7.70933 21.1006 7.25667 21.7072 6.93C22.3232 6.60333 23.0232 6.44 23.8072 6.44C24.5446 6.44 25.1886 6.58933 25.7392 6.888C26.2992 7.18667 26.7192 7.616 26.9992 8.176L25.6552 8.96C25.4406 8.61467 25.1699 8.358 24.8432 8.19C24.5259 8.01267 24.1759 7.924 23.7932 7.924C23.1399 7.924 22.5986 8.13867 22.1692 8.568C21.7399 8.988 21.5252 9.55267 21.5252 10.262C21.5252 10.9713 21.7352 11.5407 22.1552 11.97C22.5846 12.39 23.1306 12.6 23.7932 12.6C24.1759 12.6 24.5259 12.516 24.8432 12.348C25.1699 12.1707 25.4406 11.9093 25.6552 11.564L26.9992 12.348C26.7099 12.908 26.2852 13.342 25.7252 13.65C25.1746 13.9487 24.5352 14.098 23.8072 14.098ZM35.5706 10.304C35.5706 10.4253 35.5613 10.598 35.5426 10.822H29.6766C29.7793 11.3727 30.0453 11.8113 30.4746 12.138C30.9133 12.4553 31.4546 12.614 32.0986 12.614C32.9199 12.614 33.5966 12.3433 34.1286 11.802L35.0666 12.88C34.7306 13.2813 34.3059 13.5847 33.7926 13.79C33.2793 13.9953 32.7006 14.098 32.0566 14.098C31.2353 14.098 30.5119 13.9347 29.8866 13.608C29.2613 13.2813 28.7759 12.8287 28.4306 12.25C28.0946 11.662 27.9266 10.9993 27.9266 10.262C27.9266 9.534 28.0899 8.88067 28.4166 8.302C28.7526 7.714 29.2146 7.25667 29.8026 6.93C30.3906 6.60333 31.0533 6.44 31.7906 6.44C32.5186 6.44 33.1673 6.60333 33.7366 6.93C34.3153 7.24733 34.7633 7.7 35.0806 8.288C35.4073 8.86667 35.5706 9.53867 35.5706 10.304ZM31.7906 7.84C31.2306 7.84 30.7546 8.008 30.3626 8.344C29.9799 8.67067 29.7466 9.10933 29.6626 9.66H33.9046C33.8299 9.11867 33.6013 8.68 33.2186 8.344C32.8359 8.008 32.3599 7.84 31.7906 7.84ZM41.6336 6.44C42.5763 6.44 43.3323 6.71533 43.9016 7.266C44.4709 7.81667 44.7556 8.63333 44.7556 9.716V14H43.0056V9.94C43.0056 9.28667 42.8516 8.79667 42.5436 8.47C42.2356 8.134 41.7969 7.966 41.2276 7.966C40.5836 7.966 40.0749 8.162 39.7016 8.554C39.3283 8.93667 39.1416 9.492 39.1416 10.22V14H37.3916V6.524H39.0576V7.49C39.3469 7.14467 39.7109 6.88333 40.1496 6.706C40.5883 6.52867 41.0829 6.44 41.6336 6.44ZM51.6096 13.594C51.4042 13.762 51.1522 13.888 50.8536 13.972C50.5642 14.056 50.2562 14.098 49.9296 14.098C49.1082 14.098 48.4736 13.8833 48.0256 13.454C47.5776 13.0247 47.3536 12.3993 47.3536 11.578V7.98H46.1216V6.58H47.3536V4.872H49.1036V6.58H51.1056V7.98H49.1036V11.536C49.1036 11.9 49.1922 12.18 49.3696 12.376C49.5469 12.5627 49.8036 12.656 50.1396 12.656C50.5316 12.656 50.8582 12.5533 51.1196 12.348L51.6096 13.594ZM66.3263 4.2L62.0563 14H60.2643L55.9803 4.2H57.9543L61.2163 11.76L64.5063 4.2H66.3263ZM67.4008 6.524H69.1508V14H67.4008V6.524ZM68.2828 5.292C67.9655 5.292 67.6995 5.194 67.4848 4.998C67.2701 4.79267 67.1628 4.54067 67.1628 4.242C67.1628 3.94333 67.2701 3.696 67.4848 3.5C67.6995 3.29467 67.9655 3.192 68.2828 3.192C68.6001 3.192 68.8661 3.29 69.0808 3.486C69.2955 3.67267 69.4028 3.91067 69.4028 4.2C69.4028 4.508 69.2955 4.76933 69.0808 4.984C68.8755 5.18933 68.6095 5.292 68.2828 5.292ZM73.8977 14.098C73.291 14.098 72.6984 14.0187 72.1197 13.86C71.541 13.7013 71.079 13.5007 70.7337 13.258L71.4057 11.928C71.7417 12.152 72.143 12.334 72.6097 12.474C73.0857 12.6047 73.5524 12.67 74.0097 12.67C75.055 12.67 75.5777 12.3947 75.5777 11.844C75.5777 11.5827 75.4424 11.4007 75.1717 11.298C74.9104 11.1953 74.4857 11.0973 73.8977 11.004C73.2817 10.9107 72.7777 10.8033 72.3857 10.682C72.003 10.5607 71.667 10.3507 71.3777 10.052C71.0977 9.744 70.9577 9.31933 70.9577 8.778C70.9577 8.06867 71.2517 7.504 71.8397 7.084C72.437 6.65467 73.2397 6.44 74.2477 6.44C74.761 6.44 75.2744 6.50067 75.7877 6.622C76.301 6.734 76.721 6.888 77.0477 7.084L76.3757 8.414C75.741 8.04067 75.027 7.854 74.2337 7.854C73.7204 7.854 73.3284 7.93333 73.0577 8.092C72.7964 8.24133 72.6657 8.442 72.6657 8.694C72.6657 8.974 72.8057 9.17467 73.0857 9.296C73.375 9.408 73.8184 9.51533 74.4157 9.618C75.013 9.71133 75.503 9.81867 75.8857 9.94C76.2684 10.0613 76.595 10.2667 76.8657 10.556C77.1457 10.8453 77.2857 11.256 77.2857 11.788C77.2857 12.488 76.9824 13.048 76.3757 13.468C75.769 13.888 74.943 14.098 73.8977 14.098ZM78.9328 6.524H80.6828V14H78.9328V6.524ZM79.8148 5.292C79.4974 5.292 79.2314 5.194 79.0168 4.998C78.8021 4.79267 78.6948 4.54067 78.6948 4.242C78.6948 3.94333 78.8021 3.696 79.0168 3.5C79.2314 3.29467 79.4974 3.192 79.8148 3.192C80.1321 3.192 80.3981 3.29 80.6128 3.486C80.8274 3.67267 80.9348 3.91067 80.9348 4.2C80.9348 4.508 80.8274 4.76933 80.6128 4.984C80.4074 5.18933 80.1414 5.292 79.8148 5.292ZM87.6136 13.594C87.4083 13.762 87.1563 13.888 86.8576 13.972C86.5683 14.056 86.2603 14.098 85.9336 14.098C85.1123 14.098 84.4776 13.8833 84.0296 13.454C83.5816 13.0247 83.3576 12.3993 83.3576 11.578V7.98H82.1256V6.58H83.3576V4.872H85.1076V6.58H87.1096V7.98H85.1076V11.536C85.1076 11.9 85.1963 12.18 85.3736 12.376C85.551 12.5627 85.8076 12.656 86.1436 12.656C86.5356 12.656 86.8623 12.5533 87.1236 12.348L87.6136 13.594ZM92.3071 14.098C91.5511 14.098 90.8698 13.9347 90.2631 13.608C89.6565 13.2813 89.1805 12.8287 88.8351 12.25C88.4991 11.662 88.3311 10.9993 88.3311 10.262C88.3311 9.52467 88.4991 8.86667 88.8351 8.288C89.1805 7.70933 89.6565 7.25667 90.2631 6.93C90.8698 6.60333 91.5511 6.44 92.3071 6.44C93.0725 6.44 93.7585 6.60333 94.3651 6.93C94.9718 7.25667 95.4431 7.70933 95.7791 8.288C96.1245 8.86667 96.2971 9.52467 96.2971 10.262C96.2971 10.9993 96.1245 11.662 95.7791 12.25C95.4431 12.8287 94.9718 13.2813 94.3651 13.608C93.7585 13.9347 93.0725 14.098 92.3071 14.098ZM92.3071 12.6C92.9511 12.6 93.4831 12.3853 93.9031 11.956C94.3231 11.5267 94.5331 10.962 94.5331 10.262C94.5331 9.562 94.3231 8.99733 93.9031 8.568C93.4831 8.13867 92.9511 7.924 92.3071 7.924C91.6631 7.924 91.1311 8.13867 90.7111 8.568C90.3005 8.99733 90.0951 9.562 90.0951 10.262C90.0951 10.962 90.3005 11.5267 90.7111 11.956C91.1311 12.3853 91.6631 12.6 92.3071 12.6ZM99.7766 7.616C100.281 6.832 101.167 6.44 102.437 6.44V8.106C102.287 8.078 102.152 8.064 102.031 8.064C101.349 8.064 100.817 8.26467 100.435 8.666C100.052 9.058 99.8606 9.62733 99.8606 10.374V14H98.1106V6.524H99.7766V7.616Z" fill="#282828"/>
<g clip-path="url(#clip0_5998_21037)">
<path d="M184.674 86.039H156.637C156.023 86.0409 155.417 85.9027 154.865 85.635C154.312 85.3673 153.828 84.9772 153.449 84.4943C153.064 84.0068 152.794 83.4377 152.661 82.8304C152.529 82.223 152.537 81.5935 152.684 80.9896C155.268 70.1661 155.268 58.8864 152.684 48.063C152.537 47.4591 152.529 46.8296 152.661 46.2223C152.794 45.615 153.064 45.046 153.449 44.5585C153.828 44.0755 154.312 43.6853 154.864 43.4177C155.417 43.15 156.023 43.0118 156.637 43.0137H184.674C185.642 43.0165 186.578 43.3628 187.314 43.9909C188.051 44.6191 188.541 45.4883 188.696 46.4437C190.541 58.4282 190.541 70.6245 188.696 82.609C188.541 83.5645 188.051 84.4337 187.314 85.0618C186.578 85.69 185.642 86.0363 184.674 86.039Z" fill="#E6E6E6"/>
<path d="M156.637 45.1231C156.342 45.1221 156.051 45.1883 155.785 45.3168C155.52 45.4452 155.288 45.6325 155.105 45.8644C154.918 46.1019 154.787 46.3791 154.723 46.6748C154.659 46.9705 154.663 47.277 154.735 47.5709C157.396 58.7177 157.396 70.3345 154.735 81.4813C154.663 81.7751 154.659 82.0815 154.723 82.3772C154.787 82.6729 154.918 82.95 155.105 83.1875L155.106 83.1876C155.288 83.4196 155.52 83.6069 155.785 83.7354C156.051 83.8639 156.342 83.9301 156.637 83.9291H184.674C185.139 83.9293 185.589 83.7645 185.943 83.4639C186.298 83.1634 186.535 82.7468 186.611 82.2882C188.423 70.5162 188.423 58.536 186.611 46.764C186.535 46.3054 186.298 45.8888 185.943 45.5882C185.589 45.2877 185.139 45.1229 184.674 45.1231L156.637 45.1231Z" fill="white"/>
<path d="M178.556 55.2681H163.843C163.284 55.2674 162.747 55.045 162.352 54.6495C161.956 54.254 161.734 53.7178 161.733 53.1585V52.3341C161.734 51.7748 161.956 51.2386 162.352 50.8432C162.747 50.4477 163.284 50.2252 163.843 50.2246H178.556C179.115 50.2252 179.651 50.4477 180.047 50.8432C180.442 51.2386 180.665 51.7748 180.665 52.3341V53.1585C180.665 53.7178 180.442 54.254 180.047 54.6495C179.651 55.045 179.115 55.2674 178.556 55.2681Z" fill="#E6E6E6"/>
<path d="M178.556 65.6841H163.843C163.284 65.6835 162.747 65.461 162.352 65.0655C161.956 64.67 161.734 64.1338 161.733 63.5745V62.7502C161.734 62.1909 161.956 61.6546 162.352 61.2592C162.747 60.8637 163.284 60.6412 163.843 60.6406H178.556C179.115 60.6412 179.651 60.8637 180.047 61.2592C180.442 61.6546 180.665 62.1909 180.665 62.7502V63.5745C180.665 64.1338 180.442 64.67 180.047 65.0655C179.651 65.461 179.115 65.6835 178.556 65.6841Z" fill="#E6E6E6"/>
<path d="M178.556 76.1001H163.843C163.284 76.0995 162.747 75.877 162.352 75.4815C161.956 75.0861 161.734 74.5498 161.733 73.9905V73.1662C161.734 72.6069 161.956 72.0707 162.352 71.6752C162.747 71.2797 163.284 71.0573 163.843 71.0566H178.556C179.115 71.0573 179.651 71.2797 180.047 71.6752C180.442 72.0707 180.665 72.6069 180.665 73.1662V73.9905C180.665 74.5498 180.442 75.0861 180.047 75.4815C179.651 75.877 179.115 76.0995 178.556 76.1001Z" fill="#E6E6E6"/>
<path d="M237.414 112.762H209.377C208.763 112.764 208.157 112.625 207.605 112.358C207.052 112.09 206.568 111.7 206.19 111.217C205.804 110.729 205.534 110.16 205.402 109.553C205.269 108.946 205.277 108.316 205.424 107.712C208.008 96.8888 208.008 85.6091 205.424 74.7857C205.277 74.1818 205.269 73.5522 205.402 72.9449C205.534 72.3377 205.804 71.7686 206.189 71.2811C206.568 70.7982 207.052 70.408 207.605 70.1403C208.157 69.8726 208.763 69.7345 209.377 69.7363H237.414C238.382 69.7391 239.318 70.0854 240.055 70.7136C240.791 71.3417 241.281 72.2109 241.436 73.1664C243.282 85.1509 243.282 97.3472 241.436 109.332C241.281 110.287 240.791 111.156 240.055 111.784C239.318 112.413 238.382 112.759 237.414 112.762Z" fill="#E6E6E6"/>
<path d="M209.378 71.8457C209.083 71.8447 208.792 71.911 208.527 72.0394C208.261 72.1679 208.029 72.3552 207.847 72.587C207.659 72.8246 207.528 73.1018 207.464 73.3975C207.4 73.6932 207.404 73.9996 207.476 74.2935C210.138 85.4403 210.138 97.0571 207.476 108.204C207.404 108.498 207.4 108.804 207.464 109.1C207.528 109.395 207.659 109.673 207.847 109.91L207.847 109.91C208.029 110.142 208.261 110.329 208.527 110.458C208.792 110.586 209.083 110.653 209.378 110.652H237.415C237.88 110.652 238.33 110.487 238.685 110.187C239.039 109.886 239.276 109.469 239.352 109.011C241.164 97.2388 241.164 85.2587 239.352 73.4866C239.276 73.0281 239.039 72.6114 238.685 72.3109C238.33 72.0104 237.88 71.8455 237.415 71.8457L209.378 71.8457Z" fill="white"/>
<path d="M181.51 143.176H153.473C152.832 143.178 152.2 143.034 151.624 142.754C151.047 142.475 150.543 142.068 150.147 141.564C149.745 141.056 149.464 140.462 149.326 139.829C149.187 139.196 149.195 138.539 149.349 137.91C151.927 127.113 151.927 115.861 149.349 105.065C149.195 104.435 149.187 103.779 149.326 103.146C149.464 102.512 149.745 101.919 150.147 101.411C150.542 100.907 151.047 100.5 151.624 100.22C152.2 99.9411 152.832 99.7969 153.473 99.7988H181.51C182.52 99.8019 183.496 100.163 184.265 100.819C185.033 101.474 185.544 102.381 185.706 103.378C187.554 115.38 187.554 127.595 185.706 139.597C185.544 140.594 185.033 141.501 184.265 142.156C183.496 142.811 182.52 143.173 181.51 143.176Z" fill="#F2F2F2"/>
<path d="M231.296 87.2641H216.583C216.024 87.2635 215.488 87.041 215.092 86.6456C214.697 86.2501 214.474 85.7139 214.474 85.1546V84.3302C214.474 83.7709 214.697 83.2347 215.092 82.8392C215.488 82.4438 216.024 82.2213 216.583 82.2207H231.296C231.855 82.2213 232.391 82.4438 232.787 82.8392C233.182 83.2347 233.405 83.7709 233.405 84.3302V85.1546C233.405 85.7139 233.182 86.2501 232.787 86.6456C232.391 87.041 231.855 87.2635 231.296 87.2641Z" fill="#E6E6E6"/>
<path d="M231.296 97.6802H216.583C216.024 97.6796 215.488 97.4571 215.092 97.0617C214.697 96.6662 214.474 96.13 214.474 95.5707V94.7463C214.474 94.187 214.697 93.6507 215.092 93.2553C215.488 92.8598 216.024 92.6373 216.583 92.6367H231.296C231.855 92.6373 232.391 92.8598 232.787 93.2553C233.182 93.6507 233.405 94.187 233.405 94.7463V95.5707C233.405 96.13 233.182 96.6662 232.787 97.0617C232.391 97.4571 231.855 97.6796 231.296 97.6802Z" fill="#E6E6E6"/>
<path d="M167.569 129.428C172.036 129.428 175.656 125.807 175.656 121.341C175.656 116.875 172.036 113.254 167.569 113.254C163.103 113.254 159.482 116.875 159.482 121.341C159.482 125.807 163.103 129.428 167.569 129.428Z" fill="white"/>
<path d="M171.438 120.286H168.625V117.473C168.625 117.193 168.514 116.925 168.316 116.727C168.118 116.529 167.85 116.418 167.57 116.418C167.29 116.418 167.022 116.529 166.824 116.727C166.626 116.925 166.515 117.193 166.515 117.473V120.286H163.702C163.423 120.286 163.154 120.397 162.956 120.595C162.759 120.792 162.647 121.061 162.647 121.34C162.647 121.62 162.759 121.888 162.956 122.086C163.154 122.284 163.423 122.395 163.702 122.395H166.515V125.208C166.515 125.488 166.626 125.756 166.824 125.954C167.022 126.152 167.29 126.263 167.57 126.263C167.85 126.263 168.118 126.152 168.316 125.954C168.514 125.756 168.625 125.488 168.625 125.208V122.395H171.438C171.717 122.395 171.986 122.284 172.183 122.086C172.381 121.888 172.492 121.62 172.492 121.34C172.492 121.061 172.381 120.792 172.183 120.595C171.986 120.397 171.717 120.286 171.438 120.286Z" fill="#E6E6E6"/>
<path d="M177.767 46.9772H162.999C162.58 46.9768 162.178 46.8099 161.881 46.5133C161.584 46.2167 161.417 45.8145 161.417 45.395V42.5822C161.417 42.1627 161.584 41.7606 161.881 41.4639C162.178 41.1673 162.58 41.0005 162.999 41H177.767C178.186 41.0005 178.588 41.1673 178.885 41.4639C179.181 41.7606 179.348 42.1627 179.349 42.5822V45.395C179.348 45.8145 179.181 46.2167 178.885 46.5133C178.588 46.8099 178.186 46.9768 177.767 46.9772Z" fill="#CCCCCC"/>
<path d="M231.21 74.0515H216.443C216.023 74.051 215.621 73.8842 215.324 73.5875C215.028 73.2909 214.861 72.8887 214.86 72.4693V69.6564C214.861 69.237 215.028 68.8348 215.324 68.5382C215.621 68.2415 216.023 68.0747 216.443 68.0742H231.21C231.629 68.0747 232.031 68.2415 232.328 68.5382C232.625 68.8348 232.792 69.237 232.792 69.6564V72.4693C232.792 72.8887 232.625 73.2909 232.328 73.5875C232.031 73.8842 231.629 74.051 231.21 74.0515Z" fill="#CCCCCC"/>
<path d="M103.151 206.626H107.462L108.809 190H103.15L103.151 206.626Z" fill="#FFB8B8"/>
<path d="M102.051 205.219L110.54 205.219H110.54C111.251 205.219 111.954 205.359 112.61 205.63C113.267 205.902 113.863 206.301 114.366 206.803C114.868 207.305 115.266 207.902 115.538 208.558C115.81 209.215 115.95 209.918 115.95 210.628V210.804L102.051 210.805L102.051 205.219Z" fill="#2F2E41"/>
<path d="M79.945 206.626H84.2557L86.3066 190H79.9443L79.945 206.626Z" fill="#FFB8B8"/>
<path d="M78.8457 205.219L87.3347 205.219H87.3351C88.0455 205.219 88.749 205.359 89.4054 205.63C90.0618 205.902 90.6581 206.301 91.1605 206.803C91.6629 207.305 92.0614 207.902 92.3332 208.558C92.6051 209.215 92.745 209.918 92.745 210.628V210.804L78.846 210.805L78.8457 205.219Z" fill="#2F2E41"/>
<path d="M80.71 201.373C80.2703 201.373 79.8467 201.208 79.5234 200.91C79.3498 200.751 79.21 200.56 79.1124 200.346C79.0148 200.132 78.9613 199.901 78.9553 199.666L77.2266 137.709L101.772 143.845L109.346 166.565C110.322 169.488 110.745 172.567 110.592 175.645L109.652 197.668C109.63 198.119 109.436 198.545 109.109 198.856C108.782 199.168 108.348 199.342 107.896 199.341H103.779C103.354 199.34 102.944 199.185 102.624 198.905C102.304 198.625 102.096 198.24 102.037 197.819L99.0943 173.509C98.8372 171.612 98.1737 169.793 97.1493 168.177L91.3586 159.008C91.3199 158.947 91.2632 158.899 91.1963 158.872C91.1294 158.844 91.0555 158.837 90.9848 158.853C90.9141 158.869 90.85 158.906 90.8012 158.96C90.7525 159.013 90.7215 159.081 90.7125 159.153L86.1682 199.618C86.1194 200.028 85.9274 200.409 85.6259 200.691C85.3245 200.974 84.9329 201.141 84.5202 201.164L80.8101 201.37C80.7767 201.372 80.7434 201.373 80.71 201.373Z" fill="#2F2E41"/>
<path d="M97.6875 97.5976C102.457 97.5976 106.323 93.7313 106.323 88.9619C106.323 84.1925 102.457 80.3262 97.6875 80.3262C92.9181 80.3262 89.0518 84.1925 89.0518 88.9619C89.0518 93.7313 92.9181 97.5976 97.6875 97.5976Z" fill="#FFB8B8"/>
<path d="M101.654 146.366C101.505 146.365 101.357 146.347 101.213 146.31H101.213L76.8596 140.065C76.4242 139.954 76.048 139.68 75.8085 139.299C75.5689 138.919 75.4842 138.461 75.5717 138.021L81.1647 107.891C81.5132 106.15 82.2791 104.519 83.3968 103.138C84.5144 101.758 85.9504 100.67 87.5814 99.9664C89.1706 99.2631 90.9085 98.9617 92.6417 99.089C94.375 99.2162 96.0502 99.7682 97.5197 100.696C97.8606 100.909 98.2041 101.141 98.5402 101.386C99.8935 102.384 100.997 103.682 101.764 105.178C102.532 106.675 102.942 108.329 102.963 110.01L103.408 144.583C103.411 144.815 103.368 145.046 103.281 145.262C103.194 145.478 103.066 145.674 102.903 145.84C102.739 146.006 102.545 146.137 102.331 146.228C102.117 146.318 101.886 146.365 101.654 146.366Z" fill="#FFC727"/>
<path d="M79.3662 146.719C79.0757 146.292 78.8824 145.806 78.8001 145.295C78.7177 144.785 78.7482 144.263 78.8895 143.766C79.0307 143.268 79.2793 142.808 79.6177 142.417C79.956 142.027 80.3759 141.715 80.8478 141.504L79.7646 128.986L85.5049 132.097L85.6535 143.507C85.9553 144.324 85.9471 145.222 85.6307 146.033C85.3142 146.844 84.7113 147.51 83.9363 147.906C83.1613 148.302 82.2681 148.4 81.4257 148.181C80.5834 147.962 79.8506 147.442 79.3662 146.719H79.3662Z" fill="#FFB8B8"/>
<path d="M81.4167 139.849C81.2547 139.848 81.0934 139.828 80.9365 139.788C80.599 139.702 80.2911 139.526 80.0452 139.279C79.7994 139.033 79.6248 138.724 79.54 138.386L76.719 127.176C75.7331 123.26 76.2031 119.12 78.0415 115.526L83.9515 103.964C84.3251 102.58 85.2278 101.398 86.4649 100.673C87.702 99.9486 89.1743 99.7391 90.5645 100.09C91.2574 100.265 91.9086 100.576 92.4805 101.004C93.0523 101.433 93.5334 101.971 93.8959 102.587C94.2658 103.211 94.5077 103.903 94.6075 104.623C94.7074 105.342 94.6632 106.073 94.4774 106.775L86.0645 125.588L86.1644 136.852C86.167 137.249 86.0475 137.638 85.8221 137.965C85.5967 138.292 85.2762 138.543 84.9041 138.682L82.0887 139.727C81.8737 139.808 81.6461 139.849 81.4167 139.849Z" fill="#FFC727"/>
<path d="M121.688 142.117C121.175 142.058 120.68 141.887 120.24 141.617C119.799 141.346 119.423 140.983 119.139 140.551C118.854 140.12 118.667 139.631 118.592 139.12C118.516 138.609 118.554 138.087 118.702 137.592L108.508 130.247L114.61 127.926L123.355 135.256C124.171 135.56 124.847 136.152 125.255 136.921C125.663 137.69 125.774 138.581 125.569 139.427C125.363 140.273 124.855 141.014 124.14 141.509C123.424 142.005 122.552 142.221 121.688 142.117H121.688Z" fill="#FFB8B8"/>
<path d="M116.351 136.753C116.051 136.753 115.754 136.683 115.485 136.549L105.149 131.374C101.538 129.567 98.7068 126.51 97.1811 122.772L92.2737 110.751C91.4683 109.564 91.1614 108.109 91.4191 106.699C91.6768 105.288 92.4784 104.036 93.6511 103.211C94.2371 102.799 94.8992 102.508 95.5988 102.354C96.2985 102.2 97.0217 102.188 97.7263 102.316C98.4392 102.445 99.1196 102.713 99.728 103.106C100.336 103.499 100.861 104.009 101.271 104.606L110.042 123.255L118.644 130.527C118.947 130.784 119.163 131.128 119.264 131.513C119.365 131.897 119.346 132.303 119.209 132.676L118.165 135.492C118.028 135.861 117.782 136.18 117.459 136.405C117.134 136.632 116.748 136.753 116.351 136.753Z" fill="#FFC727"/>
<path d="M95.8741 97.7283C96.333 97.9291 97.2726 94.273 96.8517 93.5417C96.2257 92.4542 96.2627 92.4621 95.8472 91.7426C95.4317 91.0231 95.3387 90.0383 95.8768 89.4052C96.4149 88.7722 97.6601 88.8562 97.9057 89.6499C97.7477 88.1423 99.239 86.9304 100.716 86.5898C102.193 86.2493 103.751 86.4607 105.237 86.1577C106.96 85.806 108.754 84.3611 108.066 82.4656C107.948 82.15 107.771 81.8596 107.545 81.6098C106.751 80.7163 105.639 80.3349 104.552 79.966C102.292 79.1986 99.9688 78.4216 97.5828 78.5064C95.6169 78.6091 93.7235 79.2828 92.1345 80.4449C90.5454 81.607 89.3296 83.2071 88.6358 85.0494C88.4714 85.5103 88.344 85.9836 88.2549 86.4648C87.4359 90.8683 89.9931 95.2119 94.1464 96.8888L95.8741 97.7283Z" fill="#2F2E41"/>
<path opacity="0.2" d="M85.6777 137.108L85.8736 125.53L92.0066 113.199L87.0841 125.857L85.6777 137.108Z" fill="black"/>
<path d="M141.293 166.165L115.402 155.407C114.834 155.174 114.327 154.813 113.92 154.354C113.513 153.895 113.215 153.349 113.051 152.758C112.882 152.16 112.851 151.531 112.962 150.919C113.072 150.307 113.321 149.729 113.689 149.228C120.228 140.224 124.556 129.808 126.322 118.821C126.418 118.207 126.652 117.623 127.008 117.113C127.363 116.603 127.83 116.181 128.373 115.878C128.909 115.578 129.505 115.403 130.118 115.368C130.731 115.333 131.344 115.438 131.91 115.675L157.801 126.432C158.694 126.806 159.425 127.485 159.864 128.348C160.304 129.211 160.422 130.201 160.199 131.143C157.305 142.918 152.626 154.181 146.323 164.54C145.813 165.363 145.027 165.978 144.106 166.275C143.185 166.573 142.188 166.534 141.293 166.165Z" fill="#E6E6E6"/>
<path d="M131.1 117.624C130.828 117.51 130.534 117.459 130.239 117.476C129.945 117.493 129.659 117.576 129.402 117.721C129.137 117.868 128.91 118.074 128.737 118.322C128.565 118.571 128.451 118.855 128.405 119.154C126.585 130.469 122.128 141.197 115.394 150.469C115.215 150.713 115.093 150.994 115.039 151.292C114.985 151.59 114.999 151.896 115.081 152.187L115.081 152.187C115.16 152.471 115.303 152.734 115.499 152.954C115.695 153.174 115.938 153.347 116.211 153.459L142.102 164.217C142.531 164.395 143.01 164.416 143.453 164.274C143.896 164.133 144.274 163.839 144.52 163.445C150.711 153.269 155.307 142.206 158.15 130.639C158.256 130.187 158.197 129.711 157.985 129.298C157.773 128.884 157.421 128.559 156.991 128.381L131.1 117.624Z" fill="white"/>
<path d="M144.886 141.569L131.299 135.924C130.783 135.709 130.373 135.297 130.16 134.78C129.946 134.263 129.947 133.683 130.161 133.166L130.477 132.405C130.692 131.889 131.103 131.479 131.62 131.265C132.137 131.052 132.718 131.052 133.235 131.266L146.821 136.911C147.338 137.126 147.747 137.538 147.961 138.055C148.174 138.572 148.174 139.152 147.96 139.669L147.644 140.43C147.428 140.946 147.017 141.356 146.5 141.57C145.983 141.783 145.403 141.783 144.886 141.569Z" fill="#FFC727"/>
<path d="M140.89 151.19L127.303 145.545C126.787 145.33 126.377 144.918 126.164 144.401C125.95 143.885 125.951 143.304 126.165 142.787L126.481 142.026C126.696 141.51 127.107 141.1 127.624 140.886C128.141 140.673 128.722 140.673 129.238 140.887L142.825 146.532C143.341 146.748 143.751 147.159 143.965 147.676C144.178 148.193 144.178 148.773 143.964 149.29L143.648 150.051C143.432 150.567 143.021 150.977 142.504 151.191C141.987 151.404 141.407 151.404 140.89 151.19Z" fill="#FFC727"/>
<path d="M150.33 128.05C150.127 128.05 149.925 128.011 149.737 127.934L136.046 122.399C135.658 122.241 135.347 121.936 135.183 121.55C135.02 121.163 135.016 120.728 135.172 120.339L136.227 117.731C136.384 117.342 136.689 117.032 137.076 116.868C137.462 116.704 137.898 116.7 138.287 116.858L151.977 122.393C152.366 122.55 152.676 122.856 152.84 123.242C153.004 123.628 153.008 124.063 152.851 124.453L151.797 127.06C151.678 127.352 151.476 127.603 151.214 127.779C150.953 127.955 150.645 128.05 150.33 128.05Z" fill="#CCCCCC"/>
<path d="M121.576 211H72.3516C72.2584 211 72.1689 210.963 72.103 210.897C72.037 210.831 72 210.742 72 210.648C72 210.555 72.037 210.466 72.103 210.4C72.1689 210.334 72.2584 210.297 72.3516 210.297H121.576C121.669 210.297 121.759 210.334 121.825 210.4C121.891 210.466 121.928 210.555 121.928 210.648C121.928 210.742 121.891 210.831 121.825 210.897C121.759 210.963 121.669 211 121.576 211Z" fill="#CCCCCC"/>
</g>
<defs>
<clipPath id="clip0_5998_21037">
<rect width="170.821" height="170" fill="white" transform="translate(72 41)"/>
</clipPath>
</defs>
</svg>
