<svg width="15" height="11" viewBox="0 0 15 11" fill="none" xmlns="http://www.w3.org/2000/svg">
<path d="M13.6765 0H1.32353C0.61771 0 0 0.617698 0 1.32353V9.26471C0 9.97053 0.617698 10.5882 1.32353 10.5882H13.6765C14.3823 10.5882 15 9.97054 15 9.26471V1.32353C15 0.61771 14.3823 0 13.6765 0ZM1.32353 0.882353H13.6765C13.9411 0.882353 14.1176 1.05887 14.1176 1.32353V2.02935H0.882353V1.32353C0.882353 1.05887 1.05887 0.882353 1.32353 0.882353ZM14.1176 2.9117V3.61752H0.882353V2.9117H14.1176ZM13.6765 9.70582H1.32353C1.05887 9.70582 0.882353 9.5293 0.882353 9.26464V4.49981H14.1176V9.26464C14.1176 9.5293 13.9411 9.70582 13.6765 9.70582Z" fill="#FFC727"/>
<path d="M2.29469 6.5386H4.58868C4.85359 6.5386 5.03011 6.36208 5.03011 6.09743C5.03011 5.83253 4.85359 5.65625 4.58893 5.65625H2.29494C2.03004 5.65625 1.85352 5.83253 1.85352 6.09743C1.85352 6.36208 2.03004 6.5386 2.29469 6.5386Z" fill="#FFC727"/>
<path d="M7.67717 7.5H2.29469C2.03004 7.5 1.85352 7.67652 1.85352 7.94118C1.85352 8.20583 2.03004 8.38235 2.29469 8.38235H7.67717C7.85369 8.38235 8.11835 8.20583 8.11835 7.94118C8.11835 7.67652 7.94182 7.5 7.67717 7.5Z" fill="#FFC727"/>
</svg>
