<svg width="23" height="23" viewBox="0 0 23 23" fill="none" xmlns="http://www.w3.org/2000/svg">
<path d="M22.3233 7.86964C21.9014 7.56192 21.3563 7.47855 20.8614 7.64595L16.0581 9.22319V1.63104C16.0565 1.19882 15.8842 0.784903 15.5786 0.479496C15.273 0.173905 14.8591 0.00162895 14.4271 0H8.57332C8.14128 0.00163154 7.72736 0.173926 7.42178 0.479496C7.11619 0.784923 6.94391 1.19886 6.94229 1.63104V4.50634H1.51246C1.11256 4.50569 0.728641 4.66378 0.445079 4.94586C0.161512 5.22812 0.00146188 5.61106 0 6.01111V20.5597C0.000489478 20.9918 0.172456 21.4058 0.477867 21.7112C0.783278 22.0167 1.1974 22.1887 1.62941 22.1891H21.3706C21.8026 22.1886 22.2167 22.0167 22.5221 21.7112C22.8275 21.4058 22.9995 20.9917 23 20.5597V9.19216C22.9989 8.6686 22.7474 8.17699 22.3232 7.86978L22.3233 7.86964ZM8.11137 1.63244H8.11153C8.11202 1.37775 8.31841 1.17136 8.57311 1.17086H14.4269C14.6816 1.17135 14.888 1.37774 14.8885 1.63244V21.0194H8.11162L8.11137 1.63244ZM1.16954 20.5596V6.01097C1.17052 5.92107 1.20723 5.83525 1.27152 5.77227C1.33596 5.70946 1.4226 5.6747 1.5125 5.67568H6.94232V21.0195H1.62945C1.37558 21.0192 1.16983 20.8135 1.1695 20.5596L1.16954 20.5596ZM21.8309 20.5596H21.8307C21.8304 20.8134 21.6246 21.0192 21.3708 21.0195H16.0579V10.4514L21.2288 8.75553C21.3686 8.70903 21.5221 8.73286 21.6414 8.81916C21.7608 8.90564 21.8311 9.04416 21.8306 9.19132L21.8309 20.5596Z" fill="#C1C1C1"/>
<path d="M12.4141 3.33789H10.5896C10.2667 3.33789 10.0049 3.59959 10.0049 3.92264C10.0049 4.24553 10.2667 4.50739 10.5896 4.50739H12.4141C12.7369 4.50739 12.9988 4.24553 12.9988 3.92264C12.9988 3.59959 12.7369 3.33789 12.4141 3.33789Z" fill="#C1C1C1"/>
<path d="M12.4141 8.16016H10.5896C10.2667 8.16016 10.0049 8.42186 10.0049 8.74491C10.0049 9.06779 10.2667 9.32966 10.5896 9.32966H12.4141C12.7369 9.32966 12.9988 9.06779 12.9988 8.74491C12.9988 8.42186 12.7369 8.16016 12.4141 8.16016Z" fill="#C1C1C1"/>
<path d="M12.4141 12.9922H10.5896C10.2667 12.9922 10.0049 13.2539 10.0049 13.5769C10.0049 13.8998 10.2667 14.1617 10.5896 14.1617H12.4141C12.7369 14.1617 12.9988 13.8998 12.9988 13.5769C12.9988 13.2539 12.7369 12.9922 12.4141 12.9922Z" fill="#C1C1C1"/>
<path d="M12.4141 17.8164H10.5896C10.2667 17.8164 10.0049 18.0781 10.0049 18.4012C10.0049 18.724 10.2667 18.9859 10.5896 18.9859H12.4141C12.7369 18.9859 12.9988 18.724 12.9988 18.4012C12.9988 18.0781 12.7369 17.8164 12.4141 17.8164Z" fill="#C1C1C1"/>
<path d="M3.14334 9.24567H4.96856C5.29145 9.24567 5.55331 8.98381 5.55331 8.66092C5.55331 8.33787 5.29145 8.07617 4.96856 8.07617H3.14334C2.82046 8.07617 2.55859 8.33787 2.55859 8.66092C2.55859 8.98381 2.82046 9.24567 3.14334 9.24567Z" fill="#C1C1C1"/>
<path d="M4.96637 12.7559H3.14116C2.83002 12.772 2.58594 13.029 2.58594 13.3406C2.58594 13.6522 2.83002 13.9092 3.14116 13.9254H4.96637C5.27767 13.9092 5.52176 13.6522 5.52176 13.3406C5.52176 13.029 5.27768 12.772 4.96637 12.7559Z" fill="#C1C1C1"/>
<path d="M4.96856 17.4336H3.14334C2.82046 17.4336 2.55859 17.6955 2.55859 18.0183C2.55859 18.3414 2.82046 18.6031 3.14334 18.6031H4.96856C5.29145 18.6031 5.55331 18.3414 5.55331 18.0183C5.55331 17.6955 5.29145 17.4336 4.96856 17.4336Z" fill="#C1C1C1"/>
<path d="M19.8553 12.9688H18.0301C17.7072 12.9688 17.4453 13.2306 17.4453 13.5535C17.4453 13.8766 17.7072 14.1383 18.0301 14.1383H19.8553C20.1782 14.1383 20.44 13.8766 20.44 13.5535C20.44 13.2306 20.1782 12.9688 19.8553 12.9688Z" fill="#C1C1C1"/>
<path d="M19.8553 17.8027H18.0301C17.7072 17.8027 17.4453 18.0644 17.4453 18.3875C17.4453 18.7104 17.7072 18.9722 18.0301 18.9722H19.8553C20.1782 18.9722 20.44 18.7104 20.44 18.3875C20.44 18.0644 20.1782 17.8027 19.8553 17.8027Z" fill="#C1C1C1"/>
</svg>
