<svg width="13" height="15" viewBox="0 0 13 15" fill="none" xmlns="http://www.w3.org/2000/svg">
<path d="M7.85273 10.8228L6.68832 9.22461L6.871 10.6402C6.89377 10.7087 6.89377 10.7771 6.84822 10.8229L5.7066 13.8368C5.54669 14.225 5.68382 14.6816 6.04902 14.8872C6.11751 14.9329 6.20893 14.9557 6.27741 14.9785C6.64277 15.0697 7.03088 14.8643 7.19063 14.4989L8.03539 12.5125L7.89842 10.96C7.89842 10.8913 7.87548 10.8456 7.85271 10.8229L7.85273 10.8228Z" fill="#8677FE"/>
<path d="M11.7111 5.80033L10.2271 5.59487C10.2271 5.59487 9.2909 4.2478 9.1767 4.08789C9.06251 3.95092 8.87983 3.63128 8.6516 3.47137C8.35473 3.26592 7.98954 3.19743 7.64693 3.26592C7.46425 3.31163 7.2588 3.42582 7.14462 3.49431C7.03042 3.58557 5.31798 4.81859 5.31798 4.81859L4.95262 5.11546C4.79272 5.22965 4.70146 5.41233 4.67868 5.59502L4.51878 7.42166V7.60434C4.54155 7.71853 4.61004 7.83273 4.70146 7.92398L4.06215 9.27106L2.73787 8.63175C2.39545 8.47184 2.00715 8.60897 1.8474 8.95139L0.0664729 12.6273C-0.0934316 12.9697 0.0436979 13.358 0.386119 13.5177L1.84739 14.2255C1.84739 14.6364 2.18982 14.979 2.60087 14.979C3.01177 14.979 3.35434 14.6365 3.35434 14.2255C3.35434 14.1798 3.33156 14.1342 3.33156 14.0656L5.04399 10.4582C5.2039 10.1158 5.06677 9.72746 4.72435 9.56771L4.51889 9.47645L5.1582 8.12938H5.20391C5.56927 8.12938 5.84322 7.83251 5.88893 7.46732L6.0259 5.98329L6.57392 5.59516L6.36846 7.60445C6.34568 7.80991 6.41417 8.01536 6.52836 8.17527L8.2408 10.527C8.30928 10.6412 8.37777 10.7554 8.37777 10.8924L8.69709 14.1113C8.7428 14.5222 8.99397 14.9105 9.40486 14.979C9.49612 15.0017 9.56476 14.979 9.65602 14.979C10.0442 14.9333 10.3867 14.5908 10.341 14.2027L10.1584 10.3668C10.1584 10.2526 10.1356 10.1613 10.0671 10.0699C10.0671 10.0699 9.01672 8.08352 8.94827 7.96931C8.90256 7.87805 8.90256 7.76386 8.92549 7.67244C8.92549 7.58118 9.03969 6.25687 9.03969 6.25687L9.31363 6.645C9.42782 6.80491 9.58757 6.89617 9.77024 6.94187L11.5739 7.19304H11.7566C12.0762 7.14733 12.3274 6.87339 12.3274 6.53098C12.3731 6.14285 12.0762 5.84597 11.7111 5.80026L11.7111 5.80033ZM2.14431 11.3258L1.41359 12.8783C1.34511 12.9925 1.20814 13.061 1.09394 12.9925C0.97975 12.924 0.911265 12.787 0.97975 12.6728L1.71047 11.1203C1.77895 11.0061 1.91593 10.9376 2.03012 11.0061C2.14431 11.0748 2.19002 11.2117 2.14431 11.3258ZM2.57817 14.4996C2.41826 14.4996 2.2813 14.3627 2.2813 14.2028C2.2813 14.0429 2.41827 13.9059 2.57817 13.9059C2.73807 13.9059 2.87504 14.0429 2.87504 14.2028C2.87488 14.3855 2.73791 14.4996 2.57817 14.4996Z" fill="#8677FE"/>
<path d="M9.45603 1.22703C9.57293 2.01284 9.03061 2.74454 8.24497 2.86143C7.45917 2.97833 6.72747 2.43601 6.61058 1.65021C6.49368 0.864407 7.03599 0.132709 7.82163 0.0158147C8.60744 -0.100928 9.33914 0.441232 9.45603 1.22703Z" fill="#8677FE"/>
</svg>
