<svg width="25" height="16" viewBox="0 0 25 16" fill="none" xmlns="http://www.w3.org/2000/svg">
<path d="M2.08333 9.59357C2.37269 9.59357 2.57523 9.47936 2.69097 9.25095C2.80671 9.02253 2.80671 8.79411 2.69097 8.56569C2.57523 8.33727 2.37269 8.22306 2.08333 8.22306C1.79398 8.22306 1.59144 8.33727 1.47569 8.56569C1.35995 8.79411 1.35995 9.02253 1.47569 9.25095C1.59144 9.47936 1.79398 9.59357 2.08333 9.59357ZM18.0664 8.97256C17.9941 8.87977 17.8548 8.70131 17.6487 8.43721C17.4425 8.1731 17.2924 7.98037 17.1984 7.85902C17.1043 7.73767 16.9669 7.56279 16.786 7.33437C16.6052 7.10595 16.4515 6.91679 16.3249 6.7669C16.1983 6.617 16.0518 6.44925 15.8854 6.26366C15.719 6.07807 15.5563 5.90319 15.3971 5.73901L14.0408 7.23801C13.4404 7.90899 12.6863 8.23734 11.7784 8.22306C10.8706 8.20879 10.1273 7.85902 9.54861 7.17377C9.13628 6.68124 8.93193 6.11733 8.93555 5.48204C8.93916 4.84675 9.15075 4.28641 9.57031 3.80103L11.4909 1.59536C11.3317 1.51684 11.1473 1.45795 10.9375 1.41869C10.7277 1.37943 10.5559 1.35802 10.4221 1.35445C10.2883 1.35088 10.0839 1.35267 9.80903 1.3598C9.53414 1.36694 9.35692 1.37051 9.27734 1.37051C8.61183 1.37051 8.04036 1.60607 7.56293 2.07718L5.84852 3.7689H4.16667V9.59357C4.20284 9.59357 4.27879 9.59179 4.39453 9.58822C4.51027 9.58465 4.58984 9.58465 4.63325 9.58822C4.67665 9.59179 4.74718 9.59893 4.84483 9.60963C4.94249 9.62034 5.01664 9.6364 5.06727 9.65782C5.11791 9.67923 5.18121 9.70957 5.25716 9.74883C5.33312 9.78809 5.40003 9.83627 5.4579 9.89337L8.68056 13.0198C9.51244 13.8122 10.3335 14.2083 11.1437 14.2083C11.7079 14.2083 12.16 14.0406 12.5 13.7051C12.9123 13.8479 13.3192 13.8193 13.7207 13.6194C14.1222 13.4196 14.3844 13.1162 14.5074 12.7093C15.0427 12.7522 15.502 12.5951 15.8854 12.2382C16.0301 12.1097 16.1603 11.9474 16.276 11.7511C16.3918 11.5548 16.4424 11.3745 16.4279 11.2103C16.5003 11.2817 16.6558 11.3174 16.8945 11.3174C17.2056 11.3174 17.4841 11.2425 17.73 11.0926C17.976 10.9427 18.155 10.7535 18.2671 10.5251C18.3793 10.2967 18.4227 10.0415 18.3974 9.75953C18.372 9.47758 18.2617 9.21525 18.0664 8.97256ZM19.7917 9.59357H20.8333V4.11153H19.8242L18.1207 2.18425C17.6432 1.64176 17.032 1.37051 16.2869 1.37051H14.4748C13.831 1.37051 13.303 1.60964 12.8906 2.08789L10.6228 4.68972C10.4203 4.92527 10.319 5.19295 10.319 5.49275C10.319 5.79255 10.4167 6.06023 10.612 6.29578C10.923 6.65982 11.3209 6.84541 11.8056 6.85255C12.2902 6.85969 12.6917 6.68481 13.01 6.3279L15.1042 3.99375C15.285 3.82958 15.4785 3.75284 15.6847 3.76355C15.8908 3.77426 16.0608 3.87062 16.1947 4.05264C16.3285 4.23466 16.3592 4.43631 16.2869 4.65759C16.4026 4.79322 16.6052 5.01807 16.8945 5.33214C17.1839 5.64622 17.4009 5.88891 17.5456 6.06023C17.7554 6.3172 18.0537 6.69373 18.4408 7.18983C18.8278 7.68592 19.0611 7.98751 19.1406 8.09458C19.5168 8.56569 19.7338 9.06536 19.7917 9.59357ZM22.9167 9.59357C23.206 9.59357 23.4086 9.47936 23.5243 9.25095C23.64 9.02253 23.64 8.79411 23.5243 8.56569C23.4086 8.33727 23.206 8.22306 22.9167 8.22306C22.6273 8.22306 22.4248 8.33727 22.309 8.56569C22.1933 8.79411 22.1933 9.02253 22.309 9.25095C22.4248 9.47936 22.6273 9.59357 22.9167 9.59357ZM25 3.42628V10.2788C25 10.4644 24.9313 10.625 24.7938 10.7606C24.6564 10.8963 24.4936 10.9641 24.3056 10.9641H19.5964C19.401 11.4281 19.1045 11.8082 18.7066 12.1044C18.3087 12.4006 17.8566 12.5844 17.3503 12.6558C17.1115 12.9984 16.8204 13.2893 16.4768 13.5284C16.1332 13.7676 15.7624 13.93 15.3646 14.0156C15.0608 14.3939 14.6828 14.6848 14.2307 14.8882C13.7786 15.0917 13.3138 15.1791 12.8364 15.1506C12.4023 15.3933 11.9466 15.5342 11.4692 15.5735C10.9918 15.6128 10.5306 15.5628 10.0857 15.4236C9.64084 15.2844 9.21766 15.0935 8.81619 14.8508C8.41471 14.6081 8.04036 14.319 7.69314 13.9835L4.57899 10.9641H0.694444C0.506366 10.9641 0.343605 10.8963 0.206163 10.7606C0.0687211 10.625 0 10.4644 0 10.2788V3.08365C0 2.89806 0.0687211 2.73745 0.206163 2.60183C0.343605 2.46621 0.506366 2.39839 0.694444 2.39839H5.26259C5.36386 2.29846 5.53385 2.12715 5.77257 1.88445C6.01128 1.64176 6.18309 1.47044 6.28798 1.37051C6.39287 1.27058 6.55201 1.12782 6.76541 0.942226C6.9788 0.756636 7.16146 0.622797 7.31337 0.540709C7.46528 0.458621 7.64974 0.367611 7.86675 0.267678C8.08377 0.167745 8.30801 0.0981485 8.5395 0.0588891C8.77098 0.0196297 9.01693 0 9.27734 0H10.5469C11.263 0 11.9177 0.199866 12.5108 0.599598C13.104 0.199866 13.7587 0 14.4748 0H16.2869C16.5401 0 16.7824 0.0214142 17.0139 0.0642427C17.2454 0.107071 17.4497 0.158822 17.627 0.219496C17.8042 0.280169 17.9904 0.374749 18.1858 0.503234C18.3811 0.63172 18.542 0.74236 18.6686 0.835155C18.7952 0.92795 18.9507 1.06893 19.1352 1.25809C19.3197 1.44724 19.4607 1.59714 19.5584 1.70778C19.656 1.81842 19.8043 1.98974 20.0033 2.22173C20.2022 2.45371 20.3523 2.62681 20.4536 2.74102H24.3056C24.4936 2.74102 24.6564 2.80883 24.7938 2.94446C24.9313 3.08008 25 3.24069 25 3.42628Z" fill="#282828"/>
</svg>
