<svg width="21" height="21" viewBox="0 0 21 21" fill="none" xmlns="http://www.w3.org/2000/svg">
<path d="M18.1213 6.9825L14.0263 2.8875C13.86 2.72125 13.6325 2.625 13.405 2.625H7.595C7.3675 2.625 7.14 2.72125 6.9825 2.87875L2.87875 6.9825C2.72125 7.14 2.625 7.3675 2.625 7.595V13.3963C2.625 13.6325 2.72125 13.8513 2.87875 14.0175L6.97375 18.1125C7.14 18.2788 7.3675 18.375 7.595 18.375H13.3963C13.6325 18.375 13.8513 18.2787 14.0175 18.1212L18.1125 14.0263C18.194 13.9448 18.2584 13.8479 18.302 13.7412C18.3456 13.6345 18.3674 13.5202 18.3663 13.405V7.595C18.375 7.3675 18.2788 7.14 18.1213 6.9825ZM16.625 13.0375L13.0375 16.625H7.9625L4.375 13.0375V7.9625L7.9625 4.375H13.0375L16.625 7.9625V13.0375Z" fill="#989898"/>
<path d="M10.5 14.875C10.9832 14.875 11.375 14.4832 11.375 14C11.375 13.5168 10.9832 13.125 10.5 13.125C10.0168 13.125 9.625 13.5168 9.625 14C9.625 14.4832 10.0168 14.875 10.5 14.875Z" fill="#989898"/>
<path d="M10.5 6.125C10.0187 6.125 9.625 6.51875 9.625 7V11.375C9.625 11.8562 10.0187 12.25 10.5 12.25C10.9813 12.25 11.375 11.8562 11.375 11.375V7C11.375 6.51875 10.9813 6.125 10.5 6.125Z" fill="#989898"/>
</svg>
