<svg width="67" height="99" viewBox="0 0 67 99" fill="none" xmlns="http://www.w3.org/2000/svg">
<path opacity="0.0526316" d="M-33.2757 80.4235C-31.3494 83.4434 -24.8585 88.7483 -14.3049 85.8082C-1.11284 82.133 4.8012 70.1562 16.7481 64.6291C25.5658 60.5497 48.8279 55.1976 61.2865 64.0474" stroke="#3C3C3C" stroke-width="0.5"/>
<path opacity="0.105263" d="M-34.9329 74.2736C-33.3329 77.4784 -27.432 83.4327 -16.6289 81.6118C-3.12494 79.3357 4.00862 68.0427 16.4678 63.7947C25.6637 60.6594 49.3578 57.7681 60.8231 67.8717" stroke="#3C3C3C" stroke-width="0.5"/>
<path opacity="0.157895" d="M-36.0643 68.0866C-34.808 71.4411 -29.5619 77.9795 -18.6276 77.2979C-4.95975 76.4458 3.31518 65.9603 16.1502 63.0379C25.6234 60.881 49.4899 60.4823 59.8363 71.7289" stroke="#3C3C3C" stroke-width="0.5"/>
<path opacity="0.210526" d="M-36.7744 61.6964C-35.8695 65.1214 -31.3165 72.0894 -20.344 72.5612C-6.62843 73.151 2.70857 63.7184 15.8083 62.1884C25.4769 61.0591 49.314 63.1585 58.4641 75.282" stroke="#3C3C3C" stroke-width="0.5"/>
<path opacity="0.263158" d="M-36.7591 55.8068C-36.2277 59.3491 -32.4556 66.8354 -21.6185 68.442C-8.07218 70.4503 2.20198 61.9143 15.3641 61.7244C25.0787 61.5842 48.5066 66.1563 56.2886 79.3084" stroke="#3C3C3C" stroke-width="0.5"/>
<path opacity="0.315789" d="M-36.3348 49.8235C-36.1766 53.402 -33.2077 61.2416 -22.598 63.9722C-9.33573 67.3854 1.77439 59.9702 14.8843 61.1571C24.5603 62.0331 47.3819 69.0291 53.7465 82.9225" stroke="#3C3C3C" stroke-width="0.5"/>
<path opacity="0.368421" d="M-35.4152 44.0166C-35.6319 47.592 -33.4988 55.699 -23.2325 59.5236C-10.3997 64.3044 1.42463 58.0912 14.3386 60.6419C23.8701 62.5245 45.8354 71.8677 50.7129 86.3503" stroke="#3C3C3C" stroke-width="0.5"/>
<path opacity="0.421053" d="M-34.0205 38.4349C-34.6097 41.9681 -33.3357 50.2537 -23.5255 55.1305C-11.2627 61.2265 1.14633 56.2832 13.7229 60.1699C23.0054 63.0385 43.8738 74.6265 47.2107 89.5396" stroke="#3C3C3C" stroke-width="0.5"/>
<path opacity="0.473684" d="M-32.1803 33.1285C-33.1356 36.5807 -32.7346 44.9541 -23.4879 50.8296C-11.9296 58.174 0.928225 54.555 13.0297 59.7349C21.9614 63.5582 41.5042 77.264 43.264 92.4442" stroke="#3C3C3C" stroke-width="0.5"/>
<path opacity="0.526316" d="M-29.9217 28.1443C-31.2326 31.4777 -31.7091 39.8471 -23.1272 46.657C-12.3998 55.1694 0.765794 52.9141 12.2595 59.3307C20.7427 64.0666 38.7458 79.7401 38.9092 95.0211" stroke="#3C3C3C" stroke-width="0.5"/>
<path opacity="0.578947" d="M-27.2828 23.5184C-28.935 26.6965 -30.2837 34.9703 -22.4607 42.6399C-12.6818 52.2269 0.647411 51.3602 11.4074 58.9431C19.3491 64.5397 35.6153 82.0092 34.1804 97.2236" stroke="#3C3C3C" stroke-width="0.5"/>
<path opacity="0.631579" d="M-24.303 19.294C-26.2784 22.282 -28.4845 30.3694 -21.506 38.8148C-12.7829 49.3715 0.563951 49.9028 10.4724 58.5688C17.7856 64.965 32.1366 84.0391 29.1193 99.0201" stroke="#3C3C3C" stroke-width="0.5"/>
<path opacity="0.684211" d="M-21.0247 15.5017C-23.3015 18.2669 -26.341 26.0794 -20.2835 35.2079C-12.7116 46.6186 0.506567 48.5422 9.4549 58.1964C16.0594 65.3219 28.338 85.7916 23.7713 100.375" stroke="#3C3C3C" stroke-width="0.5"/>
<path opacity="0.736842" d="M-17.4971 12.1733C-20.0505 14.6854 -23.8899 22.1374 -18.8198 31.8491C-12.4822 43.9887 0.462515 47.2834 8.35269 57.8201C14.1762 65.597 24.2479 87.238 18.1818 101.264" stroke="#3C3C3C" stroke-width="0.5"/>
<path opacity="0.789474" d="M-13.7686 9.33039C-16.5706 11.5618 -21.168 18.5716 -17.1408 28.7601C-12.1068 41.4957 0.422627 46.1254 7.16819 57.4292C12.1469 65.7722 19.9013 88.3474 12.4023 101.663" stroke="#3C3C3C" stroke-width="0.5"/>
<path opacity="0.842105" d="M-9.89225 6.98995C-12.9122 8.9162 -18.2171 15.4071 -15.2769 25.9608C-11.6017 39.1528 0.375084 45.0668 5.90213 57.0137C9.9815 65.8315 15.3336 89.0936 6.48386 101.552" stroke="#3C3C3C" stroke-width="0.5"/>
<path opacity="0.894737" d="M-5.91815 5.16671C-9.12291 6.76675 -15.0772 12.6676 -13.2563 23.4707C-10.9802 36.9747 0.312818 44.1082 4.56079 56.5674C7.69612 65.7633 10.5874 89.4574 0.483808 100.923" stroke="#3C3C3C" stroke-width="0.5"/>
<path opacity="0.947368" d="M-1.90497 3.86731C-5.25942 5.1236 -11.7979 10.3697 -11.1162 21.304C-10.2641 34.9719 0.221364 43.2468 3.14373 56.0818C5.30065 65.555 5.69937 89.4215 -5.54731 99.7679" stroke="#3C3C3C" stroke-width="0.5"/>
<path d="M2.4208 3.11619C-1.00422 4.02112 -7.9722 8.57409 -8.44402 19.5466C-9.0338 33.2622 0.398784 42.5992 1.92883 55.6989C3.05812 65.3675 0.958736 89.2046 -11.1648 98.3548" stroke="#3C3C3C" stroke-width="0.5"/>
</svg>
