<svg width="85" height="106" viewBox="0 0 85 106" fill="none" xmlns="http://www.w3.org/2000/svg">
<path opacity="0.0526316" d="M57.4136 86.3512C61.3731 87.9327 71.3321 88.5528 79.4922 78.3809C89.6923 65.666 87.0912 49.9808 94.8015 36.3405C100.492 26.273 119.262 4.94319 137.452 4.84544" stroke="#3C3C3C" stroke-width="0.5"/>
<path opacity="0.105263" d="M51.5425 81.5586C55.315 83.5453 65.1546 85.203 74.3332 75.9398C85.8065 64.3608 84.8592 48.4896 93.9531 35.73C100.665 26.3125 121.562 7.06153 139.662 8.86568" stroke="#3C3C3C" stroke-width="0.5"/>
<path opacity="0.157895" d="M46.1507 76.3621C49.6949 78.7323 59.3074 81.4094 69.404 73.1564C82.0247 62.8401 82.7417 46.9568 93.1194 35.2177C100.779 26.5533 123.574 9.59215 141.386 13.2784" stroke="#3C3C3C" stroke-width="0.5"/>
<path opacity="0.210526" d="M41.0247 70.678C44.2783 73.3604 53.5189 76.9341 64.4536 69.7697C78.1219 60.8141 80.5968 45.211 92.1975 34.6339C100.76 26.8272 125.261 12.3014 142.526 17.6661" stroke="#3C3C3C" stroke-width="0.5"/>
<path opacity="0.263158" d="M36.9498 64.9721C39.9237 68.0274 48.7695 72.6446 60.3614 66.6711C74.8513 59.2043 78.8548 43.8171 91.4465 34.4922C100.74 27.6097 126.563 15.7584 143.22 23.0676" stroke="#3C3C3C" stroke-width="0.5"/>
<path opacity="0.315789" d="M33.2059 58.894C35.8441 62.2434 44.1589 67.7599 56.3116 63.0308C71.5026 57.1195 77.0926 42.2351 90.5901 34.2774C100.552 28.4041 127.472 19.317 143.274 28.3273" stroke="#3C3C3C" stroke-width="0.5"/>
<path opacity="0.368421" d="M30.0604 52.6424C32.3341 56.2492 40.0267 62.6046 52.6072 59.1718C68.3329 54.8807 75.4481 40.6622 89.7034 34.159C100.225 29.3591 127.948 23.1357 142.721 33.7484" stroke="#3C3C3C" stroke-width="0.5"/>
<path opacity="0.421053" d="M27.532 46.2796C29.4163 50.1044 36.4023 57.2291 49.2728 55.13C65.3608 52.5063 73.9233 39.1094 88.7803 34.1319C99.7459 30.4581 127.967 27.1666 141.55 39.2654" stroke="#3C3C3C" stroke-width="0.5"/>
<path opacity="0.473684" d="M25.6271 39.8706C27.1012 43.8714 33.3043 51.6873 46.3236 50.9451C62.5978 50.0173 72.5138 37.5889 87.8097 34.1916C99.0992 31.6842 127.51 31.3606 139.754 44.813" stroke="#3C3C3C" stroke-width="0.5"/>
<path opacity="0.526316" d="M24.3481 33.4828C25.3959 37.6157 30.748 46.0372 43.7736 46.6599C60.0556 47.4384 71.2164 36.1145 86.7836 34.3347C98.2734 33.0211 126.562 35.669 137.333 50.3275" stroke="#3C3C3C" stroke-width="0.5"/>
<path opacity="0.578947" d="M23.6876 27.1801C24.2977 31.3999 28.7402 40.3347 41.6294 42.3156C57.7408 44.7917 70.0241 34.6965 85.6921 34.5537C97.2562 34.4483 125.113 40.0387 134.293 55.7427" stroke="#3C3C3C" stroke-width="0.5"/>
<path opacity="0.631579" d="M23.6325 21.0272C23.7982 25.2877 27.2824 34.6379 39.8939 37.9552C55.6582 42.1019 68.9295 33.3459 84.5265 34.8416C96.0383 35.9456 123.159 44.4173 130.646 60.9948" stroke="#3C3C3C" stroke-width="0.5"/>
<path opacity="0.684211" d="M24.168 15.0855C23.8874 19.3399 26.3752 29.0031 38.5708 33.6206C53.8153 39.3923 67.9291 32.0715 83.2844 35.1894C94.6178 37.4906 120.704 48.7507 126.418 66.0201" stroke="#3C3C3C" stroke-width="0.5"/>
<path opacity="0.736842" d="M25.2659 9.41686C24.5421 13.6187 26.0062 23.489 37.6524 29.3559C52.2101 36.6895 67.0118 30.8841 81.9571 35.59C92.9878 39.0632 117.754 52.9884 121.631 70.7605" stroke="#3C3C3C" stroke-width="0.5"/>
<path opacity="0.789474" d="M26.8948 4.07803C25.7358 8.18115 26.1601 18.1504 37.1292 25.2026C50.8406 34.0177 66.1681 29.7913 80.5396 36.0336C91.1468 40.6409 114.322 57.0785 116.32 75.1585" stroke="#3C3C3C" stroke-width="0.5"/>
<path opacity="0.842105" d="M29.018 -0.875444C27.4364 3.08405 26.8164 13.0431 36.9882 21.2031C49.7031 31.4032 65.3883 28.8022 79.0286 36.5125C89.0962 42.2033 110.426 60.9733 110.524 79.1632" stroke="#3C3C3C" stroke-width="0.5"/>
<path opacity="0.894737" d="M31.5918 -5.39894C29.6051 -1.62644 27.9474 8.2132 37.2106 17.3918C48.7896 28.8651 64.6608 27.9178 77.4204 37.0117C86.8379 43.7237 106.089 64.6204 104.285 82.7209" stroke="#3C3C3C" stroke-width="0.5"/>
<path opacity="0.947368" d="M34.5696 -9.44301C32.1994 -5.89885 29.5222 3.71361 37.7753 13.8102C48.0915 26.431 63.9748 27.1479 75.714 37.5257C84.3783 45.1853 101.339 67.9799 97.6532 85.7926" stroke="#3C3C3C" stroke-width="0.5"/>
<path d="M38.2302 -13.1706C35.5478 -9.91706 31.9741 -0.676364 39.1385 10.2583C48.0942 23.9266 63.6972 26.4015 74.2743 38.0022C82.081 46.5644 96.6068 71.0654 91.2421 88.3308" stroke="#3C3C3C" stroke-width="0.5"/>
</svg>
