<svg width="207" height="159" viewBox="0 0 207 159" fill="none" xmlns="http://www.w3.org/2000/svg">
<path d="M206.071 111.356L175.542 66.1874C173.579 63.4031 169.654 61.7015 165.511 61.7015H41.6503C37.289 61.7015 33.3639 63.4031 31.6194 66.1874L1.09032 111.356C0.436129 112.439 0 113.677 0 114.759V151.111C0 155.442 5.01548 159 11.1213 159H195.822C201.928 159 206.943 155.442 206.943 151.111V114.759C207.161 113.677 206.725 112.439 206.071 111.356ZM132.147 106.097C128.004 106.097 124.079 107.953 122.77 110.737C120.154 116.461 112.521 120.637 103.363 120.637C94.2039 120.637 86.7897 116.461 83.9549 110.737C82.6465 107.953 78.7213 106.097 74.5781 106.097C59.5316 106.097 29.2206 106.097 29.2206 106.097L48.4103 77.6343H158.097L177.286 106.097C177.505 105.942 147.194 105.942 132.147 106.097Z" fill="#C1C1C1"/>
<path d="M69.0643 30.6764L45.693 4.5715L34.4255 9.66805L57.7968 35.7729L69.0643 30.6764Z" fill="#C1C1C1"/>
<path d="M189.262 9.65916L177.995 4.56357L154.628 30.6684L165.895 35.764L189.262 9.65916Z" fill="#C1C1C1"/>
<path d="M116.852 0H103.497V30.8507H116.852V0Z" fill="#C1C1C1"/>
</svg>
