<svg width="273" height="178" viewBox="0 0 273 178" fill="none" xmlns="http://www.w3.org/2000/svg">
<path d="M19.0679 66.8392H2.52872C1.85806 66.8392 1.21487 67.1056 0.740645 67.5799C0.266418 68.0541 0 68.6973 0 69.3679V75.1772C0.0172868 75.8424 0.289255 76.4756 0.759786 76.9461C1.23032 77.4166 1.86351 77.6886 2.52872 77.7059H15.0356L18.3161 81.5331C18.373 81.5844 18.4432 81.6188 18.5187 81.6322C18.5941 81.6457 18.6718 81.6377 18.743 81.6093C18.8141 81.5808 18.8759 81.533 18.9212 81.4712C18.9666 81.4094 18.9937 81.3362 18.9995 81.2597V77.7059H19.0679C19.7385 77.7059 20.3817 77.4395 20.856 76.9652C21.3302 76.491 21.5966 75.8478 21.5966 75.1772V69.3679C21.606 69.0333 21.5471 68.7003 21.4233 68.3892C21.2996 68.0781 21.1137 67.7956 20.877 67.5589C20.6402 67.3222 20.3577 67.1362 20.0466 67.0125C19.7356 66.8888 19.4025 66.8298 19.0679 66.8392Z" fill="#FFDD7C" fill-opacity="0.34"/>
<path d="M251.642 162.659C252.795 159.131 252.674 155.309 251.3 151.861C248.976 146.188 251.915 146.12 253.418 148.922C254.922 151.724 253.76 159.379 253.76 159.379C253.76 159.379 257.177 155.073 256.289 147.965C255.4 140.858 255.469 139.217 256.972 138.807C259.706 138.055 260.936 149.127 257.861 154.8C257.861 154.8 262.44 152.134 262.85 144.548C263.26 136.962 263.465 134.433 265.925 134.433C268.386 134.433 266.267 146.325 262.85 150.904C262.85 150.904 268.659 145.71 272.35 147.35C276.04 148.99 262.987 149.879 259.228 156.303C259.228 156.303 267.497 152.408 270.436 155.005C273.375 157.602 262.098 156.235 256.767 159.857C251.437 163.479 251.915 164.573 251.915 164.573L251.642 162.659Z" fill="#E3B01D"/>
<path d="M73.6744 164.436C72.5216 160.884 72.6424 157.041 74.0161 153.569C76.3398 147.897 73.401 147.828 71.8974 150.63C70.3939 153.432 71.5557 161.087 71.5557 161.087C71.5557 161.087 68.1385 156.781 69.027 149.742C69.9155 142.702 69.8471 140.926 68.3436 140.515C65.6098 139.832 64.3796 150.835 67.4551 156.508C67.4551 156.508 62.8761 153.842 62.5344 146.325C62.1926 138.807 61.8509 136.141 59.3905 136.141C56.9302 136.141 59.1172 148.102 62.466 152.612C62.466 152.612 56.6568 147.418 53.0346 149.127C49.4124 150.835 62.3293 151.587 66.0882 158.011C66.0882 158.011 57.8186 154.184 54.8799 156.781C51.9411 159.378 63.2861 157.943 68.5486 161.565C73.8111 165.188 73.4694 166.281 73.4694 166.281L73.6744 164.436Z" fill="#E3B01D"/>
<path d="M261.278 167.168V177.693H29.9344V167.168C29.9343 166.122 30.1416 165.085 30.5443 164.119C30.947 163.152 31.5371 162.275 32.2805 161.538C33.0239 160.801 33.906 160.219 34.8757 159.824C35.8455 159.43 36.8837 159.232 37.9306 159.241H253.35C255.452 159.241 257.469 160.076 258.956 161.563C260.443 163.049 261.278 165.066 261.278 167.168Z" fill="#FBCD4C"/>
<path d="M261.278 171.816H29.9344V177.68H261.278V171.816Z" fill="#FFDD7C"/>
<path d="M216.581 159.24H84.6093L93.3573 132.244L94.9976 127.392L96.5695 122.608H205.168L206.671 127.324L208.175 132.244L216.581 159.24Z" fill="#E3B01D"/>
<path d="M157.259 8.47498H142.838V20.3326H157.259V8.47498Z" fill="#CE9E4A"/>
<path d="M208.175 132.244C199.353 145.082 186.477 154.588 171.611 159.239H129.921C115.067 154.564 102.199 145.063 93.3575 132.244L94.9978 127.391C101.025 135.446 108.724 142.101 117.567 146.899C126.409 151.697 136.185 154.524 146.224 155.186C156.262 155.849 166.325 154.33 175.721 150.736C185.117 147.141 193.624 141.555 200.657 134.362C202.79 132.128 204.798 129.778 206.671 127.323L208.175 132.244Z" fill="#CE9E4A"/>
<path d="M163.957 0H136.004C135.325 0 134.774 0.550775 134.774 1.23019V9.40409C134.774 10.0835 135.325 10.6343 136.004 10.6343H163.957C164.636 10.6343 165.187 10.0835 165.187 9.40409V1.23019C165.187 0.550775 164.636 0 163.957 0Z" fill="#E7B142"/>
<path d="M220.548 86.1069C220.563 97.0835 217.987 107.909 213.028 117.701C208.069 127.494 200.868 135.977 192.01 142.46C183.153 148.943 172.889 153.243 162.056 155.009C151.222 156.776 140.125 155.959 129.666 152.626C119.208 149.292 109.685 143.536 101.872 135.826C94.0593 128.116 88.1774 118.67 84.7055 108.257C81.2336 97.8439 80.2697 86.7582 81.8924 75.9022C83.515 65.0462 87.6783 54.7268 94.0433 45.7841C102.584 33.7058 114.749 24.6608 128.776 19.9602C142.802 15.2595 157.961 15.1473 172.055 19.6398C186.15 24.1324 198.447 32.9962 207.166 44.9468C215.885 56.8974 220.572 71.3139 220.548 86.1069Z" fill="#FFC727"/>
<path d="M150.493 15.7886C133.121 15.7744 116.373 22.2592 103.541 33.968C117.663 23.7155 135.116 19.1327 152.453 21.1249C169.791 23.1171 185.75 31.5396 197.178 44.7281C208.607 57.9166 214.673 74.9119 214.178 92.356C213.683 109.8 206.664 126.424 194.506 138.944C193.549 139.901 197.65 136.962 200.315 134.16C209.914 124.359 216.404 111.942 218.972 98.4668C221.54 84.9913 220.071 71.0576 214.749 58.4139C209.427 45.7703 200.49 34.9799 189.059 27.3967C177.627 19.8135 164.211 15.7752 150.493 15.7886Z" fill="#F4C028"/>
<path d="M200.452 134.364C188.18 146.861 171.654 154.281 154.16 155.147C136.666 156.013 119.487 150.262 106.041 139.038C92.5948 127.815 83.8664 111.94 81.5922 94.5734C79.3179 77.2065 83.6646 59.6199 93.7675 45.3122L200.452 134.364Z" fill="#FFC727"/>
<path d="M203.938 85.6342C203.924 96.1746 200.786 106.474 194.92 115.232C189.054 123.989 180.724 130.811 170.982 134.836C161.24 138.86 150.524 139.906 140.188 137.841C129.851 135.777 120.359 130.694 112.911 123.236C105.462 115.778 100.392 106.28 98.3407 95.9406C96.2893 85.6017 97.349 74.8868 101.386 65.15C105.423 55.4132 112.255 47.0916 121.02 41.2371C129.785 35.3825 140.089 32.2578 150.629 32.2578C157.636 32.2577 164.573 33.6389 171.045 36.3221C177.517 39.0054 183.397 42.9381 188.348 47.8955C193.299 52.8528 197.224 58.7376 199.899 65.2131C202.574 71.6886 203.947 78.6279 203.938 85.6342Z" fill="white"/>
<path d="M150.766 48.7959C150.095 48.7959 149.452 48.5294 148.978 48.0552C148.504 47.581 148.237 46.9378 148.237 46.2671V39.1594C148.255 38.4942 148.527 37.861 148.997 37.3905C149.468 36.9199 150.101 36.648 150.766 36.6307C151.443 36.6304 152.094 36.8947 152.579 37.367C153.064 37.8394 153.345 38.4825 153.363 39.1594V46.2671C153.363 46.605 153.296 46.9396 153.164 47.2509C153.033 47.5622 152.841 47.8441 152.598 48.0798C152.356 48.3155 152.069 48.5004 151.755 48.6233C151.44 48.7463 151.104 48.805 150.766 48.7959Z" fill="#E3B01D"/>
<path d="M188.082 123.633C178.548 132.978 165.858 138.411 152.515 138.86C139.173 139.309 126.146 134.742 116.005 126.059C105.864 117.377 99.3452 105.209 97.7337 91.957C96.1221 78.7046 99.5351 65.3293 107.3 54.4695L188.082 123.633Z" fill="#FBCD4C" fill-opacity="0.17"/>
<path d="M175.917 59.8001C175.749 59.6515 175.613 59.4699 175.518 59.2668C175.423 59.0636 175.371 58.8431 175.364 58.6189C175.358 58.3947 175.398 58.1716 175.481 57.9634C175.564 57.7551 175.689 57.5661 175.848 57.4081L178.992 53.8542C179.147 53.6844 179.334 53.5474 179.543 53.4517C179.752 53.3559 179.978 53.3033 180.208 53.2969C180.437 53.2905 180.666 53.3305 180.88 53.4145C181.094 53.4986 181.288 53.6249 181.452 53.7859C181.62 53.9346 181.756 54.1161 181.851 54.3192C181.946 54.5224 181.998 54.7429 182.005 54.9671C182.011 55.1913 181.971 55.4144 181.888 55.6227C181.805 55.8309 181.68 56.0199 181.521 56.1779L179.949 57.9548L178.377 59.6634C178.227 59.838 178.043 59.9804 177.837 60.0822C177.63 60.184 177.406 60.2431 177.176 60.2558C176.946 60.2686 176.716 60.2348 176.5 60.1565C176.283 60.0782 176.085 59.957 175.917 59.8001Z" fill="#E3B01D"/>
<path d="M115.774 119.26C115.438 118.947 115.236 118.516 115.21 118.057C115.185 117.598 115.338 117.148 115.638 116.799L118.85 113.314C119.151 112.982 119.57 112.782 120.018 112.756C120.465 112.73 120.905 112.882 121.242 113.177C121.414 113.321 121.556 113.499 121.657 113.699C121.758 113.9 121.816 114.119 121.829 114.343C121.842 114.568 121.809 114.792 121.731 115.003C121.654 115.214 121.534 115.407 121.379 115.569L119.807 117.346L118.166 119.123C117.865 119.455 117.446 119.655 116.998 119.681C116.551 119.706 116.111 119.555 115.774 119.26Z" fill="#E3B01D"/>
<path d="M122.199 59.8001C122.367 59.6515 122.502 59.4699 122.597 59.2668C122.692 59.0636 122.744 58.8431 122.751 58.6189C122.757 58.3947 122.718 58.1716 122.634 57.9634C122.551 57.7551 122.426 57.5661 122.267 57.4081L119.123 53.8542C118.968 53.6844 118.781 53.5474 118.572 53.4517C118.363 53.3559 118.137 53.3033 117.908 53.2969C117.678 53.2905 117.449 53.3305 117.235 53.4145C117.021 53.4986 116.827 53.6249 116.663 53.7859C116.495 53.9346 116.359 54.1161 116.264 54.3192C116.169 54.5224 116.117 54.7429 116.111 54.9671C116.104 55.1913 116.144 55.4144 116.227 55.6227C116.31 55.8309 116.435 56.0199 116.594 56.1779L118.166 57.9548L119.738 59.6634C119.888 59.838 120.072 59.9804 120.278 60.0822C120.485 60.184 120.71 60.2431 120.939 60.2558C121.169 60.2686 121.399 60.2348 121.615 60.1565C121.832 60.0782 122.03 59.957 122.199 59.8001Z" fill="#E3B01D"/>
<path d="M182.341 119.26C182.678 118.947 182.88 118.516 182.905 118.057C182.931 117.598 182.777 117.148 182.478 116.799L179.266 113.314C178.965 112.982 178.545 112.782 178.098 112.756C177.65 112.73 177.211 112.882 176.874 113.177C176.701 113.321 176.56 113.499 176.459 113.699C176.358 113.9 176.299 114.119 176.286 114.343C176.273 114.568 176.307 114.792 176.384 115.003C176.462 115.214 176.582 115.407 176.737 115.569L178.309 117.346L179.949 119.123C180.25 119.455 180.67 119.655 181.117 119.681C181.565 119.706 182.004 119.555 182.341 119.26Z" fill="#E3B01D"/>
<path d="M150.903 121.516H150.629C149.308 121.516 148.237 122.587 148.237 123.908V131.303C148.237 132.624 149.308 133.695 150.629 133.695H150.903C152.224 133.695 153.295 132.624 153.295 131.303V123.908C153.295 122.587 152.224 121.516 150.903 121.516Z" fill="#E3B01D"/>
<path d="M198.675 85.2923V85.0189C198.675 83.6978 197.604 82.6269 196.283 82.6269H188.888C187.567 82.6269 186.496 83.6978 186.496 85.0189V85.2923C186.496 86.6133 187.567 87.6843 188.888 87.6843H196.283C197.604 87.6843 198.675 86.6133 198.675 85.2923Z" fill="#E3B01D"/>
<path d="M113.792 85.2923V85.0189C113.792 83.6978 112.721 82.6269 111.4 82.6269H104.006C102.685 82.6269 101.614 83.6978 101.614 85.0189V85.2923C101.614 86.6133 102.685 87.6843 104.006 87.6843H111.4C112.721 87.6843 113.792 86.6133 113.792 85.2923Z" fill="#E3B01D"/>
<path d="M167.647 105.523L167.032 99.0299L164.845 101.422L153.363 91.0337C153.867 90.2835 154.151 89.4078 154.183 88.5049C154.175 87.427 153.797 86.3847 153.113 85.5515C152.429 84.7183 151.48 84.1446 150.425 83.9259V61.4408H153.363L149.263 56.6568L144.957 61.4408H148.169V84.0626C147.055 84.3309 146.081 85.0076 145.441 85.9589C144.801 86.9102 144.542 88.0669 144.713 89.2004C144.885 90.334 145.476 91.3618 146.369 92.0809C147.262 92.7999 148.392 93.1579 149.536 93.084C150.298 93.0734 151.046 92.8862 151.723 92.5372L163.341 103.062L161.36 105.249L167.647 105.523Z" fill="#E3B01D"/>
<path d="M168.946 52.0099C171.512 52.0099 173.593 49.9292 173.593 47.3626C173.593 44.7959 171.512 42.7152 168.946 42.7152C166.379 42.7152 164.298 44.7959 164.298 47.3626C164.298 49.9292 166.379 52.0099 168.946 52.0099Z" fill="#FBCD4C" fill-opacity="0.17"/>
<path d="M137.439 1.29851H137.166C136.864 1.29851 136.619 1.54329 136.619 1.84525V8.7343C136.619 9.03626 136.864 9.28105 137.166 9.28105H137.439C137.741 9.28105 137.986 9.03626 137.986 8.7343V1.84525C137.986 1.54329 137.741 1.29851 137.439 1.29851Z" fill="#CE9E4A"/>
<path d="M142.565 1.29851H142.292C141.99 1.29851 141.745 1.54329 141.745 1.84525V8.7343C141.745 9.03626 141.99 9.28105 142.292 9.28105H142.565C142.867 9.28105 143.112 9.03626 143.112 8.7343V1.84525C143.112 1.54329 142.867 1.29851 142.565 1.29851Z" fill="#CE9E4A"/>
<path d="M147.622 1.29851H147.349C147.047 1.29851 146.802 1.54329 146.802 1.84525V8.7343C146.802 9.03626 147.047 9.28105 147.349 9.28105H147.622C147.924 9.28105 148.169 9.03626 148.169 8.7343V1.84525C148.169 1.54329 147.924 1.29851 147.622 1.29851Z" fill="#CE9E4A"/>
<path d="M152.748 1.29851H152.475C152.173 1.29851 151.928 1.54329 151.928 1.84525V8.7343C151.928 9.03626 152.173 9.28105 152.475 9.28105H152.748C153.05 9.28105 153.295 9.03626 153.295 8.7343V1.84525C153.295 1.54329 153.05 1.29851 152.748 1.29851Z" fill="#CE9E4A"/>
<path d="M157.874 1.29851H157.601C157.299 1.29851 157.054 1.54329 157.054 1.84525V8.7343C157.054 9.03626 157.299 9.28105 157.601 9.28105H157.874C158.176 9.28105 158.421 9.03626 158.421 8.7343V1.84525C158.421 1.54329 158.176 1.29851 157.874 1.29851Z" fill="#CE9E4A"/>
<path d="M162.931 1.29851H162.658C162.356 1.29851 162.111 1.54329 162.111 1.84525V8.7343C162.111 9.03626 162.356 9.28105 162.658 9.28105H162.931C163.233 9.28105 163.478 9.03626 163.478 8.7343V1.84525C163.478 1.54329 163.233 1.29851 162.931 1.29851Z" fill="#CE9E4A"/>
<path d="M96.5696 29.4559V83.5841C96.5632 84.0535 96.4562 84.516 96.2558 84.9404C96.0554 85.3649 95.7662 85.7414 95.4077 86.0445C94.8521 86.4489 94.1814 86.6645 93.4941 86.6596H32.3265C31.5109 86.6596 30.7286 86.3355 30.1518 85.7588C29.5751 85.182 29.2511 84.3998 29.2511 83.5841V29.4559H96.5696Z" fill="#7BAEEB"/>
<path d="M96.5696 28.5666V36.7678H29.2511V28.3616C29.321 26.6992 30.0266 25.1271 31.222 23.9698C32.4175 22.8125 34.0116 22.1583 35.6754 22.1423H90.1453C91.8091 22.1583 93.4032 22.8125 94.5986 23.9698C95.7941 25.1271 96.4996 26.6992 96.5696 28.3616V28.5666Z" fill="#AFCDFB"/>
<path d="M95.4077 86.0453C94.8521 86.4498 94.1814 86.6654 93.4941 86.6604H32.3265C31.5109 86.6604 30.7286 86.3364 30.1518 85.7596C29.5751 85.1829 29.2511 84.4006 29.2511 83.5849V36.7695L95.4077 86.0453Z" fill="#95C0F4"/>
<path d="M43.3299 28.4319C42.7498 28.4319 42.1936 28.2015 41.7834 27.7914C41.3733 27.3812 41.1429 26.825 41.1429 26.2449V20.7774C41.1429 20.1974 41.3733 19.6411 41.7834 19.231C42.1936 18.8209 42.7498 18.5904 43.3299 18.5904C43.6139 18.5903 43.8951 18.6473 44.1567 18.758C44.4183 18.8687 44.655 19.0309 44.8527 19.235C45.0503 19.439 45.2049 19.6807 45.3073 19.9457C45.4097 20.2107 45.4577 20.4935 45.4485 20.7774V26.2449C45.4488 26.8133 45.2278 27.3595 44.8323 27.7677C44.4368 28.1759 43.898 28.4142 43.3299 28.4319Z" fill="#E3B01D"/>
<path d="M62.7397 28.4319C62.1597 28.4319 61.6034 28.2015 61.1933 27.7914C60.7831 27.3812 60.5527 26.825 60.5527 26.2449V20.7774C60.5527 20.1974 60.7831 19.6411 61.1933 19.231C61.6034 18.8209 62.1597 18.5904 62.7397 18.5904C63.3197 18.5904 63.876 18.8209 64.2862 19.231C64.6963 19.6411 64.9267 20.1974 64.9267 20.7774V26.2449C64.9095 26.8195 64.6736 27.3659 64.2671 27.7724C63.8607 28.1788 63.3143 28.4148 62.7397 28.4319Z" fill="#E3B01D"/>
<path d="M80.919 28.4319C80.3509 28.4142 79.8121 28.1759 79.4166 27.7677C79.0211 27.3595 78.8001 26.8133 78.8004 26.2449V20.7774C78.7912 20.4935 78.8392 20.2107 78.9416 19.9457C79.044 19.6807 79.1986 19.439 79.3962 19.235C79.5939 19.0309 79.8305 18.8687 80.0922 18.758C80.3538 18.6473 80.635 18.5903 80.919 18.5904C81.499 18.5904 82.0553 18.8209 82.4655 19.231C82.8756 19.6411 83.106 20.1974 83.106 20.7774V26.2449C83.106 26.825 82.8756 27.3812 82.4655 27.7914C82.0553 28.2015 81.499 28.4319 80.919 28.4319Z" fill="#E3B01D"/>
<path d="M47.5673 53.6492H39.0927C38.6576 53.6492 38.2404 53.4764 37.9328 53.1688C37.6252 52.8612 37.4524 52.444 37.4524 52.009V43.5344C37.4524 43.0993 37.6252 42.6821 37.9328 42.3745C38.2404 42.0669 38.6576 41.8941 39.0927 41.8941H47.5673C47.7796 41.8939 47.9897 41.9367 48.185 42.02C48.3803 42.1032 48.5568 42.2251 48.7037 42.3784C48.8506 42.5317 48.9649 42.7131 49.0397 42.9118C49.1146 43.1105 49.1484 43.3223 49.1392 43.5344V52.009C49.1484 52.2211 49.1146 52.4329 49.0397 52.6315C48.9649 52.8302 48.8506 53.0116 48.7037 53.1649C48.5568 53.3182 48.3803 53.4402 48.185 53.5234C47.9897 53.6066 47.7796 53.6494 47.5673 53.6492V53.6492Z" stroke="white" stroke-miterlimit="10"/>
<path d="M67.1134 53.6492H58.7071C58.2721 53.6492 57.8549 53.4764 57.5473 53.1688C57.2397 52.8612 57.0669 52.444 57.0669 52.009V43.5344C57.0669 43.0993 57.2397 42.6821 57.5473 42.3745C57.8549 42.0669 58.2721 41.8941 58.7071 41.8941H67.1134C67.5484 41.8941 67.9656 42.0669 68.2732 42.3745C68.5808 42.6821 68.7537 43.0993 68.7537 43.5344V52.009C68.7537 52.444 68.5808 52.8612 68.2732 53.1688C67.9656 53.4764 67.5484 53.6492 67.1134 53.6492V53.6492Z" stroke="white" stroke-miterlimit="10"/>
<path d="M86.7283 53.6492H78.2537C78.0414 53.6494 77.8313 53.6066 77.6359 53.5234C77.4406 53.4402 77.2642 53.3182 77.1173 53.1649C76.9704 53.0116 76.8561 52.8302 76.7813 52.6315C76.7064 52.4329 76.6726 52.2211 76.6818 52.009V43.5344C76.6726 43.3223 76.7064 43.1105 76.7813 42.9118C76.8561 42.7131 76.9704 42.5317 77.1173 42.3784C77.2642 42.2251 77.4406 42.1032 77.6359 42.02C77.8313 41.9367 78.0414 41.8939 78.2537 41.8941H86.7283C86.9437 41.8941 87.157 41.9365 87.356 42.019C87.555 42.1014 87.7358 42.2222 87.8881 42.3745C88.0405 42.5268 88.1613 42.7077 88.2437 42.9067C88.3261 43.1057 88.3686 43.319 88.3686 43.5344V52.009C88.3686 52.2244 88.3261 52.4377 88.2437 52.6367C88.1613 52.8357 88.0405 53.0165 87.8881 53.1688C87.7358 53.3211 87.555 53.4419 87.356 53.5244C87.157 53.6068 86.9437 53.6492 86.7283 53.6492V53.6492Z" stroke="white" stroke-miterlimit="10"/>
<path d="M67.1137 72.6488H58.7074C58.4894 72.6585 58.2718 72.6227 58.0684 72.5437C57.865 72.4647 57.6803 72.3442 57.526 72.1899C57.3717 72.0356 57.2512 71.8509 57.1722 71.6475C57.0932 71.4441 57.0575 71.2265 57.0672 71.0085V62.6022C57.0672 62.1672 57.24 61.75 57.5476 61.4424C57.8552 61.1348 58.2724 60.962 58.7074 60.962H67.1137C67.5487 60.962 67.9659 61.1348 68.2735 61.4424C68.5811 61.75 68.7539 62.1672 68.7539 62.6022V71.0085C68.7539 71.4435 68.5811 71.8607 68.2735 72.1683C67.9659 72.4759 67.5487 72.6488 67.1137 72.6488Z" fill="#E7B142"/>
<path d="M47.5673 72.6488H39.0927C38.6576 72.6488 38.2404 72.4759 37.9328 72.1683C37.6252 71.8607 37.4524 71.4435 37.4524 71.0085V62.6022C37.4524 62.1672 37.6252 61.75 37.9328 61.4424C38.2404 61.1348 38.6576 60.962 39.0927 60.962H47.5673C47.7796 60.9618 47.9897 61.0046 48.185 61.0878C48.3803 61.1711 48.5568 61.293 48.7037 61.4463C48.8506 61.5996 48.9649 61.781 49.0397 61.9797C49.1146 62.1784 49.1484 62.3901 49.1392 62.6022V71.0085C49.1484 71.2206 49.1146 71.4324 49.0397 71.6311C48.9649 71.8297 48.8506 72.0112 48.7037 72.1645C48.5568 72.3177 48.3803 72.4397 48.185 72.5229C47.9897 72.6061 47.7796 72.649 47.5673 72.6488V72.6488Z" stroke="white" stroke-miterlimit="10"/>
<path d="M86.7283 72.6488H78.2537C78.0414 72.649 77.8313 72.6061 77.6359 72.5229C77.4406 72.4397 77.2642 72.3177 77.1173 72.1645C76.9704 72.0112 76.8561 71.8297 76.7813 71.6311C76.7064 71.4324 76.6726 71.2206 76.6818 71.0085V62.6022C76.6726 62.3901 76.7064 62.1784 76.7813 61.9797C76.8561 61.781 76.9704 61.5996 77.1173 61.4463C77.2642 61.293 77.4406 61.1711 77.6359 61.0878C77.8313 61.0046 78.0414 60.9618 78.2537 60.962H86.7283C86.9437 60.962 87.157 61.0044 87.356 61.0868C87.555 61.1693 87.7358 61.2901 87.8881 61.4424C88.0405 61.5947 88.1613 61.7755 88.2437 61.9745C88.3261 62.1735 88.3686 62.3868 88.3686 62.6022V71.0085C88.3686 71.2239 88.3261 71.4372 88.2437 71.6362C88.1613 71.8352 88.0405 72.016 87.8881 72.1683C87.7358 72.3206 87.555 72.4415 87.356 72.5239C87.157 72.6063 86.9437 72.6488 86.7283 72.6488V72.6488Z" stroke="white" stroke-miterlimit="10"/>
<path d="M78.1168 43.6717L86.5914 52.0097" stroke="white" stroke-linecap="round" stroke-linejoin="round"/>
<path d="M86.7281 43.6717L78.2535 52.0097" stroke="white" stroke-linecap="round" stroke-linejoin="round"/>
<path d="M57.8871 68.7538L60.7576 70.8725L67.3869 62.7396" stroke="white" stroke-linecap="round" stroke-linejoin="round"/>
<path d="M96.5696 28.5673V36.7685H29.2511V28.3622H96.5696V28.5673Z" fill="#5393E0"/>
<path d="M15.3091 165.665L14.1473 173.593H19.8881L21.1867 165.665H15.3091Z" fill="#FFD4B6"/>
<path d="M14.2836 172.567C13.7296 174.226 13.3852 175.948 13.2585 177.693H25.902C25.902 177.693 25.3553 173.729 20.0245 172.772C20.0245 172.772 18.3159 173.251 14.2836 172.567Z" fill="#4A4A89"/>
<path d="M38.0676 166.075L39.5711 173.661H45.4487L43.9451 166.075H38.0676Z" fill="#FFD4B6"/>
<path d="M39.1611 171.816C38.5638 173.717 38.2641 175.7 38.2726 177.693H53.6499C53.4226 176.907 53.0391 176.176 52.5224 175.541C52.0057 174.907 51.3665 174.384 50.6428 174.003C48.9413 173.211 47.1137 172.725 45.2437 172.567C45.2437 172.567 44.6286 173.934 39.1611 171.816Z" fill="#4A4A89"/>
<path d="M47.3622 166.897H34.7186L29.2511 130.333L24.057 166.897H11.8918C11.8918 166.897 15.2406 129.854 17.291 121.79C18.7945 116.049 21.7333 112.905 23.3052 111.538L24.3304 110.718L38.8876 113.179L47.3622 166.897Z" fill="#4A4A89"/>
<path d="M27.6792 111.946C24.1829 113.993 21.5937 117.29 20.4348 121.172C18.7262 126.913 15.1723 159.308 14.3522 166.894H11.8918C11.8918 166.894 15.2406 129.852 17.291 121.787C18.7945 116.047 21.7333 112.903 23.3052 111.536L27.6792 111.946Z" fill="#5D5DA3"/>
<path d="M38.6823 91.6487L51.6676 96.8428L49.6856 102.174L38.2039 98.3463L38.6823 91.6487Z" fill="#F5BB93"/>
<path d="M35.4021 74.9056C35.4021 74.9056 32.8734 73.197 28.8411 75.384C24.8088 77.571 25.0822 83.722 22.6218 86.4557C20.1614 89.1895 17.7011 93.4268 21.665 96.844C25.6289 100.261 34.3769 100.329 38.6826 95.7505C42.9882 91.1714 41.8947 81.4666 40.1861 77.7761C38.4776 74.0855 35.4021 74.9056 35.4021 74.9056Z" fill="#3A3A6B"/>
<path d="M41.963 97.5938L38.2724 113.176L22.8951 112.151H22.8267L21.7332 96.2953C21.8735 94.294 22.8008 92.4298 24.3122 91.1106C25.8235 89.7913 27.7959 89.1245 29.7978 89.2559L34.9236 89.5976C36.9122 89.7381 38.7657 90.6558 40.083 92.1522C41.4003 93.6486 42.0757 95.6034 41.963 97.5938Z" fill="#D4ECFF"/>
<path d="M41.9631 97.5265L38.2726 113.109L22.8952 112.084L40.0495 91.9906C41.3961 93.5092 42.0844 95.5005 41.9631 97.5265Z" fill="#D4ECFF"/>
<path d="M39.2294 83.105C39.0244 85.9755 37.4525 88.2308 34.7187 88.5725V90.0761H32.6684L30.4131 89.871L30.5498 87.684C29.3049 86.8098 28.4475 85.4869 28.1578 83.9935C28.0073 83.484 27.9608 82.9494 28.0211 82.4216C28.0644 81.6431 28.2622 80.8811 28.6029 80.1798C28.9436 79.4786 29.4204 78.8521 30.0056 78.3369C30.5907 77.8217 31.2726 77.4281 32.0113 77.179C32.7501 76.9298 33.531 76.8301 34.3087 76.8857C37.5208 77.0908 39.4345 79.8245 39.2294 83.105Z" fill="#FFD4B6"/>
<path d="M34.7186 88.5735V89.5987L32.7366 90.0088L30.4813 89.8037L30.618 87.6167C29.3731 86.7424 28.5157 85.4196 28.226 83.9262L29.3878 83.6528C30.6052 85.8111 32.4699 87.5324 34.7186 88.5735Z" fill="#F5BB93"/>
<path d="M36.0172 90.2144L28.6361 89.7359L28.7728 89.3942C28.9421 89.0976 29.1932 88.856 29.4963 88.6985C29.7993 88.5409 30.1413 88.474 30.4814 88.5058L34.3086 88.7791C34.6477 88.7923 34.9759 88.9023 35.2545 89.096C35.533 89.2898 35.7503 89.5593 35.8805 89.8726L36.0172 90.2144Z" fill="#4A4A89"/>
<path d="M35.8805 77.2281C35.8805 77.2281 36.2905 78.2532 33.8985 81.2604C32.4854 83.0719 30.43 84.2709 28.1576 84.6092C28.1576 84.6092 26.7907 81.0553 29.3195 78.3216C29.3195 78.3216 32.3949 75.0411 35.8805 77.2281Z" fill="#3A3A6B"/>
<path d="M70.2574 79.4841L57.1354 132.792L42.1682 128.828L53.9233 75.1784L65.3367 66.2254L70.2574 79.4841Z" fill="#FFC727"/>
<path d="M61.3042 69.3675L46.6786 132.79L52.4879 133.611L67.1818 71.2128L61.3042 69.3675Z" fill="#CE9E4A"/>
<path d="M50.4376 111.195C50.3777 111.339 50.2706 111.458 50.1339 111.533C49.9972 111.607 49.8391 111.633 49.6858 111.605L47.5671 110.854V110.99L49.4808 111.742C49.6119 111.813 49.7163 111.925 49.778 112.06C49.8397 112.196 49.8553 112.348 49.8225 112.494C49.7626 112.638 49.6555 112.757 49.5188 112.831C49.3821 112.906 49.224 112.931 49.0707 112.904L47.5671 112.357V112.494L48.934 113.041C49.0741 113.101 49.1866 113.212 49.2498 113.351C49.3129 113.49 49.3222 113.647 49.2757 113.792C49.2283 113.945 49.1233 114.073 48.9829 114.15C48.8426 114.226 48.678 114.245 48.524 114.202L47.6355 113.861V114.066L48.4556 114.407C48.5632 114.451 48.6542 114.527 48.7156 114.625C48.7771 114.723 48.8057 114.839 48.7973 114.954V115.091C48.7358 115.249 48.6178 115.378 48.4662 115.454C48.3147 115.53 48.1404 115.546 47.9772 115.501L47.6355 115.364C47.6355 115.364 44.0133 116.594 43.1931 116.116L30.3445 114.681L29.5244 114.544C28.2722 114.203 27.182 113.428 26.4489 112.357C26.0951 111.854 25.8187 111.302 25.6288 110.717L21.7332 97.9366C21.4795 97.1391 21.5529 96.2734 21.9374 95.53C22.3219 94.7866 22.986 94.2264 23.7835 93.9727C24.5811 93.7189 25.4468 93.7924 26.1901 94.1769C26.9335 94.5614 27.4937 95.2254 27.7475 96.023L32.1215 108.462L43.9449 110.717L47.5671 109.555L50.0959 110.444C50.227 110.514 50.3314 110.626 50.3931 110.762C50.4548 110.898 50.4704 111.05 50.4376 111.195Z" fill="#FFD4B6"/>
<path d="M70.2574 79.4841C60.6893 82.3545 53.9233 75.1784 53.9233 75.1784L61.3044 69.3692L65.3367 66.2254L67.1819 71.2145L70.2574 79.4841Z" fill="#FBEABB"/>
<path d="M43.1249 124.455L58.2288 128.282L57.067 133.34C56.9546 133.836 56.7445 134.304 56.4489 134.718C56.1533 135.132 55.7783 135.483 55.3456 135.75C54.9129 136.017 54.4313 136.196 53.9289 136.275C53.4265 136.354 52.9134 136.332 52.4196 136.21L44.7651 134.365C43.7781 134.137 42.9216 133.527 42.3836 132.668C41.8455 131.81 41.6697 130.773 41.8947 129.786L43.1249 124.455Z" fill="#E3B01D"/>
<path d="M67.1819 71.2145C66.0686 71.5571 64.8781 71.5571 63.7648 71.2145C62.7812 70.8545 61.9254 70.2127 61.3044 69.3692L65.3367 66.2254L67.1819 71.2145Z" fill="#E3B01D"/>
<path d="M29.3194 130.33L31.8481 125.273L38.0674 166.894H34.7186L29.3194 130.33Z" fill="#3A3A6B"/>
<path d="M47.5671 109.553L43.7399 114.338L43.9449 110.715L47.5671 109.553Z" fill="#F5BB93"/>
<path d="M29.6611 113.861C29.6549 114.095 29.6087 114.327 29.5244 114.545C28.2722 114.204 27.1821 113.429 26.449 112.358C26.7988 112.082 27.2339 111.937 27.6792 111.948C28.1932 111.948 28.6872 112.147 29.057 112.504C29.4268 112.861 29.6434 113.348 29.6611 113.861Z" fill="#F5BB93"/>
<path d="M18.6579 144.41L24.3304 144.888C24.2853 145.514 24.0206 146.105 23.583 146.555C23.1454 147.005 22.563 147.286 21.9384 147.349C19.6147 147.622 18.3845 145.435 18.6579 144.41Z" fill="#3A3A6B"/>
<path d="M37.9306 144.957L43.6031 144.41C43.6701 145.038 43.5058 145.669 43.141 146.185C42.7761 146.701 42.2358 147.066 41.6211 147.212C39.4341 147.895 37.7939 145.982 37.9306 144.957Z" fill="#3A3A6B"/>
</svg>
