<svg width="287" height="287" viewBox="0 0 287 287" fill="none" xmlns="http://www.w3.org/2000/svg">
<path d="M214.487 194.362V192.439C214.487 182.538 227.023 182.107 227.023 175.059C227.023 171.999 224.532 170.002 220.824 170.002C216.765 170.002 214.2 172.212 214.2 175.346V176.132C214.2 176.913 213.775 177.28 212.988 177.28L205.371 176.993C204.66 176.993 204.16 176.637 204.16 176.143V175.357C204.16 166.747 210.997 160.829 221.042 160.829C230.868 160.829 237.205 166.385 237.205 174.714C237.205 186.539 224.457 186.613 224.457 193.082V194.362C224.476 194.526 224.458 194.692 224.404 194.848C224.35 195.003 224.262 195.145 224.145 195.261C224.028 195.378 223.887 195.467 223.731 195.521C223.575 195.575 223.41 195.593 223.246 195.573H215.698C215.534 195.593 215.368 195.575 215.212 195.521C215.057 195.467 214.915 195.378 214.798 195.261C214.682 195.145 214.593 195.003 214.539 194.848C214.485 194.692 214.467 194.526 214.487 194.362ZM213.844 205.842C213.844 202.708 216.622 200.142 219.968 200.142C223.177 200.142 226.024 202.708 226.024 205.842C226.024 208.976 223.154 211.542 219.899 211.542C216.645 211.542 213.844 208.965 213.844 205.831V205.842Z" fill="#455A64"/>
<path d="M63.9838 112.798V111.127C63.9838 102.517 74.8898 102.156 74.8898 96.0311C74.8898 93.3677 72.7258 91.64 69.5114 91.64C65.9813 91.64 63.7714 93.5571 63.7714 96.2779V96.961C63.7714 97.6383 63.404 97.9482 62.721 97.9482L56.1028 97.7014C55.4828 97.7014 55.0523 97.3915 55.0523 96.961V96.2779C55.0523 88.8159 60.9875 83.6499 69.7123 83.6499C78.2477 83.6499 83.7581 88.4772 83.7581 95.7039C83.7581 105.973 72.6799 106.036 72.6799 111.667V112.78C72.6964 112.922 72.6806 113.066 72.6337 113.201C72.5868 113.336 72.5099 113.459 72.4088 113.56C72.3078 113.661 72.1852 113.738 72.0502 113.785C71.9152 113.832 71.7714 113.847 71.6295 113.831H65.0342C64.8938 113.847 64.7517 113.831 64.6181 113.785C64.4845 113.739 64.3629 113.664 64.2622 113.565C64.1615 113.466 64.0842 113.346 64.0361 113.213C63.9879 113.08 63.97 112.938 63.9838 112.798ZM63.4098 122.757C63.4098 120.036 65.8206 117.809 68.725 117.809C71.5089 117.809 73.9886 120.036 73.9886 122.757C73.9886 125.477 71.5089 127.704 68.6676 127.704C67.3179 127.738 66.0094 127.237 65.0276 126.31C64.0459 125.384 63.4705 124.106 63.427 122.757H63.4098Z" fill="#FFC727"/>
<path d="M202.524 46.9306V46.0868C202.524 41.7417 208.023 41.5522 208.023 38.4584C208.023 37.1152 206.927 36.237 205.303 36.237C203.523 36.237 202.398 37.2071 202.398 38.5847V38.9291C202.398 39.2735 202.209 39.4284 201.864 39.4284L198.524 39.3022C198.208 39.3022 197.99 39.1472 197.99 38.9291V38.5847C197.99 34.802 200.992 32.2075 205.4 32.2075C209.711 32.2075 212.495 34.647 212.495 38.3034C212.495 43.4694 206.898 43.5211 206.898 46.3394V46.9134C206.907 46.9853 206.899 47.0582 206.875 47.1265C206.851 47.1948 206.812 47.2567 206.76 47.3076C206.709 47.3585 206.646 47.397 206.578 47.4202C206.509 47.4434 206.436 47.4507 206.364 47.4415H203.053C202.983 47.4504 202.911 47.4435 202.845 47.4212C202.778 47.3989 202.716 47.3619 202.666 47.3129C202.615 47.2638 202.576 47.204 202.552 47.1378C202.527 47.0717 202.518 47.0009 202.524 46.9306ZM202.243 51.9646C202.206 51.4279 202.332 50.8925 202.603 50.4281C202.875 49.9636 203.28 49.5916 203.766 49.3605C204.251 49.1293 204.795 49.0496 205.327 49.1318C205.859 49.214 206.353 49.4543 206.747 49.8214C207.14 50.1885 207.414 50.6654 207.532 51.1902C207.651 51.7149 207.609 52.2632 207.411 52.7637C207.214 53.2642 206.871 53.6938 206.426 53.9966C205.981 54.2994 205.456 54.4614 204.918 54.4615C204.578 54.4738 204.239 54.4189 203.921 54.2999C203.603 54.181 203.311 54.0003 203.062 53.7684C202.814 53.5364 202.613 53.2577 202.473 52.9481C202.332 52.6386 202.254 52.3044 202.243 51.9646Z" fill="#FFC727"/>
<path d="M41.328 163.017V161.955C41.328 156.479 48.2619 156.243 48.2619 152.34C48.2619 150.647 46.8843 149.545 44.8179 149.545C42.5736 149.545 41.1558 150.767 41.1558 152.501V152.931C41.1558 153.368 40.9205 153.563 40.4842 153.563L36.2711 153.408C35.875 153.408 35.5995 153.207 35.5995 152.931V152.501C35.5995 147.737 39.3821 144.465 44.9385 144.465C50.3742 144.465 53.8756 147.536 53.8756 152.145C53.8756 158.683 46.8269 158.723 46.8269 162.31V163.017C46.838 163.107 46.8283 163.2 46.7985 163.286C46.7687 163.373 46.7196 163.451 46.6549 163.516C46.5901 163.581 46.5115 163.63 46.425 163.66C46.3384 163.69 46.2462 163.699 46.1553 163.688H41.9881C41.8981 163.697 41.8072 163.686 41.7221 163.656C41.637 163.625 41.5599 163.576 41.4965 163.511C41.4331 163.447 41.3851 163.369 41.3559 163.283C41.3267 163.197 41.3172 163.106 41.328 163.017V163.017ZM40.9721 169.359C40.9272 168.683 41.0869 168.009 41.4304 167.425C41.7739 166.84 42.2854 166.373 42.8982 166.084C43.511 165.794 44.1967 165.696 44.8662 165.802C45.5356 165.907 46.1577 166.212 46.6515 166.676C47.1453 167.14 47.4879 167.743 47.6348 168.404C47.7816 169.066 47.7258 169.756 47.4747 170.386C47.2236 171.015 46.7888 171.555 46.2269 171.934C45.665 172.313 45.002 172.514 44.3243 172.51C43.4604 172.538 42.6209 172.222 41.9901 171.631C41.3594 171.04 40.9891 170.223 40.9606 169.359H40.9721Z" stroke="#455A64" stroke-miterlimit="10"/>
<path d="M94.136 63.9329V63.2039C94.136 59.4384 98.906 59.272 98.906 56.5914C98.906 55.4434 97.9589 54.6685 96.5468 54.6685C95.0028 54.6685 94.027 55.5065 94.027 56.7005V56.999C94.027 57.2974 93.8662 57.4295 93.5678 57.4295L90.6978 57.3204C90.428 57.3204 90.2386 57.1884 90.2386 56.999V56.7005C90.2386 53.4229 92.8388 51.1729 96.6559 51.1729C100.473 51.1729 102.746 53.2852 102.746 56.4536C102.746 60.9538 97.8957 60.9825 97.8957 63.445V63.9329C97.9031 63.9949 97.8963 64.0579 97.8758 64.117C97.8554 64.176 97.8218 64.2297 97.7776 64.2739C97.7334 64.3181 97.6797 64.3517 97.6206 64.3722C97.5616 64.3927 97.4986 64.3995 97.4365 64.3921H94.5665C94.5067 64.3949 94.447 64.3848 94.3915 64.3623C94.3361 64.3398 94.2861 64.3056 94.2452 64.2619C94.2043 64.2183 94.1733 64.1662 94.1544 64.1094C94.1356 64.0526 94.1293 63.9923 94.136 63.9329ZM93.8949 68.2953C93.8697 67.8366 93.9826 67.3809 94.219 66.9871C94.4555 66.5933 94.8046 66.2795 95.2213 66.0862C95.638 65.8929 96.103 65.829 96.5564 65.9028C97.0098 65.9766 97.4306 66.1847 97.7644 66.5002C98.0983 66.8157 98.3298 67.2241 98.4292 67.6726C98.5285 68.121 98.491 68.589 98.3215 69.0159C98.1521 69.4429 97.8585 69.8092 97.4787 70.0675C97.0988 70.3258 96.6503 70.4643 96.1909 70.465C95.5981 70.4851 95.0215 70.2692 94.5878 69.8645C94.1541 69.4598 93.8987 68.8996 93.8777 68.3067L93.8949 68.2953Z" fill="#455A64"/>
<path d="M179.088 221.295V220.566C179.088 216.8 183.858 216.64 183.858 213.953C183.858 212.805 182.911 212.03 181.499 212.03C179.955 212.03 178.979 212.868 178.979 214.062V214.361C178.979 214.659 178.818 214.797 178.52 214.797L175.65 214.688C175.38 214.688 175.19 214.55 175.19 214.361V214.062C175.19 210.785 177.791 208.535 181.608 208.535C185.425 208.535 187.761 210.647 187.761 213.821C187.761 218.316 182.911 218.344 182.911 220.807V221.295C182.918 221.357 182.911 221.42 182.891 221.479C182.87 221.539 182.837 221.593 182.793 221.637C182.749 221.682 182.695 221.716 182.636 221.737C182.577 221.758 182.514 221.766 182.452 221.76H179.582C179.517 221.772 179.45 221.769 179.386 221.75C179.323 221.732 179.264 221.698 179.216 221.653C179.168 221.608 179.131 221.552 179.109 221.489C179.087 221.427 179.08 221.36 179.088 221.295V221.295ZM178.847 225.657C178.822 225.199 178.935 224.743 179.171 224.349C179.407 223.955 179.757 223.641 180.173 223.448C180.59 223.255 181.055 223.191 181.508 223.265C181.962 223.339 182.383 223.547 182.716 223.862C183.05 224.178 183.282 224.586 183.381 225.035C183.48 225.483 183.443 225.951 183.274 226.378C183.104 226.805 182.81 227.171 182.431 227.429C182.051 227.688 181.602 227.826 181.143 227.827C180.552 227.841 179.98 227.621 179.551 227.214C179.122 226.808 178.871 226.248 178.853 225.657H178.847Z" stroke="#455A64" stroke-miterlimit="10"/>
<path d="M156.616 234.358C156.576 234.238 156.535 234.117 156.49 233.997C156.444 233.876 156.409 233.75 156.363 233.629C156.317 233.509 156.283 233.388 156.237 233.268C156.191 233.147 156.157 233.021 156.111 232.9C156.065 232.78 156.03 232.659 155.984 232.539C155.939 232.418 155.904 232.292 155.858 232.171L155.732 231.81C155.692 231.683 155.646 231.563 155.606 231.442L155.479 231.081C155.439 230.954 155.393 230.834 155.353 230.713L155.227 230.352C155.187 230.225 155.141 230.105 155.1 229.984L154.98 229.6C154.94 229.474 154.894 229.353 154.854 229.232L154.722 228.871C154.681 228.745 154.641 228.624 154.595 228.503C154.549 228.383 154.515 228.262 154.469 228.142C154.423 228.021 154.389 227.895 154.343 227.774C154.297 227.654 154.262 227.533 154.217 227.413C152.345 221.719 146.559 217.54 140.194 217.54C134.023 217.54 128.656 221.133 126.418 226.196C126.36 226.311 126.309 226.431 126.257 226.546L126.102 226.902C126.045 227.017 125.993 227.132 125.941 227.252C125.89 227.373 125.832 227.487 125.781 227.602L125.626 227.952C125.568 228.073 125.517 228.188 125.465 228.308C125.413 228.429 125.356 228.538 125.304 228.658C125.253 228.779 125.195 228.888 125.143 229.009L124.988 229.359C124.931 229.474 124.879 229.594 124.828 229.709C124.776 229.824 124.719 229.944 124.667 230.059L124.512 230.415C124.455 230.53 124.403 230.644 124.351 230.765C124.3 230.886 124.242 231 124.191 231.115L124.036 231.465C123.978 231.586 123.927 231.701 123.875 231.821C123.823 231.942 123.766 232.051 123.714 232.171L123.559 232.521C123.502 232.636 123.45 232.757 123.399 232.872C123.347 232.986 123.289 233.107 123.238 233.227C122.253 235.325 121.747 237.615 121.757 239.932C121.757 249.173 129.735 256.727 139.603 256.727C149.257 256.727 157.655 249.173 157.655 239.932C157.653 238.17 157.344 236.422 156.742 234.766C156.702 234.599 156.662 234.479 156.616 234.358Z" fill="#263238"/>
<path d="M142.96 107.227C113.359 107.227 93.2061 124.647 93.2061 150.053V152.349C93.2115 152.728 93.3147 153.1 93.5057 153.427C93.6968 153.755 93.9693 154.028 94.2967 154.22C94.4206 154.339 94.5551 154.447 94.6985 154.541C94.8229 154.662 94.9595 154.77 95.1061 154.863C95.2305 154.984 95.367 155.091 95.5136 155.184C95.6369 155.306 95.7736 155.414 95.9211 155.506C96.0435 155.626 96.1782 155.734 96.3229 155.827C96.4472 155.95 96.5838 156.059 96.7305 156.154C96.8564 156.274 96.9928 156.381 97.138 156.476C97.2627 156.596 97.3993 156.704 97.5456 156.797C97.6682 156.918 97.8029 157.025 97.9474 157.119C98.0822 157.249 98.2304 157.364 98.3894 157.463C98.5064 157.57 98.6311 157.667 98.7624 157.756C98.8883 157.875 99.0247 157.983 99.17 158.077C99.2938 158.196 99.4283 158.304 99.5718 158.399C99.6977 158.518 99.8341 158.625 99.9793 158.72C100.104 158.841 100.241 158.948 100.387 159.041C100.51 159.162 100.644 159.27 100.789 159.363C100.913 159.483 101.05 159.591 101.196 159.684C101.319 159.805 101.454 159.913 101.598 160.006C101.724 160.125 101.86 160.233 102.006 160.327C102.128 160.448 102.263 160.555 102.407 160.649C103.071 161.232 103.936 161.533 104.818 161.487L123.278 162.176C125.178 162.176 126.211 161.315 126.211 159.415V157.52C126.211 149.926 132.422 144.582 142.283 144.582C151.255 144.582 157.293 149.41 157.293 156.832C157.293 157.677 157.213 158.521 157.052 159.351C147.788 171.497 123.674 176.853 123.674 200.427V206.098C123.674 208.394 124.931 209.662 127.244 209.662H149.47C151.766 209.662 153.04 208.405 153.04 206.098V202.315C153.04 183.213 190.62 183 190.62 148.153C190.62 123.597 171.93 107.227 142.96 107.227Z" fill="#263238"/>
<path d="M123.647 206.106V200.435C123.647 171.253 160.595 170.013 160.595 149.211C160.595 140.182 153.248 134.287 142.331 134.287C130.363 134.287 122.815 140.797 122.815 150.032V152.328C122.815 154.624 121.552 155.692 119.244 155.692L96.7781 154.848C94.683 154.848 93.2135 153.798 93.2135 152.328V150.032C93.2135 124.627 113.367 107.206 142.968 107.206C171.938 107.206 190.61 123.577 190.61 148.144C190.61 182.991 153.03 183.204 153.03 202.306V206.089C153.03 208.385 151.767 209.654 149.46 209.654H127.217C124.904 209.671 123.647 208.414 123.647 206.106ZM121.759 239.932C121.759 230.696 129.944 223.137 139.811 223.137C149.259 223.137 157.656 230.696 157.656 239.932C157.656 249.168 149.242 256.699 139.604 256.699C129.726 256.699 121.759 249.145 121.759 239.932Z" fill="#FFC727" stroke="#FFC727" stroke-miterlimit="10"/>
<path d="M138.684 275.52C155.996 275.52 170.03 272.382 170.03 268.512C170.03 264.641 155.996 261.503 138.684 261.503C121.372 261.503 107.338 264.641 107.338 268.512C107.338 272.382 121.372 275.52 138.684 275.52Z" fill="#455A64"/>
<path d="M114.725 109.548L113.526 112.165C113.526 112.165 106.557 112.917 106.557 113.44C106.557 113.962 106.632 117.561 107.011 117.71C107.299 117.822 107.618 117.822 107.906 117.71L118.169 115.087L119.145 110.443L114.725 109.548Z" fill="white" stroke="#263238" stroke-linecap="round" stroke-linejoin="round"/>
<path d="M112.774 114.226C111.499 115.27 110.125 116.185 108.67 116.958C107.011 117.704 106.948 118.835 107.476 118.835C108.004 118.835 112.688 116.872 112.688 116.872C112.688 116.872 116.941 115.758 117.555 115.42C118.169 115.081 118.238 113.198 118.238 113.198" fill="white"/>
<path d="M112.774 114.226C111.499 115.27 110.125 116.185 108.67 116.958C107.011 117.704 106.948 118.835 107.476 118.835C108.004 118.835 112.688 116.872 112.688 116.872C112.688 116.872 116.941 115.758 117.555 115.42C118.169 115.081 118.238 113.198 118.238 113.198" stroke="#263238" stroke-linecap="round" stroke-linejoin="round"/>
<path d="M120.856 59.2539L116.574 92.0753L113.595 109.846L120.207 111.408L125.138 90.3877L127.474 77.157L120.856 59.2539Z" fill="#7D7D7D" stroke="#263238" stroke-linecap="round" stroke-linejoin="round"/>
<path d="M155.41 35.4903L152.799 35.077L147.449 33.0508L147.254 39.405L155.548 40.1684L155.41 35.4903Z" fill="white" stroke="#263238" stroke-linecap="round" stroke-linejoin="round"/>
<path d="M124.879 151.88C122.933 154.15 121.114 156.526 119.432 158.998C117.222 162.373 118.003 166.001 120.729 166.913C123.456 167.826 126.952 165.352 127.864 163.406C128.777 161.46 128.513 160.427 129.936 158.481C131.36 156.536 132.531 154.59 132.014 151.995C131.498 149.401 126.28 150.067 124.879 151.88Z" fill="#7D7D7D" stroke="#263238" stroke-linecap="round" stroke-linejoin="round"/>
<path d="M127.6 163.895C127.417 163.504 127.204 163.091 126.952 162.649C124.868 158.981 121.212 159.274 118.916 159.957C117.406 163.04 118.267 166.105 120.741 166.931C123.215 167.758 126.406 165.737 127.6 163.895Z" fill="white" stroke="#263238" stroke-linecap="round" stroke-linejoin="round"/>
<path d="M126.952 162.648C126.177 163.796 125.138 166.931 121.114 165.633C119.992 165.345 118.988 164.713 118.244 163.825C118.331 164.525 118.612 165.187 119.055 165.736C119.498 166.284 120.086 166.698 120.752 166.931C123.473 167.837 126.975 165.369 127.887 163.423C128.8 161.478 128.536 160.444 129.959 158.498C131.383 156.553 132.554 154.607 132.037 152.012C132.037 155.123 130.889 155.64 129.443 157.327C127.996 159.015 127.732 161.478 126.952 162.648Z" fill="white" stroke="#263238" stroke-linecap="round" stroke-linejoin="round"/>
<path d="M163.159 151.88C165.106 154.15 166.925 156.526 168.607 158.998C170.817 162.373 170.036 166.001 167.31 166.913C164.583 167.826 161.087 165.352 160.175 163.406C159.262 161.46 159.526 160.427 158.103 158.481C156.679 156.536 155.508 154.59 156.025 151.995C156.541 149.401 161.736 150.067 163.159 151.88Z" fill="#7D7D7D" stroke="#263238" stroke-linecap="round" stroke-linejoin="round"/>
<path d="M160.444 163.895C160.622 163.504 160.835 163.091 161.087 162.649C163.171 158.981 166.827 159.274 169.123 159.957C170.633 163.04 169.772 166.105 167.298 166.931C164.824 167.758 161.633 165.737 160.444 163.895Z" fill="white" stroke="#263238" stroke-linecap="round" stroke-linejoin="round"/>
<path d="M161.087 162.648C161.862 163.796 162.901 166.931 166.925 165.633C168.047 165.345 169.051 164.713 169.795 163.825C169.708 164.525 169.427 165.187 168.984 165.736C168.54 166.284 167.953 166.698 167.287 166.931C164.566 167.837 161.064 165.369 160.152 163.423C159.239 161.478 159.503 160.444 158.08 158.498C156.656 156.553 155.485 154.607 156.002 152.012C156.002 155.123 157.15 155.64 158.596 157.327C160.043 159.015 160.307 161.478 161.087 162.648Z" fill="white" stroke="#263238" stroke-linecap="round" stroke-linejoin="round"/>
<path d="M169.244 107.126C169.244 104.79 165.226 102.195 165.226 102.195C159.17 96.0362 148.241 96.8513 144.206 97.4023C140.188 96.8283 129.248 96.0362 123.192 102.195C123.192 102.195 119.174 104.79 119.174 107.126C119.174 109.462 124.237 151.622 124.237 151.622C124.237 151.622 124.105 153.827 127.738 154.085C131.371 154.343 132.904 152.271 132.904 152.271L134.333 116.597C134.333 116.597 140.171 112.441 141.221 112.315C141.6 112.263 142.094 112.183 142.645 112.114V112.183C143.673 111.968 144.734 111.968 145.762 112.183V112.114C146.336 112.183 146.8 112.263 147.185 112.315C148.224 112.441 154.073 116.597 154.073 116.597L155.502 152.271C155.502 152.271 157.058 154.343 160.668 154.085C164.279 153.827 164.17 151.622 164.17 151.622C164.17 151.622 169.244 109.462 169.244 107.126Z" fill="#263238" stroke="#263238" stroke-linecap="round" stroke-linejoin="round"/>
<path d="M154.067 116.596C154.067 116.596 153.287 108.032 157.052 104.789" stroke="#707070" stroke-linecap="round" stroke-linejoin="round"/>
<path d="M134.35 116.597C134.35 116.597 134.741 109.462 133.96 106.867C133.18 104.273 131.882 103.234 131.882 103.234" stroke="#707070" stroke-linecap="round" stroke-linejoin="round"/>
<path d="M139.149 99.6006C139.149 99.6006 143.299 104.399 144.08 108.423" stroke="#707070" stroke-linecap="round" stroke-linejoin="round"/>
<path d="M148.23 99.876C148.23 99.876 145.894 102.47 145.635 104.416" stroke="#707070" stroke-linecap="round" stroke-linejoin="round"/>
<path d="M142.392 49.3984C142.392 49.3984 138.633 48.876 137.335 50.1733C136.038 51.4705 131.624 56.2519 131.624 56.2519L133.96 97.5053C133.96 97.5053 139.281 99.5832 143.821 99.5832C148.362 99.5832 153.551 97.8956 154.727 96.9887C155.904 96.0818 154.859 51.8436 154.859 51.8436C154.859 51.8436 145.222 49.0081 142.392 49.3984Z" fill="#FFC727" stroke="#263238" stroke-linecap="round" stroke-linejoin="round"/>
<path d="M149.269 50.3052C151.244 50.0054 153.236 49.8309 155.233 49.7829C157.827 49.7829 160.399 49.9149 160.399 49.9149L166.885 43.687L153.832 40.7022L154.871 34.7383C154.871 34.7383 164.468 34.0897 169.267 34.9966C174.066 35.9036 181.591 38.2397 181.981 38.2397C182.371 38.2397 182.888 39.669 182.498 40.7022C182.107 41.7354 169.904 55.2359 166.259 58.7373C163.875 61.0739 161.623 63.5422 159.515 66.1304L157.85 95.06C157.85 95.06 162.132 97.3962 162.913 98.1711C163.693 98.946 164.6 102.063 164.6 102.063C164.6 102.063 156.685 98.8197 154.607 98.5614C152.529 98.3031 151.238 98.1711 150.847 97.4134C150.457 96.6558 147.214 61.9976 147.214 61.9976L147.346 50.9711C147.346 50.9711 147.323 50.3052 149.269 50.3052Z" fill="#7D7D7D" stroke="#263238" stroke-linecap="round" stroke-linejoin="round"/>
<path d="M157.052 68.0767L150.044 68.9836L150.692 71.5781L154.199 72.485L157.569 70.9294L157.052 68.0767Z" stroke="#263238" stroke-linecap="round" stroke-linejoin="round"/>
<path d="M161.07 52.5093L159.515 66.1303L163.538 54.5872" stroke="#263238" stroke-linecap="round" stroke-linejoin="round"/>
<path d="M166.908 43.6874C166.908 43.6874 170.151 44.336 175.081 42.3901" stroke="#263238" stroke-linecap="round" stroke-linejoin="round"/>
<path d="M170.283 44.5943C172.413 44.6536 174.544 44.4803 176.637 44.0776" stroke="#263238" stroke-linecap="round" stroke-linejoin="round"/>
<path d="M137.984 49.2666L138.633 58.7376C139.224 59.5153 139.989 60.1433 140.868 60.571C141.746 60.9987 142.713 61.2142 143.689 61.2001C146.933 61.0738 147.323 58.7376 147.323 58.7376V50.9542L137.984 49.2666Z" fill="white" stroke="#263238" stroke-linecap="round" stroke-linejoin="round"/>
<path d="M147.449 54.1969L147.191 61.9919L149.917 57.7098C149.917 57.7098 152.902 61.4695 153.677 61.3432C154.452 61.217 153.16 59.6557 152.902 58.2322C152.644 56.8086 150.434 51.7402 150.176 50.3167C149.917 48.8932 147.449 48.6291 147.306 49.2778C147.234 49.838 147.234 50.4051 147.306 50.9653L147.449 54.1969Z" fill="#7D7D7D" stroke="#263238" stroke-linecap="round" stroke-linejoin="round"/>
<path d="M138.5 61.2C138.5 61.2 139.017 97.5227 137.72 97.936C136.422 98.3493 131.234 98.4584 127.962 100.014C124.69 101.569 123.163 102.218 123.163 102.218C123.163 102.218 124.719 98.4584 126.538 96.7708C127.748 95.6838 129.099 94.7666 130.556 94.0443L127.187 76.6636C127.187 76.6636 120.959 60.184 120.827 59.2771C120.695 58.3702 132.634 51.6257 135.097 50.4547C137.559 49.2838 138.213 50.3284 138.213 50.3284L138.5 61.2Z" fill="#7D7D7D" stroke="#263238" stroke-linecap="round" stroke-linejoin="round"/>
<path d="M135.257 48.6179C135.257 48.6179 132.146 58.4793 131.882 59.7765C131.618 61.0737 131.882 61.0737 132.795 60.1611C133.708 59.2484 136.038 57.05 136.038 57.05L138.5 61.2L138.368 53.5486V49.1345C138.368 49.1345 138.242 47.3207 135.257 48.6179Z" fill="#7D7D7D" stroke="#263238" stroke-linecap="round" stroke-linejoin="round"/>
<path d="M129.161 69.896H136.813L136.687 73.0071L133.311 74.1723L129.029 73.0071L129.161 69.896Z" stroke="#263238" stroke-linecap="round" stroke-linejoin="round"/>
<path d="M150.176 35.7776C150.176 35.7776 151.989 43.6874 152.38 44.9616C152.77 46.2359 150.308 51.3216 149.51 52.4868C149.206 52.9921 148.788 53.4194 148.29 53.7344C147.792 54.0493 147.226 54.2433 146.64 54.3006C145.733 54.3006 140.802 52.6188 139.631 51.8382C138.46 51.0575 137.301 50.1506 137.301 50.1506C136.749 50.4022 136.136 50.4873 135.536 50.3956C134.937 50.3038 134.377 50.0392 133.926 49.634C132.37 48.2048 130.292 46.5172 130.809 45.352C131.06 44.7802 131.482 44.2995 132.016 43.9751C132.55 43.6507 133.17 43.4981 133.794 43.5381C135.223 43.5381 134.706 43.4061 134.706 43.4061C134.706 43.4061 132.112 39.6464 132.112 36.6616C132.112 33.6768 137.685 31.4956 140.928 31.4956C143.171 31.5891 145.374 32.1174 147.415 33.0511L150.176 35.7776Z" fill="white" stroke="#263238" stroke-linecap="round" stroke-linejoin="round"/>
<path d="M145.635 38.7568L147.971 43.1709L145.635 44.7264L144.596 43.4292" stroke="#263238" stroke-linecap="round" stroke-linejoin="round"/>
<path d="M149.917 42.7803C149.917 42.7803 150.044 43.8192 148.488 45.5068" stroke="#263238" stroke-linecap="round" stroke-linejoin="round"/>
<path d="M143.173 40.3809C143.173 40.9893 142.909 41.483 142.599 41.483C142.289 41.483 142.025 40.9893 142.025 40.3809C142.025 39.7724 142.289 39.2788 142.599 39.2788C142.909 39.2788 143.173 39.7724 143.173 40.3809Z" fill="#263238"/>
<path d="M147.254 39.4048C147.577 39.4048 147.84 38.9114 147.84 38.3028C147.84 37.6941 147.577 37.2007 147.254 37.2007C146.931 37.2007 146.668 37.6941 146.668 38.3028C146.668 38.9114 146.931 39.4048 147.254 39.4048Z" fill="#263238"/>
<path d="M136.164 29.0272C136.164 29.0272 128.002 32.012 127.732 35.7775C127.462 39.5429 134.999 44.7261 135.389 45.3747C135.78 46.0234 136.945 44.5941 136.945 44.5941C136.685 44.2456 136.504 43.8451 136.414 43.42C136.324 42.995 136.327 42.5555 136.423 42.1316C136.813 40.8344 138.5 39.2616 138.5 38.6302C138.5 37.9988 136.555 39.1468 136.555 37.201C136.555 35.2551 141.353 34.0899 144.206 34.2162C147.059 34.3425 149.527 39.1468 151.605 36.8107C153.683 34.4745 150.692 33.8316 150.692 33.8316C150.692 33.8316 154.71 33.3093 154.71 31.2371C154.71 29.165 152.632 27.73 151.725 27.73C150.819 27.73 148.356 29.2913 148.356 27.6037C148.356 25.9161 150.819 25.1355 148.482 22.4377C146.146 19.7399 143.167 22.4377 143.167 23.4766C143.167 24.5156 142.386 26.4557 141.87 26.4557C141.353 26.4557 139.792 24.1253 137.978 25.4225C137.433 25.8561 136.988 26.4031 136.675 27.0255C136.362 27.6479 136.187 28.3309 136.164 29.0272Z" fill="#263238" stroke="#263238" stroke-linecap="round" stroke-linejoin="round"/>
<path d="M139.539 39.0208L143.689 37.4595" stroke="#263238" stroke-linecap="round" stroke-linejoin="round"/>
<path d="M144.338 35.6456C144.259 35.2383 144.324 34.8162 144.522 34.4517" stroke="#263238" stroke-linecap="round" stroke-linejoin="round"/>
<path d="M144.522 34.4401C144.814 33.8661 145.475 33.1256 146.933 32.5229" stroke="white" stroke-linecap="round" stroke-linejoin="round"/>
</svg>
