<?xml version="1.0" encoding="utf-8"?>
<!-- Generator: Adobe Illustrator 24.0.1, SVG Export Plug-In . SVG Version: 6.00 Build 0)  -->
<svg version="1.1" id="Capa_1" xmlns="http://www.w3.org/2000/svg" xmlns:xlink="http://www.w3.org/1999/xlink" x="0px" y="0px"
	 viewBox="0 0 25 25" style="enable-background:new 0 0 25 25;" xml:space="preserve">
<style type="text/css">
	.st0{fill:url(#SVGID_1_);}
	.st1{fill:url(#SVGID_2_);}
	.st2{fill:url(#SVGID_3_);}
	.st3{fill:url(#SVGID_4_);}
	.st4{fill:url(#SVGID_5_);}
	.st5{fill:url(#SVGID_6_);}
	.st6{fill:url(#SVGID_7_);}
	.st7{fill:url(#SVGID_8_);}
</style>
<g>
	<g>
		<linearGradient id="SVGID_1_" gradientUnits="userSpaceOnUse" x1="3.7507" y1="9.5738" x2="9.3638" y2="9.5738">
			<stop  offset="0" style="stop-color:#9E9E9E"/>
			<stop  offset="1" style="stop-color:#E4E4E4"/>
		</linearGradient>
		<path class="st0" d="M3.8,11.5l1.1-5.3C4.9,5.7,5.7,5.5,6.1,6l3.1,4.1c0.5,0.7-0.1,0.8-2.2,3.3C4.3,12.1,3.6,12.4,3.8,11.5z"/>
	</g>
	<g>
		<g>
			<linearGradient id="SVGID_2_" gradientUnits="userSpaceOnUse" x1="15.8907" y1="9.5738" x2="21.5031" y2="9.5738">
				<stop  offset="0" style="stop-color:#9A9A9A"/>
				<stop  offset="1" style="stop-color:#EEEEEE"/>
			</linearGradient>
			<path class="st1" d="M18.3,13.5c-2.1-2.5-2.7-2.7-2.2-3.3L19.2,6c0.4-0.5,1.1-0.3,1.3,0.3l1.1,5.3C21.7,12.4,20.8,12.2,18.3,13.5
				z"/>
		</g>
	</g>
	<g>
		<linearGradient id="SVGID_3_" gradientUnits="userSpaceOnUse" x1="0.5" y1="12.0844" x2="24.7553" y2="12.0844">
			<stop  offset="8.193657e-02" style="stop-color:#969696"/>
			<stop  offset="0.9339" style="stop-color:#F9F9F9"/>
		</linearGradient>
		<path class="st2" d="M23.6,8.7l-5.1,3.8l-5.3-9.3c-0.1-0.2-0.4-0.4-0.6-0.4c-0.2,0-0.5,0.1-0.6,0.4l-5.3,9.3L1.6,8.7
			C1.1,8.3,0.4,8.8,0.5,9.4l1.9,7.6l1.3,0.8l-0.9,0.6l0.6,2.3c0.1,0.3,0.4,0.5,0.7,0.5h17.1c0.3,0,0.6-0.2,0.7-0.5l0.6-2.3l-0.6-0.7
			l0.9-0.7l1.9-7.6C24.9,8.8,24.2,8.3,23.6,8.7z"/>
	</g>
	<linearGradient id="SVGID_4_" gradientUnits="userSpaceOnUse" x1="12.6281" y1="12.0844" x2="24.7553" y2="12.0844">
		<stop  offset="8.193657e-02" style="stop-color:#969696"/>
		<stop  offset="0.9339" style="stop-color:#F9F9F9"/>
	</linearGradient>
	<path class="st3" d="M24.7,9.4l-1.9,7.6l-0.9,0.7l0.6,0.7l-0.6,2.3c-0.1,0.3-0.4,0.5-0.7,0.5h-8.5V2.8c0.2,0,0.5,0.1,0.6,0.4
		l5.3,9.3l5.1-3.8C24.2,8.3,24.9,8.8,24.7,9.4z"/>
	<g>
		<linearGradient id="SVGID_5_" gradientUnits="userSpaceOnUse" x1="9.7856" y1="14.2157" x2="15.4696" y2="14.2157">
			<stop  offset="0" style="stop-color:#9A9A9A"/>
			<stop  offset="1" style="stop-color:#EEEEEE"/>
		</linearGradient>
		<path class="st4" d="M15.4,13.9l-2.1-3.6c-0.1-0.2-0.4-0.3-0.6-0.3c-0.2,0-0.5,0.1-0.6,0.3l-2.1,3.6c-0.1,0.2-0.1,0.5,0,0.7
			l2.1,3.6c0.1,0.2,0.4,0.3,0.6,0.3c0.2,0,0.5-0.1,0.6-0.3l2.1-3.6C15.5,14.4,15.5,14.1,15.4,13.9z"/>
	</g>
	<linearGradient id="SVGID_6_" gradientUnits="userSpaceOnUse" x1="12.6281" y1="14.2157" x2="15.4696" y2="14.2157">
		<stop  offset="0" style="stop-color:#9A9A9A"/>
		<stop  offset="1" style="stop-color:#EEEEEE"/>
	</linearGradient>
	<path class="st5" d="M15.4,14.6l-2.1,3.6c-0.1,0.2-0.4,0.3-0.6,0.3V10c0.2,0,0.5,0.1,0.6,0.3l2.1,3.6
		C15.5,14.1,15.5,14.4,15.4,14.6z"/>
	<linearGradient id="SVGID_7_" gradientUnits="userSpaceOnUse" x1="2.4903" y1="17.7683" x2="7.679" y2="17.7683">
		<stop  offset="8.193657e-02" style="stop-color:#969696"/>
		<stop  offset="0.9339" style="stop-color:#F9F9F9"/>
	</linearGradient>
	<path class="st6" d="M7.7,17.8c0,0.4-0.3,0.7-0.7,0.7H2.9l-0.4-1.4H7C7.4,17.1,7.7,17.4,7.7,17.8z"/>
	<g>
		<linearGradient id="SVGID_8_" gradientUnits="userSpaceOnUse" x1="17.6013" y1="17.7683" x2="22.79" y2="17.7683">
			<stop  offset="0" style="stop-color:#9A9A9A"/>
			<stop  offset="1" style="stop-color:#EEEEEE"/>
		</linearGradient>
		<path class="st7" d="M22.8,17.1l-0.4,1.4h-4.1c-0.4,0-0.7-0.3-0.7-0.7s0.3-0.7,0.7-0.7H22.8z"/>
	</g>
</g>
</svg>
