<svg width="290" height="290" viewBox="0 0 290 290" fill="none" xmlns="http://www.w3.org/2000/svg">
<path d="M57.5583 232.035C65.5855 225.463 66.6237 214.42 65.4869 204.664C65.2955 203.035 65.3361 201.3 64.4313 199.932C63.5265 198.563 61.6125 197.733 60.1857 198.545C59.0257 199.218 58.5849 200.674 57.9933 201.898C57.1979 203.542 55.9557 204.929 54.4089 205.9C53.3997 206.526 52.1237 206.961 51.0333 206.48C49.5427 205.819 49.2179 203.887 49.0961 202.263C48.8641 199.236 48.636 196.206 48.4117 193.175C48.3735 191.542 48.0719 189.926 47.5185 188.39C46.8805 186.893 45.6335 185.553 44.0385 185.252C42.4435 184.95 40.5585 185.994 40.3729 187.612C40.3654 188.291 40.4042 188.969 40.4889 189.642C40.5219 189.979 40.456 190.318 40.2995 190.618C40.1429 190.917 39.9024 191.165 39.6073 191.33C38.9693 191.574 38.2733 191.168 37.7397 190.75C35.9069 189.254 34.5787 187.235 33.3317 185.223C32.0847 183.21 30.8609 181.163 29.1731 179.481C27.4853 177.799 25.2349 176.581 22.8685 176.639C20.5021 176.697 18.1067 178.35 17.7007 180.699C17.2947 183.048 18.8317 185.252 20.4557 186.98C22.8744 189.533 25.6482 191.725 28.6917 193.488C29.2749 193.748 29.7604 194.186 30.0779 194.741C30.5245 195.796 29.5733 196.956 28.5235 197.403C27.3287 197.907 25.9831 197.89 24.7129 198.145C23.4427 198.4 22.0971 199.073 21.7085 200.309C21.1749 202.049 22.7235 203.649 24.1967 204.676C27.1656 206.732 30.4625 208.267 33.9465 209.217C35.1935 209.554 36.4985 209.832 37.5425 210.592C38.5865 211.352 39.2825 212.761 38.8011 213.956C38.3197 215.151 36.8233 215.638 35.5357 215.51C34.2481 215.383 33.0591 214.797 31.8121 214.449C29.4921 213.794 26.5921 214.188 25.2813 216.235C24.8937 216.933 24.6755 217.713 24.6442 218.511C24.613 219.309 24.7696 220.103 25.1015 220.829C25.7766 222.273 26.7352 223.567 27.9203 224.634C31.8681 228.598 36.7947 231.448 42.1999 232.893C47.5939 234.256 52.4949 234.343 57.5583 232.035Z" fill="#EBEBEB"/>
<path d="M58.2597 239.277C57.426 234.778 56.1576 230.371 54.4723 226.117C52.3899 220.921 50.0059 215.851 47.3325 210.933L45.2387 207.058C44.5543 205.782 43.8757 204.518 43.1333 203.323C41.7106 201.033 40.1615 198.824 38.4933 196.705C36.9099 194.67 35.3265 192.79 33.8533 191.05C32.3801 189.31 30.9533 187.715 29.5787 186.312C27.4397 184.093 25.1301 182.045 22.6709 180.187C21.8009 179.526 21.1049 179.027 20.6351 178.714L20.0957 178.343C20.0341 178.3 19.9702 178.262 19.9043 178.227C19.9043 178.227 19.9623 178.279 20.0783 178.366L20.6061 178.754C21.0701 179.091 21.7661 179.59 22.6129 180.262C25.044 182.145 27.3298 184.208 29.4511 186.434C30.8025 187.837 32.2177 189.438 33.7025 191.184C35.1873 192.93 36.7533 194.809 38.3425 196.845C40.0101 198.959 41.5592 201.165 42.9825 203.451C43.7191 204.64 44.3919 205.898 45.0763 207.174L47.1527 211.055C49.8038 215.966 52.1778 221.022 54.2635 226.198C55.9507 230.437 57.2325 234.826 58.0915 239.306" fill="#E0E0E0"/>
<path d="M43.0879 203.296C43.1423 203.064 43.1734 202.827 43.1807 202.588C43.2271 202.136 43.2735 201.469 43.3199 200.651C43.4185 199.015 43.4765 196.753 43.5345 194.271C43.5925 191.789 43.6853 189.515 43.8187 187.891C43.8767 187.073 43.9405 186.418 43.9869 185.96C44.0207 185.725 44.0362 185.489 44.0333 185.252C43.9616 185.478 43.913 185.712 43.8883 185.948C43.8129 186.4 43.7259 187.062 43.6447 187.874C43.4649 189.509 43.3431 191.771 43.2851 194.254C43.2271 196.736 43.1865 198.969 43.1517 200.634C43.1227 201.417 43.1053 202.072 43.0879 202.571C43.0645 202.812 43.0645 203.055 43.0879 203.296Z" fill="#E0E0E0"/>
<path d="M21.6094 201.137H21.8298H22.462C23.0072 201.137 23.796 201.137 24.782 201.166C26.7366 201.207 29.422 201.358 32.409 201.665C35.396 201.972 38.0524 202.367 39.978 202.709C40.9408 202.877 41.718 203.028 42.2574 203.132L42.8722 203.254C43.0172 203.254 43.0926 203.289 43.0926 203.254C43.0273 203.22 42.9568 203.196 42.8838 203.185L42.2748 203.016C41.747 202.883 40.9698 202.703 40.007 202.518C38.0872 202.129 35.4076 201.706 32.4322 201.392C29.4568 201.079 26.7482 200.963 24.782 200.969C23.8018 200.969 23.042 200.969 22.462 201.021L21.8356 201.062C21.7567 201.075 21.6803 201.1 21.6094 201.137Z" fill="#E0E0E0"/>
<path d="M54.2051 225.747C54.2507 225.66 54.2895 225.569 54.3211 225.475C54.4023 225.272 54.4951 225.011 54.6169 224.692C54.8721 224.007 55.1969 223.004 55.6261 221.792C56.4439 219.315 57.4705 215.858 58.5609 212.025C59.6513 208.191 60.6431 204.734 61.4203 202.246C61.8089 201.028 62.1221 200.03 62.3541 199.299C62.4585 198.975 62.5397 198.719 62.6035 198.499C62.6391 198.407 62.6644 198.312 62.6789 198.215C62.6272 198.298 62.5862 198.388 62.5571 198.482C62.4817 198.69 62.3831 198.951 62.2613 199.27C62.0061 199.955 61.6813 200.952 61.2579 202.17C60.4343 204.647 59.4077 208.104 58.3231 211.938C57.2385 215.771 56.2583 219.24 55.4579 221.716C55.0751 222.934 54.7561 223.932 54.5299 224.657C54.4255 224.988 54.3443 225.237 54.2747 225.463C54.2423 225.555 54.2189 225.651 54.2051 225.747Z" fill="#E0E0E0"/>
<path d="M25.3574 219.117C25.4472 219.16 25.5431 219.19 25.6416 219.204L26.4826 219.401L29.5798 220.109C32.1898 220.689 35.7858 221.576 39.7588 222.551C43.7318 223.525 47.3336 224.372 49.9552 224.929C51.266 225.207 52.3274 225.422 53.064 225.555L53.9108 225.706C54.0099 225.729 54.1109 225.742 54.2124 225.747C54.1202 225.704 54.0226 225.675 53.9224 225.66L53.0814 225.462L49.99 224.755C47.38 224.175 43.784 223.287 39.8168 222.313C35.8496 221.339 32.242 220.492 29.6204 219.935C28.3096 219.657 27.2482 219.442 26.5116 219.309L25.659 219.152C25.5596 219.132 25.4587 219.121 25.3574 219.117Z" fill="#E0E0E0"/>
<path d="M133.753 66.3013L91.8184 78.9141L100.32 107.179L142.254 94.5666L133.753 66.3013Z" fill="white"/>
<path d="M142.261 94.5393C142.261 94.5393 142.197 94.3595 142.093 94.0231C141.988 93.6867 141.832 93.1763 141.629 92.5267C141.229 91.2159 140.637 89.2961 139.889 86.8485C138.392 81.9359 136.252 74.8889 133.642 66.3107L133.793 66.3919L91.8707 79.0533L91.9751 78.8619L100.466 107.131L100.292 107.038L130.499 98.0193L139.146 95.4615L141.466 94.7829L142.046 94.6089L142.255 94.5567L142.07 94.6205L141.49 94.8061L139.216 95.5021L130.62 98.1295L100.368 107.299L100.234 107.34L100.194 107.207C97.6011 98.5935 94.7127 89.0177 91.6793 78.9431L91.6387 78.7981L91.7779 78.7575L133.718 66.1715L133.834 66.1367L133.868 66.2527C136.438 74.8773 138.543 81.9591 140.016 86.8949C140.736 89.3425 141.304 91.2565 141.687 92.5731C141.878 93.2111 142.017 93.7041 142.122 94.0521C142.226 94.4001 142.261 94.5393 142.261 94.5393Z" fill="#E0E0E0"/>
<path d="M133.758 66.2935C133.743 66.3377 133.723 66.3805 133.7 66.4211L133.503 66.7807C133.312 67.1113 133.051 67.5695 132.726 68.1495L129.797 73.1781L119.972 89.8415L119.902 89.9517L119.786 89.9053L118.504 89.4123L99.6136 82.0405L93.9006 79.7785L92.3578 79.1463L91.9576 78.9781C91.9097 78.9621 91.8647 78.9386 91.8242 78.9085C91.8747 78.9129 91.9238 78.9267 91.9692 78.9491L92.3752 79.0883L93.947 79.6683L99.689 81.8433L118.609 89.1281L119.896 89.6269L119.711 89.6907C123.597 83.1657 127.088 77.3193 129.617 73.0679L132.627 68.0915C132.975 67.5115 133.254 67.0765 133.451 66.7459L133.677 66.4037C133.723 66.3283 133.752 66.2877 133.758 66.2935Z" fill="#E0E0E0"/>
<path d="M255.78 179.22C255.78 179.22 253.06 176.528 247.759 183.251C244.979 186.653 242.428 190.236 240.12 193.975C240.12 193.975 238.798 195.344 237.928 194.102C237.058 192.861 236.159 189.66 234.221 189.822C232.284 189.984 231.171 191.98 230.91 195.164C230.649 198.348 229.831 205.314 229.75 205.94C229.668 206.567 229.17 207.384 228.421 206.636C227.673 205.888 223.909 199.52 220.98 201.48C218.051 203.44 218.793 212.454 218.857 213.434C218.921 214.414 218.654 214.785 218.167 214.924C217.68 215.064 216.607 212.802 215.453 211.033C214.298 209.264 212.657 207.402 211.068 208.684C209.479 209.965 207.791 216.27 211.804 227.853L214.014 233.073L219.669 233.879C231.89 234.859 237.574 231.652 238.415 229.79C239.256 227.928 237.052 226.803 235.045 226.13C233.038 225.457 230.579 224.97 230.596 224.477C230.614 223.984 230.898 223.624 231.867 223.439C232.835 223.253 241.727 221.699 242.887 218.387C244.047 215.075 236.942 212.999 236.031 212.477C235.12 211.955 235.793 211.241 236.373 211.015C236.953 210.789 243.496 208.243 246.517 207.199C249.539 206.155 251.204 204.635 250.862 202.652C250.519 200.668 247.208 200.674 245.787 200.134C244.366 199.595 245.363 197.983 245.363 197.983C248.419 194.82 251.261 191.458 253.872 187.92C259.051 181.099 255.676 179.109 255.676 179.109" fill="#EBEBEB"/>
<path d="M250.999 185.206C250.973 185.257 250.942 185.305 250.906 185.351L250.61 185.768C250.332 186.139 249.943 186.667 249.45 187.34C248.435 188.703 246.956 190.663 245.112 193.076C241.429 197.902 236.279 204.525 230.56 211.81L215.932 230.492L211.518 236.17L210.312 237.707L209.993 238.102C209.918 238.189 209.883 238.235 209.877 238.229C209.903 238.178 209.934 238.129 209.97 238.084L210.266 237.672L211.426 236.095C212.435 234.732 213.92 232.771 215.758 230.359C219.441 225.533 224.597 218.909 230.322 211.625C236.047 204.34 241.191 197.739 244.944 192.943C246.794 190.559 248.302 188.628 249.358 187.27C249.868 186.615 250.274 186.11 250.558 185.728L250.883 185.333C250.953 185.246 250.993 185.2 250.999 185.206Z" fill="#E0E0E0"/>
<path d="M235.3 194.352C235.426 194.849 235.498 195.358 235.515 195.871C235.602 196.811 235.677 198.116 235.729 199.56C235.781 201.004 235.805 202.199 235.834 203.249C235.876 203.758 235.876 204.27 235.834 204.78C235.708 204.283 235.638 203.773 235.625 203.26C235.549 202.315 235.486 201.01 235.433 199.572C235.381 198.133 235.346 196.933 235.306 195.883C235.259 195.373 235.258 194.861 235.3 194.352Z" fill="#E0E0E0"/>
<path d="M236.32 204.984C238.305 204.663 240.305 204.445 242.312 204.328C245.624 204.056 248.321 203.899 248.326 203.98C246.341 204.298 244.342 204.514 242.335 204.63C239.023 204.908 236.332 205.065 236.32 204.984Z" fill="#E0E0E0"/>
<path d="M226.697 216.166C227.218 216.206 227.734 216.29 228.24 216.415C229.191 216.595 230.496 216.845 231.946 217.077C233.396 217.309 234.713 217.483 235.67 217.604C236.192 217.646 236.71 217.729 237.218 217.854C236.697 217.899 236.172 217.887 235.652 217.819C234.684 217.749 233.332 217.61 231.9 217.372C230.467 217.135 229.133 216.856 228.194 216.624C227.68 216.525 227.178 216.372 226.697 216.166Z" fill="#E0E0E0"/>
<path d="M223.658 206.758C223.899 207.178 224.093 207.624 224.238 208.086C224.546 208.927 224.957 210.087 225.398 211.375C225.839 212.662 226.21 213.834 226.471 214.692C226.635 215.146 226.755 215.614 226.831 216.09C226.586 215.669 226.392 215.222 226.251 214.756C225.938 213.921 225.532 212.761 225.091 211.473C224.65 210.186 224.279 209.008 224.018 208.156C223.847 207.704 223.727 207.235 223.658 206.758Z" fill="#E0E0E0"/>
<path d="M213.908 215.551C214.187 216.102 214.424 216.674 214.616 217.262C215.016 218.335 215.55 219.82 216.124 221.467C216.698 223.114 217.197 224.61 217.551 225.695C217.769 226.275 217.938 226.873 218.055 227.481C217.771 226.922 217.534 226.34 217.348 225.741C216.947 224.674 216.414 223.189 215.84 221.542C215.265 219.895 214.761 218.399 214.413 217.308C214.196 216.738 214.027 216.15 213.908 215.551Z" fill="#E0E0E0"/>
<path d="M218.039 227.168C218.7 227.206 219.357 227.291 220.005 227.423C221.212 227.615 222.905 227.876 224.732 228.119C226.559 228.363 228.259 228.548 229.471 228.699C230.131 228.742 230.788 228.83 231.437 228.96C230.776 229 230.112 228.985 229.453 228.914C228.23 228.833 226.553 228.682 224.692 228.432C222.83 228.183 221.165 227.893 219.965 227.655C219.311 227.545 218.667 227.383 218.039 227.168Z" fill="#E0E0E0"/>
<path d="M230.177 122.154L228.803 167.135L261.673 168.139L263.048 123.158L230.177 122.154Z" fill="#F5F5F5"/>
<path d="M224.126 128.134L222.752 173.115L255.623 174.12L256.997 129.138L224.126 128.134Z" fill="white"/>
<path d="M255.617 174.11C255.613 174.036 255.613 173.963 255.617 173.889C255.617 173.739 255.617 173.53 255.617 173.257C255.617 172.677 255.646 171.865 255.675 170.798C255.733 168.646 255.814 165.52 255.919 161.559C256.145 153.642 256.464 142.419 256.841 129.131L256.974 129.27L224.106 128.278L224.262 128.133C223.734 144.953 223.253 160.491 222.859 173.112L222.737 172.985L246.61 173.779L253.251 174.011L254.991 174.081L255.6 174.11H255.02L253.28 174.069L246.668 173.901L222.719 173.234H222.598V173.112C222.975 160.486 223.439 144.93 223.943 128.127V127.977H224.1L256.963 128.997H257.102V129.137C256.667 142.477 256.301 153.717 256.04 161.651C255.907 165.595 255.797 168.716 255.727 170.856C255.687 171.912 255.658 172.724 255.634 173.286C255.634 173.553 255.634 173.762 255.605 173.907C255.576 174.052 255.617 174.11 255.617 174.11Z" fill="#E0E0E0"/>
<path d="M244.178 138.539C244.178 138.626 240.6 138.579 236.192 138.446C231.784 138.313 228.205 138.133 228.205 138.052C228.205 137.97 231.789 138.011 236.197 138.144C240.605 138.278 244.178 138.458 244.178 138.539Z" fill="#E0E0E0"/>
<path d="M252.67 142.714C252.67 142.796 247.16 142.714 240.362 142.488C233.565 142.262 228.055 142.042 228.061 141.96C228.066 141.879 233.571 141.96 240.374 142.187C247.177 142.413 252.676 142.627 252.67 142.714Z" fill="#E0E0E0"/>
<path d="M252.549 146.791C252.549 146.872 247.033 146.791 240.235 146.564C233.438 146.338 227.934 146.118 227.934 146.037C227.934 145.955 233.449 146.037 240.247 146.263C247.045 146.489 252.549 146.704 252.549 146.791Z" fill="#E0E0E0"/>
<path d="M252.42 150.869C252.42 150.95 246.91 150.869 240.112 150.643C233.315 150.416 227.811 150.196 227.811 150.115C227.811 150.034 233.326 150.115 240.124 150.341C246.922 150.567 252.426 150.799 252.42 150.869Z" fill="#E0E0E0"/>
<path d="M252.299 154.947C252.299 155.028 246.783 154.947 239.991 154.721C233.199 154.494 227.684 154.274 227.684 154.193C227.684 154.112 233.199 154.193 239.997 154.419C246.795 154.645 252.299 154.86 252.299 154.947Z" fill="#E0E0E0"/>
<path d="M252.178 159.023C252.178 159.104 246.662 159.023 239.864 158.797C233.067 158.571 227.562 158.35 227.562 158.269C227.562 158.188 233.078 158.269 239.876 158.495C246.673 158.721 252.178 158.919 252.178 159.023Z" fill="#E0E0E0"/>
<path d="M252.049 163.101C252.049 163.182 246.533 163.101 239.741 162.875C232.949 162.649 227.434 162.428 227.439 162.347C227.445 162.266 232.949 162.347 239.747 162.573C246.545 162.8 252.055 163.014 252.049 163.101Z" fill="#E0E0E0"/>
<path d="M240.542 166.831C240.542 166.913 237.578 166.889 233.924 166.779C230.27 166.669 227.312 166.507 227.312 166.425C227.312 166.344 230.276 166.367 233.93 166.478C237.584 166.588 240.542 166.744 240.542 166.831Z" fill="#E0E0E0"/>
<path d="M158.254 86.9796L147.969 112.812L180.279 125.677L190.564 99.8438L158.254 86.9796Z" fill="white"/>
<path d="M190.557 99.8463L190.401 99.7883L189.948 99.6143L188.208 98.9183L181.579 96.2793L158.228 86.9993L158.298 86.9703L148.02 112.798L147.985 112.716L180.291 125.592H180.228C183.336 117.809 185.917 111.359 187.715 106.853C188.62 104.602 189.328 102.833 189.809 101.633L190.389 100.258L190.581 99.7825L190.401 100.252C190.279 100.565 190.099 101.024 189.861 101.621C189.386 102.827 188.701 104.596 187.797 106.841C186.004 111.353 183.435 117.82 180.344 125.621V125.668H180.297L147.945 112.867H147.887V112.809C151.605 103.483 155.114 94.6669 158.176 86.9819V86.9297H158.222L181.631 96.2793L188.226 98.9241L189.966 99.6201L190.412 99.7999L190.557 99.8463Z" fill="#E0E0E0"/>
<path d="M158.697 89.078L149.707 111.656L179.748 123.617L188.738 101.039L158.697 89.078Z" fill="#EBEBEB"/>
<path d="M149.824 111.725L165.908 101.865L168.912 113.233L175.188 110.298L179.868 123.685L149.824 111.725Z" fill="#E0E0E0"/>
<path d="M175.849 103.82C175.663 104.288 175.342 104.69 174.927 104.976C174.512 105.261 174.022 105.417 173.518 105.424C173.015 105.431 172.52 105.288 172.098 105.014C171.675 104.74 171.343 104.347 171.144 103.884C170.946 103.421 170.888 102.91 170.98 102.414C171.072 101.919 171.309 101.462 171.66 101.101C172.012 100.74 172.462 100.492 172.955 100.387C173.448 100.283 173.961 100.327 174.428 100.514C174.739 100.637 175.022 100.821 175.262 101.054C175.502 101.287 175.693 101.565 175.825 101.872C175.957 102.179 176.027 102.509 176.031 102.843C176.036 103.178 175.974 103.509 175.849 103.82Z" fill="#E0E0E0"/>
<path d="M75.0802 139.698C75.2985 139.788 75.5349 139.826 75.7704 139.808C76.0527 139.776 76.315 139.647 76.5128 139.443C76.7423 139.125 76.946 138.79 77.1218 138.44L80.886 131.874L82.1388 129.705L82.8058 128.545C82.9219 128.36 83.0228 128.166 83.1074 127.965C83.1684 127.764 83.1684 127.55 83.1074 127.35C83.0553 127.144 82.9396 126.959 82.7768 126.822C82.591 126.691 82.3973 126.571 82.1968 126.463L80.9034 125.743L78.2122 124.235L66.2294 117.513C65.993 117.387 65.7182 117.352 65.4579 117.417C65.1977 117.481 64.9704 117.639 64.82 117.861L63.921 119.404C63.341 120.425 62.761 121.44 62.181 122.432L58.817 128.179C58.6836 128.406 58.5502 128.632 58.4226 128.858C58.2934 129.054 58.2267 129.284 58.2312 129.519C58.2404 129.748 58.3238 129.968 58.469 130.146C58.6338 130.316 58.831 130.452 59.049 130.546L61.5836 131.984L66.1192 134.559L72.6848 138.312L74.4654 139.344L74.9236 139.617C75.028 139.681 75.0802 139.716 75.0744 139.721L74.912 139.646L74.4364 139.397L72.6326 138.411L66.0148 134.745L61.4792 132.176L58.9388 130.755C58.6927 130.646 58.47 130.49 58.2834 130.296C58.1022 130.072 57.9984 129.796 57.9876 129.508C57.9752 129.221 58.0522 128.937 58.208 128.696C58.3356 128.469 58.469 128.243 58.6024 128.017L61.9258 122.281L63.6658 119.253L64.5764 117.693C64.7684 117.408 65.0592 117.205 65.3924 117.123C65.7256 117.04 66.0776 117.084 66.3802 117.246L78.3514 123.992L81.0426 125.511L82.3244 126.242C82.5458 126.355 82.759 126.483 82.9624 126.625C83.1647 126.798 83.3085 127.029 83.3742 127.286C83.4439 127.533 83.4439 127.794 83.3742 128.04C83.2818 128.26 83.1712 128.471 83.0436 128.672L82.365 129.832L81.1006 131.996C79.4824 134.733 78.1716 136.955 77.2552 138.515C77.065 138.866 76.8478 139.201 76.6056 139.518C76.3897 139.73 76.1065 139.859 75.8052 139.884C75.623 139.897 75.4402 139.867 75.2716 139.797C75.2036 139.773 75.1392 139.74 75.0802 139.698Z" fill="#E0E0E0"/>
<path d="M72.0177 127.807L73.4793 130.4L70.4633 130.458L67.4473 130.51L69.0017 127.86L70.5561 125.209L72.0177 127.807Z" fill="#E0E0E0"/>
<path d="M268.713 238.379C268.713 238.466 213.236 238.536 144.825 238.536C76.4143 238.536 20.9199 238.478 20.9199 238.379C20.9199 238.281 76.3853 238.217 144.825 238.217C213.265 238.217 268.713 238.304 268.713 238.379Z" fill="#263238"/>
<path d="M82.2504 201.544L64.7402 183.953L73.5446 167.783C82.349 156.507 100.99 157.232 100.99 157.232C110.187 156.607 119.425 157.175 128.476 158.92C143.284 161.82 142.089 171.599 142.089 171.599L144.073 207.89L146.201 237.441L91.5942 238.543L82.2504 201.568" fill="#FFC727"/>
<path d="M111.668 236.814L62.7565 237.394C60.062 237.426 57.4039 236.772 55.0316 235.494C52.6593 234.216 50.6508 232.355 49.1947 230.088C47.7387 227.821 46.8828 225.221 46.7075 222.532C46.5322 219.843 47.0433 217.153 48.1927 214.716L69.1075 175.932L88.1605 188.808L75.1627 215.76L114.753 216.468L111.668 236.814Z" fill="#FFC727"/>
<path d="M140.361 165.682L179.61 226.28L156.712 227.776C156.712 227.776 143.035 206.229 143.343 206.67C143.888 207.482 140.361 165.682 140.361 165.682Z" fill="#FFC727"/>
<path d="M87.174 192.293C87.1755 192.186 87.1931 192.081 87.2262 191.98C87.2842 191.748 87.348 191.458 87.435 191.098C87.6148 190.338 87.8816 189.236 88.1542 187.867C88.4268 186.499 88.7342 184.851 88.9256 183.019C89.1612 181.032 89.1612 179.025 88.9256 177.039C88.6109 175.069 87.924 173.178 86.9014 171.465C86.0797 170.055 85.1073 168.738 84.0014 167.538C83.2561 166.718 82.4619 165.943 81.6234 165.218C81.3038 164.968 80.9979 164.701 80.707 164.418C80.8014 164.465 80.8908 164.521 80.9738 164.586C81.1362 164.708 81.3972 164.876 81.6988 165.126C82.571 165.814 83.3928 166.564 84.158 167.37C85.3012 168.561 86.3053 169.879 87.1508 171.297C88.2093 173.036 88.9185 174.965 89.2388 176.975C89.4685 178.986 89.4529 181.017 89.1924 183.024C88.9965 184.658 88.7178 186.28 88.3572 187.885C88.0556 189.259 87.7772 190.356 87.5394 191.11C87.435 191.487 87.3422 191.777 87.2784 191.974C87.254 192.083 87.219 192.19 87.174 192.293Z" fill="#263238"/>
<path d="M85.5976 194.381C85.5138 194.683 85.4012 194.976 85.2612 195.257C85.0292 195.837 84.6811 196.614 84.2345 197.577C83.3471 199.543 82.0885 202.246 80.6385 205.204C79.1885 208.162 77.8197 210.812 76.8047 212.744C76.2943 213.695 75.8767 214.484 75.5809 214.988C75.4397 215.269 75.2768 215.539 75.0938 215.794C75.1979 215.498 75.3259 215.211 75.4766 214.936C75.7724 214.356 76.1552 213.579 76.6366 212.645L80.3892 205.105C81.8102 202.164 83.1036 199.508 84.0664 197.519C84.5188 196.585 84.89 195.808 85.18 195.199C85.296 194.915 85.4357 194.641 85.5976 194.381Z" fill="#263238"/>
<path d="M111.668 236.814C111.668 236.814 111.668 236.779 111.668 236.715C111.668 236.651 111.668 236.535 111.668 236.414C111.697 236.135 111.738 235.747 111.784 235.254C111.9 234.221 112.063 232.754 112.266 230.904C112.695 227.151 113.31 221.873 114.006 215.65L114.145 215.8H99.697L74.4612 215.76L66.8052 215.713L64.723 215.684H64.1778H63.9922C64.0538 215.677 64.1161 215.677 64.1778 215.684H64.723L66.8052 215.655L74.4612 215.609L99.7376 215.568H114.185H114.342V215.719C113.576 221.937 112.933 227.215 112.469 230.962C112.237 232.806 112.045 234.273 111.889 235.306C111.827 235.793 111.775 236.18 111.732 236.466L111.686 236.762C111.68 236.779 111.674 236.814 111.668 236.814Z" fill="#263238"/>
<path d="M75.5056 216.188C75.1553 215.801 74.8298 215.393 74.5312 214.965C72.9681 213.002 71.0324 211.368 68.8356 210.156C68.3664 209.929 67.9095 209.678 67.4668 209.402C67.9816 209.523 68.476 209.718 68.9342 209.982C71.2222 211.113 73.2009 212.783 74.6994 214.849C75.0287 215.256 75.3 215.707 75.5056 216.188Z" fill="#263238"/>
<path d="M144.884 220.028C144.841 219.863 144.814 219.694 144.802 219.523C144.762 219.169 144.71 218.688 144.64 218.079C144.507 216.826 144.327 215.011 144.135 212.766C143.735 208.271 143.277 202.054 142.871 195.187C142.465 188.319 142.181 182.09 142.018 177.584C141.937 175.327 141.879 173.524 141.856 172.242C141.856 171.633 141.856 171.151 141.827 170.792C141.818 170.624 141.818 170.455 141.827 170.287C141.859 170.453 141.876 170.622 141.879 170.792C141.879 171.146 141.926 171.633 141.96 172.242C142.024 173.529 142.111 175.345 142.221 177.572C142.436 182.079 142.755 188.296 143.161 195.169C143.567 202.042 143.996 208.248 144.321 212.749C144.495 214.97 144.634 216.809 144.733 218.073C144.779 218.653 144.814 219.164 144.843 219.518C144.872 219.686 144.885 219.857 144.884 220.028Z" fill="#263238"/>
<path d="M101.223 187.056C101.225 186.789 101.247 186.524 101.287 186.261C101.356 185.71 101.443 184.973 101.553 184.069C101.809 182.155 102.133 179.533 102.563 176.494L102.783 176.633L99.0304 179.26L95.214 181.917L94.9414 182.108L94.9878 181.778C95.4518 178.767 95.8462 176.169 96.1478 174.238C96.2986 173.35 96.4146 172.619 96.5074 172.074C96.5385 171.813 96.5929 171.555 96.6698 171.303C96.6702 171.567 96.6469 171.831 96.6002 172.092C96.5306 172.637 96.4436 173.368 96.3276 174.267C96.0666 176.169 95.7012 178.773 95.2836 181.807L95.0632 181.667L98.8738 178.999L102.632 176.384L102.905 176.192L102.858 176.523C102.412 179.55 102.023 182.172 101.745 184.063C101.6 184.962 101.484 185.698 101.397 186.244C101.363 186.519 101.305 186.791 101.223 187.056Z" fill="#E0E0E0"/>
<path d="M123.053 189.404C122.844 189.238 122.65 189.054 122.473 188.853C122.096 188.447 121.586 187.908 120.96 187.247L115.78 181.632L116.03 181.545C115.908 182.966 115.78 184.509 115.647 186.11C115.513 187.711 115.374 189.3 115.252 190.75L115.223 191.086L115.003 190.837L109.963 185.153L108.524 183.494C108.341 183.304 108.178 183.096 108.037 182.874C108.246 183.051 108.44 183.245 108.617 183.454L110.114 185.054L115.229 190.663L114.98 190.75C115.102 189.306 115.229 187.74 115.368 186.11C115.508 184.48 115.635 182.966 115.757 181.545L115.786 181.215L116.006 181.458L121.11 187.148L122.566 188.813C122.744 188.997 122.907 189.195 123.053 189.404Z" fill="#E0E0E0"/>
<path d="M134.039 188.627C133.931 188.871 133.798 189.105 133.644 189.323L132.484 191.191L128.343 197.617L128.204 197.397L132.705 196.619L137.287 195.848L137.617 195.79L137.461 196.039L133.227 202.338L131.951 204.159C131.809 204.382 131.65 204.594 131.475 204.792C131.59 204.554 131.721 204.325 131.869 204.107L133.029 202.251L137.176 195.871L137.321 196.092L132.739 196.886L128.221 197.652L127.891 197.704L128.076 197.431L132.304 191.051L133.546 189.224C133.698 189.016 133.862 188.816 134.039 188.627Z" fill="#E0E0E0"/>
<path d="M119.427 199.867C119.318 200.109 119.186 200.34 119.033 200.557L117.873 202.431L113.738 208.851L113.593 208.631L118.105 207.854L122.693 207.077L123.023 207.024L122.832 207.297L118.598 213.602L117.351 215.411C117.213 215.634 117.053 215.844 116.875 216.038C116.991 215.801 117.123 215.572 117.27 215.353C117.571 214.889 117.966 214.269 118.43 213.503L122.577 207.123L122.722 207.343L118.14 208.138L113.622 208.898L113.291 208.956L113.477 208.677L117.705 202.297C118.215 201.543 118.633 200.929 118.952 200.47C119.096 200.258 119.255 200.056 119.427 199.867Z" fill="#E0E0E0"/>
<path d="M150.998 188.5C150.883 188.739 150.751 188.97 150.603 189.19L149.443 191.064L145.308 197.484L145.163 197.264L149.675 196.487L154.263 195.709L154.594 195.657L154.408 195.93L150.168 202.234C149.658 202.977 149.24 203.586 148.921 204.038C148.784 204.264 148.625 204.476 148.446 204.67C148.563 204.433 148.697 204.204 148.846 203.986L150.006 202.136L154.153 195.756L154.298 195.976L149.716 196.765L145.198 197.531L144.873 197.589L145.053 197.31L149.281 190.93L150.528 189.103C150.665 188.887 150.822 188.685 150.998 188.5Z" fill="#E0E0E0"/>
<path d="M169.209 217.697C169.001 217.539 168.807 217.365 168.629 217.175L167.04 215.644L161.582 210.296L161.825 210.198C161.779 211.625 161.733 213.167 161.68 214.774C161.628 216.381 161.564 217.976 161.512 219.414V219.75L161.274 219.513L155.962 214.09L154.442 212.506C154.253 212.327 154.079 212.133 153.92 211.926C154.126 212.085 154.32 212.259 154.5 212.448L156.078 213.974L161.472 219.321L161.222 219.42C161.269 217.97 161.321 216.404 161.373 214.78C161.425 213.156 161.489 211.63 161.541 210.204V209.873L161.773 210.105L167.15 215.534L168.687 217.123C168.876 217.3 169.051 217.492 169.209 217.697Z" fill="#E0E0E0"/>
<path d="M77.076 179.186C76.9625 179.425 76.8306 179.656 76.6816 179.876L75.5216 181.749L71.3862 188.176L71.2412 187.955L75.7536 187.172L80.3414 186.401L80.672 186.343L80.4864 186.621L76.2466 192.92L75.0054 194.73C74.8645 194.951 74.7054 195.161 74.5298 195.356C74.6409 195.119 74.7729 194.891 74.9242 194.677L76.0842 192.821C77.134 191.215 78.5724 189.011 80.2312 186.441L80.3762 186.662L75.7942 187.456L71.276 188.222L70.9512 188.274L71.131 188.002C72.8304 185.45 74.292 183.246 75.3592 181.622L76.6062 179.795C76.7465 179.579 76.9036 179.376 77.076 179.186Z" fill="#E0E0E0"/>
<path d="M54.1426 222.556C54.338 222.733 54.5166 222.927 54.6762 223.136L56.0914 224.836L60.8996 230.769L60.6444 230.839C60.8532 229.429 61.0736 227.898 61.3114 226.303C61.5492 224.708 61.7812 223.136 61.9958 221.704L62.0422 221.373L62.251 221.64L66.9258 227.625L68.254 229.365C68.4227 229.567 68.5741 229.782 68.7064 230.009C68.5159 229.83 68.3395 229.636 68.1786 229.429L66.7866 227.736L62.0596 221.814L62.3148 221.75C62.106 223.183 61.8798 224.737 61.642 226.349C61.4042 227.962 61.178 229.47 60.9634 230.879L60.917 231.21L60.7082 230.949L55.9754 224.952L54.624 223.212C54.449 223.004 54.2881 222.785 54.1426 222.556Z" fill="#E0E0E0"/>
<path d="M106.518 194.475C106.258 194.53 105.995 194.565 105.729 194.579L103.525 194.77L95.9041 195.35L95.9969 195.107L99.3377 198.239L102.719 201.429L102.963 201.661H102.626L95.0457 202.078L92.8533 202.171C92.5908 202.194 92.3269 202.194 92.0645 202.171C92.3227 202.119 92.5844 202.086 92.8475 202.073L95.0341 201.899L102.609 201.377L102.522 201.62L99.1289 198.442L95.7997 195.298L95.5561 195.066H95.8867L103.514 194.608L105.718 194.498C105.983 194.47 106.251 194.462 106.518 194.475Z" fill="#E0E0E0"/>
<path d="M93.6641 223.705C93.8576 223.887 94.0397 224.081 94.2093 224.285L95.6535 225.955L100.589 231.79L100.334 231.86C100.514 230.445 100.711 228.913 100.914 227.318C101.117 225.723 101.326 224.14 101.494 222.708L101.54 222.371L101.749 222.632L106.552 228.519L107.915 230.259C108.084 230.461 108.239 230.674 108.379 230.897C108.183 230.719 108.003 230.525 107.839 230.317L106.412 228.653L101.54 222.853L101.79 222.777C101.61 224.216 101.413 225.77 101.21 227.388C101.007 229.006 100.804 230.52 100.63 231.935L100.583 232.266L100.375 232.011L95.5201 226.106L94.1397 224.366C93.9597 224.162 93.8004 223.941 93.6641 223.705Z" fill="#E0E0E0"/>
<path d="M70.6902 202.269C70.4306 202.326 70.1668 202.361 69.9014 202.373L67.7032 202.559L60.082 203.139L60.169 202.89L63.5156 206.027L66.897 209.217L67.1406 209.449H66.8042L59.2236 209.867L57.0312 209.96C56.7745 209.981 56.5164 209.981 56.2598 209.96C56.5174 209.904 56.7794 209.871 57.0428 209.861L59.2294 209.687L66.8042 209.159L66.7172 209.409L63.3242 206.23L59.9892 203.087L59.7514 202.855H60.082L67.709 202.391L69.913 202.286C70.1712 202.261 70.431 202.255 70.6902 202.269Z" fill="#E0E0E0"/>
<path d="M90.4282 223.05C90.1685 223.105 89.9047 223.138 89.6394 223.148L87.4354 223.34L79.8142 223.92L79.907 223.67L83.2478 226.808L86.6292 229.998L86.8728 230.23H86.5422L78.9558 230.642L76.7634 230.741C76.501 230.763 76.2371 230.763 75.9746 230.741C76.2323 230.685 76.4942 230.652 76.7576 230.642L78.9442 230.468L86.519 229.94L86.432 230.19L83.039 227.011L79.7098 223.879L79.4662 223.653H79.7968L87.4238 223.189L89.6336 223.085C89.8969 223.049 90.1628 223.037 90.4282 223.05Z" fill="#E0E0E0"/>
<path d="M134.979 170.177C134.719 170.233 134.455 170.268 134.19 170.282L131.986 170.467L124.371 171.047L124.458 170.804L127.799 173.936L131.18 177.126L131.424 177.358H131.093L123.507 177.775L121.314 177.868C121.052 177.891 120.788 177.891 120.525 177.868C120.783 177.813 121.045 177.78 121.308 177.769L123.495 177.595L131.076 177.073L130.983 177.317L127.601 174.144L124.272 171.001L124.029 170.769H124.359L131.986 170.305L134.196 170.2C134.456 170.173 134.718 170.165 134.979 170.177Z" fill="#E0E0E0"/>
<path d="M113.309 223.05C113.309 223.05 123.065 220.237 126.295 219.413C127.554 219.094 132.942 221.936 136.666 224.303C136.666 224.303 141.793 227.342 141.381 228.276C140.923 229.308 139.061 229.099 136.016 227.696C136.016 227.696 137.072 230.752 135.001 230.683C135.001 230.683 136.028 233.989 134.09 234.331C132.153 234.673 131.701 230.457 129.996 230.23C128.29 230.004 124.776 229.772 124.776 229.772C124.776 229.772 121.835 234.644 119.556 234.992C117.276 235.34 112.016 234.72 112.016 234.72L113.309 223.05Z" fill="#FFBE9D"/>
<path d="M129.961 223.723C130.916 224.148 131.829 224.663 132.687 225.26C133.598 225.775 134.456 226.377 135.251 227.058C133.382 226.122 131.611 225.005 129.961 223.723Z" fill="#EB996E"/>
<path d="M129.387 225.619C130.501 225.97 131.584 226.414 132.623 226.947C133.698 227.384 134.734 227.91 135.72 228.519C134.605 228.172 133.523 227.73 132.484 227.197C131.407 226.762 130.371 226.234 129.387 225.619Z" fill="#EB996E"/>
<path d="M130.432 230.149C131.905 230.143 133.372 230.338 134.793 230.729C133.32 230.733 131.853 230.538 130.432 230.149Z" fill="#EB996E"/>
<path d="M100.612 122.38C100.727 122.755 100.729 123.157 100.617 123.534C100.505 123.91 100.285 124.246 99.9838 124.498C99.6825 124.751 99.3136 124.909 98.9231 124.953C98.5326 124.997 98.1377 124.925 97.7878 124.746C96.4654 124.079 96.2972 122.252 96.5582 120.796C96.8192 119.34 97.3122 117.78 96.7032 116.429C96.2334 115.396 95.2184 114.741 94.4296 113.929C93.7335 113.223 93.2105 112.366 92.9015 111.424C92.5926 110.482 92.5061 109.481 92.649 108.5C92.8161 107.522 93.2501 106.609 93.9031 105.862C94.556 105.115 95.4025 104.563 96.3494 104.266C98.2924 103.727 100.688 104.324 102.149 102.915C103.199 101.894 103.263 100.229 104.075 99.0114C105.334 97.1206 107.996 96.819 110.246 97.1264C112.497 97.4338 114.782 98.1588 116.986 97.6078C118.824 97.1496 120.332 95.8678 122.061 95.079C123.945 94.2179 126.05 93.9671 128.084 94.3616C130.117 94.7561 131.976 95.7761 133.401 97.2792C134.826 98.7822 135.746 100.693 136.032 102.744C136.317 104.796 135.955 106.885 134.995 108.721C134.355 110.064 133.265 111.141 131.915 111.766" fill="#263238"/>
<path d="M111.806 170.293C113.285 170.29 114.749 169.994 116.113 169.421C117.476 168.848 118.713 168.011 119.75 166.956C120.788 165.902 121.606 164.653 122.156 163.28C122.707 161.907 122.98 160.439 122.96 158.96L122.815 148.3C122.815 148.3 131.77 147.401 132.362 138.527C132.953 129.653 132.53 109.173 132.53 109.173C127.602 106.728 122.112 105.642 116.625 106.027C111.138 106.411 105.853 108.252 101.314 111.36L99.9453 112.305L100.612 159.25C100.647 162.194 101.843 165.006 103.939 167.073C106.035 169.141 108.862 170.298 111.806 170.293Z" fill="#FFBE9D"/>
<path d="M130.188 125.279C129.864 125.242 129.565 125.087 129.349 124.843C129.132 124.6 129.012 124.286 129.012 123.96C129.012 123.634 129.132 123.319 129.349 123.076C129.565 122.832 129.864 122.677 130.188 122.64C130.259 122.623 130.332 122.623 130.403 122.64C130.727 122.677 131.025 122.832 131.242 123.076C131.459 123.319 131.579 123.634 131.579 123.96C131.579 124.286 131.459 124.6 131.242 124.843C131.025 125.087 130.727 125.242 130.403 125.279C130.332 125.291 130.259 125.291 130.188 125.279Z" fill="#263238"/>
<path d="M131.928 122.415C131.783 122.565 130.948 121.835 129.724 121.771C128.5 121.707 127.578 122.281 127.456 122.119C127.335 121.956 127.543 121.777 127.949 121.504C128.492 121.156 129.132 120.991 129.775 121.034C130.418 121.077 131.031 121.325 131.522 121.742C131.888 122.067 132.004 122.38 131.928 122.415Z" fill="#263238"/>
<path d="M117.782 122.716C117.992 122.862 118.154 123.067 118.248 123.305C118.342 123.543 118.364 123.804 118.309 124.054C118.255 124.304 118.128 124.532 117.944 124.71C117.76 124.888 117.527 125.007 117.275 125.053C117.023 125.098 116.764 125.068 116.529 124.966C116.294 124.863 116.095 124.694 115.957 124.479C115.819 124.263 115.747 124.012 115.752 123.756C115.757 123.5 115.837 123.251 115.984 123.041C116.179 122.76 116.478 122.568 116.815 122.507C117.153 122.446 117.5 122.521 117.782 122.716Z" fill="#263238"/>
<path d="M118.587 122.768C118.436 122.919 117.601 122.188 116.383 122.124C115.165 122.061 114.237 122.635 114.109 122.472C114.046 122.397 114.202 122.13 114.602 121.858C115.145 121.509 115.785 121.345 116.428 121.388C117.071 121.43 117.684 121.678 118.175 122.095C118.541 122.42 118.657 122.704 118.587 122.768Z" fill="#263238"/>
<path d="M122.96 133.128C122.96 133.035 123.72 132.919 124.961 132.815C125.28 132.815 125.541 132.739 125.57 132.571C125.594 132.251 125.532 131.931 125.391 131.643C125.118 130.814 124.845 129.979 124.555 129.103C123.395 125.489 122.636 122.514 122.815 122.456C122.995 122.398 124.074 125.281 125.217 128.894C125.483 129.776 125.744 130.634 125.994 131.446C126.178 131.868 126.215 132.34 126.098 132.786C126.046 132.906 125.967 133.012 125.866 133.096C125.765 133.18 125.646 133.238 125.518 133.267C125.337 133.307 125.152 133.321 124.967 133.308C123.714 133.285 122.96 133.227 122.96 133.128Z" fill="#263238"/>
<path d="M118.901 134.264C120.765 135.221 122.752 135.917 124.805 136.334C124.355 136.953 123.709 137.401 122.972 137.605C122.235 137.809 121.45 137.758 120.745 137.459C118.13 136.34 118.901 134.264 118.901 134.264Z" fill="white"/>
<path d="M122.85 148.173C118.744 148.026 114.775 146.661 111.447 144.252C111.447 144.252 113.837 150.789 122.74 150.475L122.85 148.173Z" fill="#EB996E"/>
<path d="M132.605 111.418C132.605 111.418 127.24 114.144 120.135 110.769C115.495 108.553 110.061 107.526 108.889 108.483C107.718 109.44 107.561 114.196 103.014 115.675C103.014 115.675 103.507 124.758 99.8759 124.503C96.2451 124.248 98.2403 110.136 98.2403 110.136L107.016 105.636L116.65 103.623L125.785 104.731L132.872 106.523L132.605 111.418Z" fill="#263238"/>
<path d="M100.537 121.585C100.392 121.509 94.534 119.445 94.4006 125.529C94.2672 131.613 100.398 130.494 100.409 130.32C100.421 130.146 100.537 121.585 100.537 121.585Z" fill="#FFBE9D"/>
<path d="M98.5997 127.97C98.5997 127.97 98.4895 128.046 98.3097 128.121C98.0549 128.225 97.7698 128.225 97.5151 128.121C96.8771 127.872 96.3551 126.839 96.3551 125.743C96.3543 125.221 96.4671 124.704 96.6856 124.229C96.7481 124.041 96.855 123.87 96.9974 123.732C97.1397 123.594 97.3133 123.492 97.5035 123.435C97.6262 123.412 97.7529 123.43 97.8647 123.486C97.9765 123.541 98.0674 123.631 98.124 123.742C98.1994 123.91 98.1588 124.032 98.1878 124.044C98.2168 124.055 98.3212 123.945 98.2806 123.696C98.2488 123.544 98.1671 123.407 98.0487 123.307C97.8844 123.178 97.6765 123.118 97.4687 123.139C97.2175 123.182 96.9817 123.289 96.7837 123.45C96.5857 123.61 96.4321 123.819 96.3377 124.055C96.0698 124.578 95.9306 125.156 95.9316 125.743C95.9316 126.967 96.5465 128.133 97.4165 128.405C97.5791 128.455 97.7508 128.468 97.9191 128.444C98.0875 128.42 98.2486 128.359 98.3909 128.266C98.5997 128.121 98.5997 127.982 98.5997 127.97Z" fill="#EB996E"/>
<path d="M97.4414 102.544C98.1354 102.34 98.8767 102.367 99.5543 102.62C100.232 102.873 100.809 103.338 101.2 103.947C100.659 103.538 100.076 103.188 99.4598 102.903C98.8013 102.713 98.1249 102.593 97.4414 102.544Z" fill="#263238"/>
<path d="M101.101 98.9004C101.211 98.9004 101.043 100.182 101.251 101.702C101.432 102.615 101.718 103.505 102.104 104.352C102.104 104.352 101.849 104.138 101.594 103.685C101.266 103.083 101.05 102.427 100.956 101.748C100.787 100.8 100.836 99.8263 101.101 98.9004Z" fill="#263238"/>
<path d="M126.093 119.48C126.058 119.41 126.319 119.195 126.812 118.998C128.121 118.492 129.574 118.507 130.872 119.039C131.359 119.248 131.62 119.462 131.586 119.532C131.51 119.694 130.339 119.236 128.836 119.236C127.334 119.236 126.163 119.659 126.093 119.48Z" fill="#263238"/>
<path d="M112.521 118.214C112.486 118.145 112.747 117.936 113.24 117.733C113.889 117.482 114.58 117.358 115.276 117.368C115.974 117.368 116.666 117.506 117.311 117.774C117.799 117.982 118.054 118.197 118.025 118.272C117.996 118.348 116.778 117.977 115.27 117.971C113.762 117.965 112.602 118.377 112.521 118.214Z" fill="#263238"/>
<path d="M125.042 120.454C125.055 120.573 125.055 120.694 125.042 120.813C125.042 121.069 125.042 121.393 125.071 121.794C125.1 122.194 125.071 122.733 125.106 123.313C125.084 123.983 125.182 124.651 125.396 125.285C125.675 126.109 126.159 126.848 126.803 127.433C127.446 128.018 128.227 128.431 129.073 128.632C129.558 128.751 130.059 128.794 130.558 128.759C131.076 128.736 131.588 128.628 132.071 128.44C133.103 128.054 133.982 127.344 134.577 126.416C135.14 125.531 135.423 124.496 135.389 123.447C135.389 122.408 135.389 121.411 135.389 120.454L135.528 120.593L127.988 120.523L125.802 120.483H125.222H125.007C125.255 120.455 125.505 120.444 125.755 120.448L127.907 120.407L135.528 120.338H135.72V120.483C135.72 121.44 135.72 122.437 135.72 123.476C135.759 124.582 135.461 125.674 134.867 126.608C134.236 127.59 133.304 128.341 132.211 128.748C131.697 128.945 131.154 129.057 130.604 129.078C130.08 129.11 129.554 129.061 129.044 128.933C128.157 128.719 127.339 128.28 126.671 127.658C126.003 127.037 125.505 126.253 125.227 125.384C125.019 124.721 124.933 124.025 124.972 123.331C124.972 122.751 124.972 122.211 125.001 121.77C125.03 121.33 125.001 121.057 125.03 120.802C125.025 120.686 125.029 120.569 125.042 120.454Z" fill="#263238"/>
<path d="M110.826 120.153C110.826 120.153 110.826 120.287 110.826 120.513V121.493C110.826 121.922 110.826 122.433 110.855 123.018C110.84 123.687 110.938 124.354 111.145 124.99C111.412 125.754 111.851 126.447 112.427 127.015C113.092 127.661 113.92 128.116 114.822 128.331C115.82 128.572 116.867 128.505 117.827 128.14C118.856 127.754 119.732 127.046 120.326 126.121C120.892 125.236 121.177 124.201 121.144 123.152C121.144 122.114 121.144 121.11 121.144 120.153L121.283 120.292L113.743 120.223L111.563 120.188H110.983H110.768C111.015 120.161 111.263 120.149 111.51 120.153L113.662 120.118L121.283 120.049H121.423V120.188C121.423 121.145 121.423 122.148 121.423 123.187C121.458 124.293 121.159 125.385 120.564 126.319C119.934 127.297 119.004 128.046 117.914 128.453C117.4 128.65 116.857 128.762 116.307 128.784C115.781 128.815 115.253 128.766 114.741 128.639C113.793 128.405 112.927 127.918 112.235 127.229C111.637 126.628 111.188 125.895 110.925 125.089C110.716 124.426 110.63 123.73 110.669 123.036C110.669 122.456 110.669 121.916 110.704 121.476C110.739 121.035 110.704 120.762 110.704 120.507C110.725 120.383 110.767 120.264 110.826 120.153Z" fill="#263238"/>
<path d="M125.17 120.877C123.844 121.079 122.494 121.079 121.168 120.877C122.494 120.669 123.844 120.669 125.17 120.877Z" fill="#263238"/>
<path d="M99.7598 120.953C101.604 120.799 103.455 120.743 105.305 120.785C107.156 120.732 109.009 120.777 110.855 120.918C109.012 121.079 107.16 121.135 105.31 121.087C103.459 121.146 101.606 121.101 99.7598 120.953Z" fill="#263238"/>
<path d="M159.426 230.405C160.729 232.824 162.703 234.815 165.111 236.139C167.518 237.463 170.257 238.064 172.998 237.87C176.236 237.643 179.3 236.319 181.684 234.116C184.068 231.913 185.63 228.963 186.112 225.753L189.476 187.247L176.002 183.918L170.498 214.078C170.498 214.078 167.621 226.716 159.426 230.405Z" fill="#FFBE9D"/>
<path d="M175.879 186.707L176.326 179.95C176.326 179.95 178.234 164.789 178.234 163.304C178.234 161.599 179.052 161.182 179.684 161.228C180.664 161.292 181.36 162.504 181.424 163.971C181.424 164.476 181.377 172.492 181.377 172.492C181.841 171.734 182.358 171.011 182.926 170.328C184.086 168.826 186.893 167.968 189.753 168.06C192.612 168.153 193.395 168.432 193.412 169.539C193.402 169.751 193.345 169.958 193.245 170.144C193.144 170.331 193.003 170.493 192.832 170.618C192.305 171.058 191.634 171.289 190.947 171.268C186.371 171.187 185.147 173.628 185.147 173.628L185.089 174.516C185.089 174.516 187.868 172.526 190.083 173.356C190.41 173.477 190.71 173.662 190.965 173.901C191.589 173.903 192.201 174.069 192.741 174.381C193.281 174.693 193.73 175.141 194.044 175.681C194.358 176.22 194.525 176.832 194.529 177.456C194.533 178.079 194.374 178.694 194.068 179.237C193.948 179.516 193.747 179.751 193.49 179.912C193.232 180.073 192.932 180.151 192.629 180.136C192.323 180.044 192.045 179.874 191.823 179.643C191.693 179.533 191.556 179.432 191.411 179.341L190.901 181.795C190.901 181.795 189.457 187.247 189.097 189.694" fill="#FFBE9D"/>
<path d="M177.197 186.18C178.032 186.412 178.897 185.798 179.349 185.055C179.801 184.313 179.993 183.437 180.387 182.66C181.582 180.34 184.447 179.238 185.543 176.86C185.694 176.529 185.775 176.077 185.485 175.856C185.195 175.636 184.836 175.816 184.54 175.978L177 180.154" fill="#FFBE9D"/>
<path d="M176.994 180.142C177.229 179.934 177.488 179.755 177.766 179.609C178.276 179.29 179.024 178.849 179.952 178.309L183.229 176.436L184.175 175.902C184.527 175.624 184.975 175.496 185.422 175.549C185.559 175.593 185.68 175.679 185.768 175.794C185.856 175.909 185.907 176.048 185.915 176.192C185.93 176.431 185.888 176.669 185.793 176.888C185.618 177.275 185.4 177.641 185.143 177.979C184.099 179.336 182.748 180.189 181.773 181.18C181.3 181.629 180.897 182.147 180.579 182.717C180.294 183.251 180.115 183.808 179.894 184.312C179.759 184.734 179.533 185.12 179.232 185.445C178.932 185.769 178.564 186.024 178.154 186.192C177.534 186.377 177.186 186.192 177.209 186.157C177.509 186.166 177.809 186.117 178.09 186.012C178.453 185.827 178.773 185.568 179.031 185.252C179.289 184.937 179.478 184.571 179.587 184.179C179.772 183.617 179.987 183.065 180.231 182.526C180.55 181.908 180.968 181.346 181.466 180.861C182.464 179.817 183.786 178.942 184.76 177.683C184.99 177.379 185.184 177.05 185.34 176.703C185.485 176.372 185.462 176.042 185.277 176.007C185.091 175.972 184.726 176.129 184.407 176.308L183.444 176.83L180.12 178.64C179.169 179.145 178.38 179.539 177.858 179.8C177.588 179.954 177.297 180.069 176.994 180.142Z" fill="#EB996E"/>
<path d="M184.987 174.58C185.038 174.031 185.219 173.502 185.514 173.037C185.858 172.56 186.346 172.206 186.906 172.028C187.608 171.797 188.342 171.68 189.081 171.68C189.84 171.688 190.597 171.622 191.343 171.483C191.968 171.355 192.548 171.065 193.025 170.642C193.184 170.495 193.307 170.315 193.385 170.114C193.464 169.913 193.495 169.697 193.478 169.482C193.469 169.324 193.417 169.171 193.327 169.041C193.298 169.041 193.327 169.209 193.356 169.488C193.353 169.682 193.308 169.874 193.224 170.049C193.14 170.224 193.019 170.379 192.869 170.503C192.405 170.868 191.86 171.114 191.28 171.222C190.549 171.342 189.81 171.396 189.07 171.384C188.303 171.376 187.541 171.495 186.814 171.738C186.205 171.95 185.685 172.358 185.335 172.898C185.107 173.262 184.976 173.676 184.952 174.104C184.919 174.263 184.931 174.428 184.987 174.58Z" fill="#EB996E"/>
<path d="M181.385 163.402C181.335 163.933 181.335 164.467 181.385 164.997C181.385 166.088 181.385 167.393 181.425 168.831C181.466 170.27 181.425 171.575 181.425 172.665C181.39 173.197 181.402 173.73 181.46 174.26C181.587 173.74 181.651 173.206 181.651 172.671C181.721 171.691 181.767 170.351 181.762 168.831C181.756 167.312 181.698 165.966 181.628 164.986C181.604 164.451 181.522 163.92 181.385 163.402Z" fill="#EB996E"/>
<path d="M186.796 176.361C186.958 176.322 187.114 176.261 187.26 176.181C187.449 176.084 187.656 176.029 187.868 176.019C188.08 176.009 188.292 176.044 188.489 176.123C188.61 176.189 188.713 176.285 188.786 176.401C188.859 176.518 188.901 176.652 188.907 176.79C188.925 177.136 188.9 177.483 188.831 177.822C188.736 178.249 188.804 178.696 189.023 179.075C189.161 179.27 189.344 179.429 189.556 179.54C189.767 179.65 190.002 179.71 190.241 179.713C190.476 179.711 190.708 179.662 190.923 179.568C191.138 179.475 191.332 179.338 191.494 179.168C191.796 178.864 191.998 178.476 192.074 178.054C192.165 177.372 192.155 176.68 192.045 176.001C191.985 175.542 191.845 175.096 191.633 174.684C191.47 174.394 191.32 174.284 191.308 174.296C191.296 174.307 191.401 174.452 191.523 174.737C191.682 175.154 191.781 175.591 191.818 176.036C191.895 176.69 191.885 177.351 191.789 178.002C191.716 178.371 191.524 178.706 191.244 178.957C190.964 179.208 190.61 179.361 190.235 179.394C190.046 179.393 189.861 179.348 189.692 179.262C189.524 179.176 189.378 179.053 189.266 178.901C189.091 178.583 189.036 178.212 189.11 177.857C189.175 177.491 189.19 177.119 189.156 176.749C189.139 176.573 189.077 176.403 188.976 176.258C188.874 176.113 188.736 175.996 188.576 175.92C188.351 175.834 188.108 175.803 187.868 175.829C187.628 175.855 187.398 175.938 187.196 176.071C186.923 176.233 186.761 176.32 186.796 176.361Z" fill="#EB996E"/>
<path d="M191.361 178.924C191.32 179.075 191.336 179.236 191.407 179.376C191.489 179.575 191.615 179.753 191.775 179.896C191.936 180.038 192.128 180.142 192.335 180.2C192.647 180.267 192.972 180.252 193.277 180.156C193.582 180.061 193.857 179.888 194.075 179.655C194.598 179.08 194.878 178.326 194.858 177.549C194.858 176.782 194.619 176.034 194.174 175.409C193.81 174.899 193.315 174.498 192.741 174.249C192.364 174.079 191.959 173.983 191.546 173.965C191.256 173.965 191.1 173.965 191.1 174.011C191.635 174.08 192.157 174.229 192.648 174.452C193.163 174.708 193.606 175.089 193.936 175.56C194.321 176.145 194.523 176.831 194.516 177.532C194.535 178.227 194.295 178.905 193.843 179.434C193.659 179.642 193.425 179.8 193.163 179.893C192.901 179.985 192.62 180.009 192.347 179.962C192.164 179.921 191.992 179.841 191.843 179.728C191.694 179.615 191.571 179.471 191.482 179.307C191.401 179.086 191.401 178.924 191.361 178.924Z" fill="#EB996E"/>
<path d="M185.85 184.282C185.601 184.204 185.333 184.204 185.084 184.282C184.431 184.425 183.844 184.78 183.414 185.292L183.681 185.373C183.645 185.014 183.587 184.657 183.507 184.306C183.276 183.059 182.703 181.9 181.854 180.959C182.422 182.047 182.873 183.192 183.199 184.375C183.28 184.735 183.338 185.083 183.379 185.408L183.425 185.767L183.652 185.483C184.036 185.009 184.55 184.656 185.131 184.468C185.566 184.335 185.85 184.323 185.85 184.282Z" fill="#EB996E"/>
<path d="M185.995 170.646C185.92 170.681 186.227 171.226 186.935 171.557C187.643 171.887 188.269 171.696 188.24 171.615C188.211 171.534 187.66 171.539 187.08 171.267C186.5 170.994 186.071 170.588 185.995 170.646Z" fill="#EB996E"/>
<path d="M173.56 191.08L190.49 192.292C190.49 192.292 187.886 222.249 187.381 226.895C186.877 231.541 183.901 238.547 173.56 238.547C163.218 238.547 161.293 235.027 156.693 227.777C162.116 224.018 170.729 212.795 170.729 212.795L173.56 191.08Z" fill="#FFC727"/>
<path d="M181.54 195.111C181.453 195.364 181.349 195.61 181.227 195.848L180.282 197.843L176.941 204.739L176.773 204.536L181.163 203.231L185.624 201.921L185.948 201.828L185.792 202.124L182.312 208.881L181.285 210.824C181.172 211.061 181.038 211.288 180.885 211.502C180.974 211.254 181.078 211.012 181.198 210.777C181.442 210.278 181.778 209.617 182.149 208.799L185.519 201.996L185.687 202.199L181.233 203.521L176.837 204.809L176.518 204.902L176.668 204.606L180.131 197.779C180.554 196.973 180.897 196.312 181.152 195.819C181.261 195.573 181.391 195.336 181.54 195.111Z" fill="#E0E0E0"/>
<path d="M179.94 223.926C179.68 223.981 179.416 224.016 179.151 224.03L176.947 224.221L169.326 224.801L169.419 224.552L172.76 227.684L176.141 230.874L176.385 231.106H176.048L168.468 231.524L166.275 231.616C166.013 231.639 165.749 231.639 165.486 231.616C165.745 231.565 166.006 231.534 166.269 231.524L168.456 231.344L176.031 230.822L175.944 231.071L172.551 227.887L169.222 224.743L168.978 224.517H169.309L176.936 224.059L179.145 223.949C179.409 223.921 179.675 223.913 179.94 223.926Z" fill="#E0E0E0"/>
<path d="M210.082 116.911L192.815 110.711L175.74 116.83C173.559 117.857 171.645 118.477 171.645 120.507V130.634C171.605 137.747 173.547 144.73 177.254 150.801C180.957 156.927 186.446 161.774 192.983 164.692C199.943 162.424 205.163 156.369 208.382 151.195C212.099 145.127 214.052 138.144 214.02 131.028V121.922C214.02 119.022 212.477 117.607 210.082 116.911Z" fill="#FFC727"/>
<g opacity="0.3">
<path d="M192.983 158.799C187.803 156.463 183.461 152.597 180.542 147.721C177.604 142.924 176.059 137.403 176.082 131.777V124.701C176.082 123.088 177.057 121.58 178.982 120.681L192.821 115.508V110.734L175.74 116.83C173.948 117.613 171.645 118.477 171.645 120.507V130.634C171.605 137.747 173.547 144.73 177.254 150.801C180.957 156.927 186.446 161.774 192.983 164.692V158.799Z" fill="black"/>
</g>
<g opacity="0.4">
<path d="M192.983 164.674C194.154 164.291 195.289 163.806 196.376 163.224C199.047 161.713 201.475 159.809 203.579 157.575C205.482 155.525 207.156 153.275 208.573 150.864C212.334 144.752 214.227 137.674 214.019 130.5V122.142C214.019 117.978 211.873 117.671 210.075 116.888L192.809 110.688V115.461L206.81 120.722C208.735 121.621 209.71 123.128 209.71 124.735V131.84C209.733 137.464 208.188 142.983 205.25 147.778C202.393 152.632 198.104 156.482 192.971 158.799L192.983 164.674Z" fill="black"/>
</g>
<path opacity="0.5" d="M197.398 131.325V129.956C197.398 128.767 196.926 127.627 196.085 126.786C195.244 125.945 194.104 125.473 192.915 125.473C191.726 125.473 190.585 125.945 189.744 126.786C188.904 127.627 188.431 128.767 188.431 129.956V131.348C187.838 131.437 187.296 131.736 186.904 132.19C186.513 132.645 186.297 133.225 186.297 133.825V141.887C186.297 142.551 186.561 143.188 187.031 143.658C187.501 144.128 188.138 144.392 188.802 144.392H197.201C197.865 144.392 198.503 144.128 198.973 143.658C199.442 143.188 199.706 142.551 199.706 141.887V133.825C199.707 133.194 199.47 132.586 199.042 132.123C198.614 131.659 198.027 131.374 197.398 131.325ZM194.133 139.874H191.94L192.282 138.291C192.043 138.134 191.86 137.905 191.761 137.636C191.662 137.367 191.653 137.074 191.734 136.8C191.816 136.525 191.984 136.284 192.213 136.113C192.443 135.942 192.721 135.85 193.007 135.85C193.294 135.85 193.572 135.942 193.802 136.113C194.031 136.284 194.199 136.525 194.281 136.8C194.362 137.074 194.353 137.367 194.254 137.636C194.155 137.905 193.972 138.134 193.732 138.291C193.883 138.882 194.133 139.874 194.133 139.874ZM196.453 131.313H189.4V129.956C189.437 129.048 189.824 128.189 190.479 127.559C191.135 126.93 192.009 126.578 192.918 126.578C193.827 126.578 194.7 126.93 195.356 127.559C196.012 128.189 196.398 129.048 196.435 129.956L196.453 131.313Z" fill="white"/>
<path d="M178.883 131.225C178.732 130.771 178.644 130.299 178.622 129.822C178.493 128.68 178.446 127.53 178.483 126.382C178.483 125.709 178.546 125.071 178.604 124.491C178.633 123.962 178.765 123.444 178.993 122.966C179.156 122.638 179.421 122.372 179.747 122.206C179.985 122.096 180.13 122.102 180.13 122.119C179.713 122.31 179.378 122.643 179.184 123.059C178.999 123.522 178.897 124.015 178.883 124.514C178.836 125.094 178.802 125.727 178.784 126.394C178.744 127.722 178.784 128.928 178.836 129.804C178.889 130.276 178.905 130.751 178.883 131.225Z" fill="white"/>
<path d="M179.132 135.627C179.051 135.627 178.976 135.216 178.964 134.699C178.953 134.183 179.016 133.766 179.098 133.766C179.179 133.766 179.254 134.177 179.266 134.694C179.277 135.21 179.219 135.627 179.132 135.627Z" fill="white"/>
<path d="M162.006 188.633L142.756 236.239H108.043V238.391H211.44L232.592 188.633H162.006Z" fill="#263238"/>
<path d="M191.436 216.74C190.74 219.136 188.71 220.649 186.9 220.127C185.091 219.605 184.192 217.227 184.888 214.832C185.584 212.437 187.62 210.923 189.429 211.445C191.239 211.967 192.138 214.345 191.436 216.74Z" fill="#FAFAFA"/>
</svg>
