<svg width="49" height="49" viewBox="0 0 49 49" fill="none" xmlns="http://www.w3.org/2000/svg">
<path d="M24.0625 48.125C37.3519 48.125 48.125 37.3519 48.125 24.0625C48.125 10.7731 37.3519 0 24.0625 0C10.7731 0 0 10.7731 0 24.0625C0 37.3519 10.7731 48.125 24.0625 48.125ZM22.3438 15.4688C22.3438 15.0129 22.5248 14.5757 22.8472 14.2534C23.1695 13.9311 23.6067 13.75 24.0625 13.75C24.5183 13.75 24.9555 13.9311 25.2778 14.2534C25.6002 14.5757 25.7812 15.0129 25.7812 15.4688V22.3438H32.6562C33.1121 22.3438 33.5493 22.5248 33.8716 22.8472C34.1939 23.1695 34.375 23.6067 34.375 24.0625C34.375 24.5183 34.1939 24.9555 33.8716 25.2778C33.5493 25.6002 33.1121 25.7812 32.6562 25.7812H25.7812V32.6562C25.7812 33.1121 25.6002 33.5493 25.2778 33.8716C24.9555 34.1939 24.5183 34.375 24.0625 34.375C23.6067 34.375 23.1695 34.1939 22.8472 33.8716C22.5248 33.5493 22.3438 33.1121 22.3438 32.6562V25.7812H15.4688C15.0129 25.7812 14.5757 25.6002 14.2534 25.2778C13.9311 24.9555 13.75 24.5183 13.75 24.0625C13.75 23.6067 13.9311 23.1695 14.2534 22.8472C14.5757 22.5248 15.0129 22.3438 15.4688 22.3438H22.3438V15.4688Z" fill="#FFC727"/>
</svg>
