<svg width="49" height="49" viewBox="0 0 49 49" fill="none" xmlns="http://www.w3.org/2000/svg">
<path d="M24.5 48.5625C37.7894 48.5625 48.5625 37.7894 48.5625 24.5C48.5625 11.2106 37.7894 0.4375 24.5 0.4375C11.2106 0.4375 0.4375 11.2106 0.4375 24.5C0.4375 37.7894 11.2106 48.5625 24.5 48.5625ZM22.7812 15.9062C22.7812 15.4504 22.9623 15.0132 23.2847 14.6909C23.607 14.3686 24.0442 14.1875 24.5 14.1875C24.9558 14.1875 25.393 14.3686 25.7153 14.6909C26.0377 15.0132 26.2188 15.4504 26.2188 15.9062V22.7812H33.0938C33.5496 22.7812 33.9868 22.9623 34.3091 23.2847C34.6314 23.607 34.8125 24.0442 34.8125 24.5C34.8125 24.9558 34.6314 25.393 34.3091 25.7153C33.9868 26.0377 33.5496 26.2188 33.0938 26.2188H26.2188V33.0938C26.2188 33.5496 26.0377 33.9868 25.7153 34.3091C25.393 34.6314 24.9558 34.8125 24.5 34.8125C24.0442 34.8125 23.607 34.6314 23.2847 34.3091C22.9623 33.9868 22.7812 33.5496 22.7812 33.0938V26.2188H15.9062C15.4504 26.2188 15.0132 26.0377 14.6909 25.7153C14.3686 25.393 14.1875 24.9558 14.1875 24.5C14.1875 24.0442 14.3686 23.607 14.6909 23.2847C15.0132 22.9623 15.4504 22.7812 15.9062 22.7812H22.7812V15.9062Z" fill="#FFC727"/>
</svg>
