<svg width="7" height="7" viewBox="0 0 7 7" fill="none" xmlns="http://www.w3.org/2000/svg">
<path d="M4.26372 3.50002L6.59288 1.17627C6.69488 1.07427 6.75218 0.935933 6.75218 0.791686C6.75218 0.647439 6.69488 0.5091 6.59288 0.407102C6.49088 0.305105 6.35255 0.247803 6.2083 0.247803C6.06405 0.247803 5.92571 0.305105 5.82372 0.407102L3.49997 2.73627L1.17622 0.407102C1.07422 0.305105 0.93588 0.247803 0.791634 0.247803C0.647387 0.247803 0.509048 0.305105 0.40705 0.407102C0.305052 0.5091 0.247751 0.647439 0.247751 0.791686C0.247751 0.935933 0.305052 1.07427 0.40705 1.17627L2.73622 3.50002L0.40705 5.82377C0.356281 5.87412 0.315984 5.93403 0.288484 6.00004C0.260985 6.06605 0.246826 6.13685 0.246826 6.20835C0.246826 6.27986 0.260985 6.35066 0.288484 6.41666C0.315984 6.48267 0.356281 6.54258 0.40705 6.59294C0.457405 6.6437 0.517314 6.684 0.583321 6.7115C0.649328 6.739 0.720127 6.75316 0.791634 6.75316C0.86314 6.75316 0.933939 6.739 0.999946 6.7115C1.06595 6.684 1.12586 6.6437 1.17622 6.59294L3.49997 4.26377L5.82372 6.59294C5.87407 6.6437 5.93398 6.684 5.99999 6.7115C6.06599 6.739 6.13679 6.75316 6.2083 6.75316C6.27981 6.75316 6.35061 6.739 6.41661 6.7115C6.48262 6.684 6.54253 6.6437 6.59288 6.59294C6.64365 6.54258 6.68395 6.48267 6.71145 6.41666C6.73895 6.35066 6.75311 6.27986 6.75311 6.20835C6.75311 6.13685 6.73895 6.06605 6.71145 6.00004C6.68395 5.93403 6.64365 5.87412 6.59288 5.82377L4.26372 3.50002Z" fill="#2B2C43"/>
</svg>
