<svg width="21" height="21" viewBox="0 0 21 21" fill="none" xmlns="http://www.w3.org/2000/svg">
<path d="M0.261671 13.7435C0.351646 14.7982 1.33135 15.6203 2.59257 15.669L3.18547 15.6989C3.83841 15.7326 4.49167 15.759 5.14461 15.7816L9.44945 20.034C9.58944 20.1727 9.77819 20.2509 9.97499 20.2516C10.074 20.2521 10.1723 20.233 10.264 20.1953C10.544 20.0784 10.7262 19.8045 10.7257 19.5011V15.8678C13.0639 15.8678 15.4023 15.7965 17.6843 15.6763C18.9379 15.6087 19.9136 14.7982 20.0039 13.7508L20.0265 13.5143V13.5146C20.3492 9.79711 20.3492 6.05867 20.0265 2.34101L20.0039 2.10827C19.9139 1.05744 18.9342 0.231555 17.6767 0.182784H17.3726L17.3729 0.183036C12.5493 -0.0610119 7.71649 -0.0610119 2.8928 0.183036H2.58868C1.33125 0.246875 0.336726 1.05744 0.261575 2.10852L0.238955 2.34126L0.239206 2.34101C-0.0797353 6.05873 -0.0797353 9.79691 0.239206 13.5146L0.261671 13.7435ZM1.73677 2.48376L1.75562 2.25102C1.77824 2.00321 2.14971 1.72171 2.66393 1.69557H2.96804C5.3472 1.55533 7.73563 1.48546 10.1325 1.48546C12.527 1.48546 14.9217 1.54553 17.2976 1.66944H17.6017C18.1159 1.69583 18.4874 1.97733 18.51 2.22489L18.5288 2.45762L18.5286 2.45737C18.8438 6.08766 18.8438 9.73827 18.5286 13.3684L18.5097 13.6049C18.4871 13.8527 18.1345 14.1342 17.6014 14.1604C15.1768 14.2881 12.6846 14.3557 10.1925 14.3557H9.97484V14.3554C9.56039 14.3554 9.2241 14.6915 9.2241 15.1062V17.6846L6.004 14.5055C5.86903 14.3735 5.68958 14.2971 5.50108 14.2916L3.27177 14.2016L2.67887 14.1717C2.16087 14.1453 1.78942 13.8638 1.76677 13.6162L1.74792 13.3835L1.74767 13.3833C1.42872 9.75349 1.42495 6.103 1.73636 2.47285L1.73677 2.48376Z" fill="#C1C1C1"/>
</svg>
