<svg width="75" height="26" viewBox="0 0 75 26" fill="none" xmlns="http://www.w3.org/2000/svg">
<path fill-rule="evenodd" clip-rule="evenodd" d="M20.1129 8.54253C22.1766 6.4582 25.2828 4.62421 29.8651 4.48024C40.8134 4.13536 39.7409 13.1311 47.8177 13.5522C54.5595 13.9038 71.7197 -3.73532 75.3951 19.389C75.3951 19.389 68.1994 13.3024 59.7409 16.863C49.1871 21.3043 55.7219 32.3264 45.6543 32.3264H25.3578C25.3578 32.3264 28.2326 29.6074 27.6774 26.6026C27.1668 23.8374 22.7984 16.956 17.7238 15.1615L16.4294 18.7499C20.0406 20.6233 22.5083 24.3954 22.5083 28.7452C22.5083 34.9607 17.4691 39.9999 11.2547 39.9999C5.03916 39.9999 0 34.9607 0 28.7452C0 22.5296 5.03916 17.4916 11.2547 17.4916C12.0852 17.4916 12.8962 17.5823 13.6761 17.7536L16.8556 8.94023C16.6237 8.99975 16.3745 9.03257 16.1058 9.03257H13.1293V1.83574H16.1058C17.4247 1.83574 18.3119 2.60337 18.7691 3.6374L19.7459 0.929499L26.2051 0L26.6184 2.90584L21.9008 3.58392L20.1114 8.54177L20.1129 8.54253ZM11.2557 23.5488C11.3647 23.5488 11.4743 23.5527 11.5827 23.5594L12.3342 21.4762C11.9821 21.4244 11.6222 21.3972 11.2557 21.3972C7.19609 21.3972 3.90647 24.6869 3.90647 28.7458C3.90647 32.8042 7.19623 36.095 11.2557 36.095C15.3141 36.095 18.6043 32.8042 18.6043 28.7458C18.6043 26.0913 17.1964 23.765 15.0865 22.474L14.3339 24.5595C15.6189 25.5062 16.4522 27.0293 16.4522 28.7458C16.4522 31.6155 14.1259 33.9423 11.2556 33.9423C8.38483 33.9423 6.05855 31.616 6.05855 28.7458C6.05855 25.8761 8.38483 23.5493 11.2556 23.5493L11.2557 23.5488ZM65.5718 23.5488C68.4427 23.5488 70.7689 25.8751 70.7689 28.7453C70.7689 31.615 68.4427 33.9418 65.5718 33.9418C62.7022 33.9418 60.3753 31.6155 60.3753 28.7453C60.3753 25.8756 62.7016 23.5488 65.5718 23.5488ZM65.5718 17.4917C71.7874 17.4917 76.8265 22.5298 76.8265 28.7453C76.8265 34.9608 71.7874 40 65.5718 40C59.3573 40 54.3183 34.9608 54.3183 28.7453C54.3183 22.5298 59.3574 17.4917 65.5718 17.4917ZM65.5718 21.3967C69.6314 21.3967 72.921 24.6864 72.921 28.7453C72.921 32.8037 69.6313 36.0945 65.5718 36.0945C61.5134 36.0945 58.2232 32.8037 58.2232 28.7453C58.2232 24.6869 61.513 21.3967 65.5718 21.3967ZM32.7796 26.4491H45.7171L45.5419 27.5293L32.7797 28.8226L32.7796 26.4491ZM31.3244 21.7221H44.2629L44.0877 22.8023L31.3244 24.0956L31.3244 21.7221ZM29.1044 16.9951H42.0429L41.8676 18.0753L29.1043 19.3686L29.1044 16.9951Z" fill="#F0F0F0"/>
</svg>
