<svg width="15" height="14" viewBox="0 0 15 14" fill="none" xmlns="http://www.w3.org/2000/svg">
<path d="M6.38991 3.95948e-05C5.33753 3.95948e-05 4.55754 0.459814 4.06873 1.20391C3.65531 1.83326 3.44094 2.65748 3.38447 3.57967H2.8423C2.75408 3.58942 2.68262 3.67955 2.69225 3.76872C2.70188 3.85802 2.79094 3.93031 2.87916 3.92056H3.37391C3.37272 3.97787 3.36867 4.03304 3.36867 4.09107C3.38318 4.99756 3.8822 6.02428 4.3792 6.86097C4.3792 7.13813 4.38301 7.38223 4.38979 7.56417C3.7255 7.92538 2.96666 8.1758 2.28965 8.49635C1.60703 8.84639 0.946913 9.26337 0.684258 9.99307C0.177517 11.1909 0 11.9183 0 13.1252C0.0175971 13.2276 0.0769272 13.2615 0.168483 13.2957C0.377155 13.3892 0.664419 13.4658 1.07379 13.5408C1.5167 13.6217 2.0659 13.6949 2.66338 13.7592C3.85821 13.8876 5.25483 13.9776 6.41615 13.9776C7.57306 13.9776 8.95883 13.8877 10.1479 13.7592C10.7425 13.695 11.2859 13.6217 11.7269 13.5408C12.168 13.4598 12.4992 13.3791 12.7059 13.2744C12.7612 13.2472 12.7992 13.1874 12.8007 13.1253C12.8007 11.9184 12.6232 11.191 12.1164 9.99319H12.1112C12.1107 9.99153 12.1117 9.98939 12.1112 9.98796C12.0282 9.76645 11.9122 9.57275 11.7744 9.40202L11.5323 9.64707C11.6422 9.78738 11.7353 9.93921 11.8008 10.1158C11.8024 10.1177 11.8042 10.1193 11.806 10.121C12.2874 11.2578 12.4462 11.9071 12.4586 12.9974C12.3047 13.0603 12.0499 13.1352 11.6691 13.2052C11.2401 13.2839 10.7051 13.36 10.1164 13.4236C8.93915 13.5508 7.55657 13.6366 6.41629 13.6366C5.27128 13.6366 3.87798 13.5508 2.69517 13.4236C2.10363 13.36 1.56289 13.284 1.13188 13.2052C0.749509 13.1352 0.496352 13.0602 0.342364 12.9974C0.354848 11.9071 0.51358 11.2578 0.994997 10.121C1.2479 9.47406 1.91838 9.05233 2.43191 8.80535C2.89765 8.58479 3.42567 8.39218 3.94778 8.16078L6.26896 11.1811C6.33186 11.2607 6.46931 11.2607 6.53209 11.1811L8.85327 8.16078C9.17324 8.30394 9.49641 8.43224 9.80591 8.56029L9.33743 7.99027C9.02376 7.85757 8.7138 7.71822 8.42153 7.55877V6.86094C9.06646 6.11556 9.47178 4.97363 9.43206 4.09103C9.4317 4.03217 9.42861 3.97094 9.42683 3.92064H9.9532C10.0421 3.92231 10.1241 3.84027 10.1241 3.75014C10.1241 3.66001 10.0423 3.57845 9.9532 3.57963H9.41636C9.35929 2.65756 9.14265 1.83334 8.72686 1.20387C8.23522 0.459683 7.45225 0 6.38988 0L6.38991 3.95948e-05ZM6.23201 0.346278L6.24783 1.87511C6.24914 1.96441 6.3307 2.04431 6.41893 2.043C6.50715 2.04134 6.5861 1.95918 6.58467 1.86988L6.56886 0.346403C7.03865 0.370659 7.42887 0.488846 7.7531 0.692641L7.43207 1.82718C7.39295 1.91635 7.44788 2.03442 7.54074 2.06058C7.6336 2.08674 7.74097 2.01457 7.7531 1.91766L8.03727 0.910937C8.19184 1.04898 8.32763 1.20843 8.44782 1.39034C8.81476 1.94585 9.01699 2.70788 9.07419 3.57967H3.72644C3.78292 2.70812 3.98267 1.94585 4.34757 1.39034C4.47348 1.19868 4.62033 1.03257 4.78442 0.889661L5.07395 1.91766C5.08595 2.01445 5.19344 2.08674 5.2863 2.06058C5.37917 2.03442 5.43422 1.91635 5.39498 1.82718L5.06859 0.67657C5.45132 0.44709 5.80112 0.363266 6.23179 0.346251L6.23201 0.346278ZM3.71085 3.92068H9.09025C9.09144 3.97787 9.09549 4.03316 9.09549 4.09118C9.09109 5.41906 8.41324 6.61198 7.58592 7.24583C7.18665 7.6086 6.74825 7.84106 6.40061 7.84106C6.12797 7.84106 5.77994 7.68792 5.44262 7.42563C4.56002 6.80353 3.71261 5.30066 3.70573 4.09109C3.70609 4.03188 3.70918 3.97112 3.71096 3.9207L3.71085 3.92068ZM13.3218 4.94868L12.606 5.66779L13.3218 6.39226L12.7429 7.2179C12.5344 7.41587 12.3308 7.62964 12.1271 7.83583L11.9534 7.6601L12.3534 6.30714L11.5112 5.28434L10.5007 5.62522L11.1744 6.4775L11.0059 7.15927L10.1637 7.32977L9.49003 6.64801L9.1532 7.50029L9.99537 8.52308L11.4533 8.12358L11.6481 8.32071L9.74792 10.2491C9.64435 10.5358 10.0113 10.8562 10.2216 10.7338L12.127 8.80548L14.1534 10.8509C14.3112 10.6892 14.4718 10.5305 14.6323 10.3715L12.6059 8.32071L13.2007 7.71885C13.4731 7.53812 13.7597 7.31722 14.0322 7.11687C14.3895 7.47845 14.5093 7.59558 14.3901 8.19814C14.9856 7.35441 15.2246 6.87455 14.7428 6.38705L13.3218 4.94868ZM4.71593 7.20183C4.8793 7.38672 5.05492 7.55568 5.23707 7.69716C5.49592 7.89846 5.76664 8.05231 6.03715 8.12865L5.83716 8.42698C5.79542 8.49154 5.8047 8.58511 5.8582 8.64005L6.12133 8.90638L5.76867 9.98245L4.26327 8.01691C4.3912 7.95472 4.51831 7.88992 4.6422 7.81977C4.69677 7.78814 4.73078 7.72346 4.72638 7.65997C4.72055 7.56473 4.71698 7.39316 4.7158 7.20184L4.71593 7.20183ZM8.08456 7.23917V7.67066C8.08409 7.73071 8.11738 7.7898 8.16875 7.81976C8.29098 7.88896 8.41665 7.95519 8.54244 8.0169L7.0318 9.98244L6.67914 8.90638L6.94227 8.64004C6.99577 8.58511 7.00505 8.49153 6.96332 8.42697L6.76856 8.12865C7.23262 8.00749 7.69492 7.67743 8.08442 7.23902L8.08456 7.23917ZM6.40022 8.18727L6.60544 8.49628L6.40022 8.704L6.19499 8.49628L6.40022 8.18727ZM10.5846 8.5335L10.0688 8.67202C10.3051 8.7675 10.5354 8.88783 10.7425 9.00234L10.99 8.75194C10.8599 8.67418 10.7237 8.60248 10.5846 8.53352L10.5846 8.5335ZM6.40022 9.14072L6.7845 10.3019L6.40022 10.8026L6.01593 10.3019L6.40022 9.14072Z" fill="#282828"/>
</svg>
