<svg width="20" height="22" viewBox="0 0 20 22" fill="none" xmlns="http://www.w3.org/2000/svg">
<path d="M2.5 21.6H17.5C18.1631 21.6 18.7989 21.3314 19.2679 20.8533C19.7366 20.375 20 19.7265 20 19.0502V8.80658C20.0015 8.04144 19.6646 7.3165 19.0833 6.83291L11.5833 0.573889V0.574079C11.136 0.202608 10.5768 0 10 0C9.42319 0 8.86405 0.202623 8.41667 0.574079L0.916671 6.8331V6.83291C0.335386 7.3165 -0.00147136 8.04144 4.83157e-06 8.80658V19.0502C4.83157e-06 19.7265 0.263395 20.375 0.732147 20.8533C1.20109 21.3314 1.83686 21.6 2.5 21.6ZM7.5 19.9001V15.6504C7.5 15.425 7.5878 15.2087 7.74405 15.0493C7.9003 14.89 8.11235 14.8004 8.33333 14.8004H11.6667C11.8876 14.8004 12.0997 14.89 12.2559 15.0493C12.4122 15.2087 12.5 15.425 12.5 15.6504V19.9001H7.5ZM1.66667 8.80658C1.66667 8.5516 1.77902 8.31007 1.97248 8.14882L9.47247 1.8898C9.62147 1.76535 9.80804 1.69743 10.0004 1.69743C10.1929 1.69743 10.3795 1.76535 10.5283 1.8898L18.0283 8.14882C18.2219 8.31008 18.3341 8.5516 18.3341 8.80658V19.0502C18.3341 19.2755 18.2463 19.4918 18.09 19.6512C17.9338 19.8106 17.7219 19.9001 17.5007 19.9001H14.1667V15.6504C14.1667 14.974 13.9033 14.3256 13.4345 13.8473C12.9656 13.3692 12.3298 13.1005 11.6667 13.1005H8.33332C7.67018 13.1005 7.03442 13.3692 6.56547 13.8473C6.09672 14.3255 5.83332 14.974 5.83332 15.6504V19.9001H2.49999C2.27901 19.9001 2.06696 19.8106 1.91071 19.6512C1.75446 19.4918 1.66666 19.2755 1.66666 19.0502L1.66667 8.80658Z" fill="#282828"/>
</svg>
