<svg width="23" height="23" viewBox="0 0 23 23" fill="none" xmlns="http://www.w3.org/2000/svg">
<path d="M22.3233 7.86964C21.9014 7.56192 21.3563 7.47855 20.8614 7.64595L16.0581 9.22319V1.63104C16.0565 1.19882 15.8842 0.784903 15.5786 0.479496C15.273 0.173905 14.8591 0.00162895 14.4271 0H8.57332C8.14128 0.00163154 7.72736 0.173926 7.42178 0.479496C7.11619 0.784923 6.94391 1.19886 6.94229 1.63104V4.50634H1.51246C1.11256 4.50569 0.728641 4.66378 0.445079 4.94586C0.161512 5.22812 0.00146188 5.61106 0 6.01111V20.5597C0.000489478 20.9918 0.172456 21.4058 0.477867 21.7112C0.783278 22.0167 1.1974 22.1887 1.62941 22.1891H21.3706C21.8026 22.1886 22.2167 22.0167 22.5221 21.7112C22.8275 21.4058 22.9995 20.9917 23 20.5597V9.19216C22.9989 8.6686 22.7474 8.17699 22.3232 7.86978L22.3233 7.86964ZM8.11137 1.63244H8.11153C8.11202 1.37775 8.31841 1.17136 8.57311 1.17086H14.4269C14.6816 1.17135 14.888 1.37774 14.8885 1.63244V21.0194H8.11162L8.11137 1.63244ZM1.16954 20.5596V6.01097C1.17052 5.92107 1.20723 5.83525 1.27152 5.77227C1.33596 5.70946 1.4226 5.6747 1.5125 5.67568H6.94232V21.0195H1.62945C1.37558 21.0192 1.16983 20.8135 1.1695 20.5596L1.16954 20.5596ZM21.8309 20.5596H21.8307C21.8304 20.8134 21.6246 21.0192 21.3708 21.0195H16.0579V10.4514L21.2288 8.75554C21.3686 8.70903 21.5221 8.73286 21.6414 8.81916C21.7608 8.90564 21.8311 9.04416 21.8306 9.19132L21.8309 20.5596Z" fill="#C1C1C1"/>
</svg>
