<svg width="22" height="22" viewBox="0 0 22 22" fill="none" xmlns="http://www.w3.org/2000/svg">
<rect width="22" height="22" fill="#C6CEDD"/>
<g clip-path="url(#clip0_33_72)">
<rect x="-104" y="-1025" width="375" height="1065" rx="10" fill="white"/>
<g filter="url(#filter0_d_33_72)">
<path d="M-104 40.1082V-17L38.6197 -17H84C112.923 -17 104 -17.0002 122.895 -17C141.79 -16.9998 271 -17 271 -17V40.1082H-104Z" fill="white"/>
</g>
<path d="M21.8978 8.54704C21.8779 8.50694 21.8547 8.46845 21.8289 8.43193L21.7854 8.37829H21.7856C21.7594 8.34746 21.7312 8.3186 21.7013 8.29151L21.6758 8.26603L19.0904 6.11755V5.0778C19.0897 4.29893 18.78 3.55213 18.2292 3.0013C17.6784 2.45052 16.9316 2.14083 16.1527 2.1401H14.2801L12.2212 0.43871C11.8775 0.155026 11.4457 0 11.0001 0C10.5544 0 10.1227 0.155026 9.77889 0.43871L7.71986 2.1401H5.84741C5.06854 2.14081 4.32174 2.45051 3.77092 3.0013C3.22013 3.55209 2.91044 4.29888 2.90971 5.0778V6.11755L0.32449 8.25568L0.29883 8.28134C0.268894 8.30824 0.240741 8.33729 0.214543 8.36811L0.171064 8.42175H0.171242C0.145404 8.45828 0.122241 8.49677 0.102283 8.53668C0.102283 8.55201 0.0844639 8.56733 0.0768016 8.58266H0.0766234C0.0261935 8.69617 0.000177907 8.81876 0 8.94296V18.7653C0.000712769 19.5441 0.310412 20.2909 0.861208 20.8418C1.41199 21.3925 2.15879 21.7022 2.93784 21.703H19.0622C19.8412 21.7022 20.588 21.3925 21.1388 20.8418C21.6896 20.291 21.9993 19.5442 22 18.7653V8.94524C21.9998 8.82122 21.9738 8.69844 21.9234 8.58512C21.9157 8.56712 21.9054 8.5468 21.8977 8.5468L21.8978 8.54704ZM19.6601 8.90966L19.0904 9.33376V8.4371L19.6601 8.90966ZM10.9185 1.81846C10.9659 1.7789 11.0346 1.7789 11.082 1.81846L11.4728 2.14295H10.5277L10.9185 1.81846ZM5.84765 3.92844H16.153C16.4579 3.92844 16.7503 4.04961 16.9658 4.26522C17.1814 4.48066 17.3025 4.77308 17.3025 5.07794V10.6674L11.0772 15.309C11.0317 15.343 10.9693 15.343 10.9239 15.309L4.69852 10.6674V5.07794C4.69852 4.77305 4.81969 4.48063 5.03531 4.26522C5.25074 4.04961 5.54316 3.92844 5.84802 3.92844H5.84765ZM2.90999 8.43725V9.3339L2.34032 8.9098L2.90999 8.43725ZM19.0626 19.9045H2.93827C2.63339 19.9045 2.34096 19.7835 2.12538 19.5679C1.90976 19.3523 1.78859 19.0599 1.78859 18.755V10.7286L3.14251 11.7504C3.22323 11.8407 3.32142 11.9138 3.43118 11.9649L9.85591 16.7447C10.1882 16.9919 10.5915 17.1253 11.0056 17.1253C11.4197 17.1253 11.8228 16.9919 12.1551 16.7447L18.5721 11.9522C18.6818 11.901 18.78 11.8281 18.8608 11.7376L20.2147 10.7159V18.7655C20.212 19.069 20.0892 19.3591 19.8734 19.5725C19.6576 19.786 19.3661 19.9054 19.0625 19.9047L19.0626 19.9045Z" fill="#C1C1C1"/>
<path d="M7.15594 9.00878H13.7434C14.0551 9.00878 14.3078 8.75608 14.3078 8.44423C14.3078 8.13257 14.0551 7.87988 13.7434 7.87988H7.15594C6.84428 7.87988 6.5914 8.13258 6.5914 8.44423C6.5914 8.75608 6.84428 9.00878 7.15594 9.00878Z" fill="#C1C1C1"/>
<path d="M7.15594 6.65526H13.7434C14.0551 6.65526 14.3078 6.40257 14.3078 6.09091C14.3078 5.77906 14.0551 5.52637 13.7434 5.52637H7.15594C6.84428 5.52637 6.5914 5.77906 6.5914 6.09091C6.5914 6.40257 6.84428 6.65526 7.15594 6.65526Z" fill="#C1C1C1"/>
<path d="M7.15594 11.3603H10.4496C10.7615 11.3603 11.0142 11.1076 11.0142 10.796C11.0142 10.4841 10.7615 10.2314 10.4496 10.2314H7.15594C6.84428 10.2314 6.5914 10.4841 6.5914 10.796C6.5914 11.1077 6.84428 11.3603 7.15594 11.3603Z" fill="#C1C1C1"/>
</g>
<defs>
<filter id="filter0_d_33_72" x="-120" y="-35" width="407" height="89.1084" filterUnits="userSpaceOnUse" color-interpolation-filters="sRGB">
<feFlood flood-opacity="0" result="BackgroundImageFix"/>
<feColorMatrix in="SourceAlpha" type="matrix" values="0 0 0 0 0 0 0 0 0 0 0 0 0 0 0 0 0 0 127 0" result="hardAlpha"/>
<feOffset dy="-2"/>
<feGaussianBlur stdDeviation="8"/>
<feComposite in2="hardAlpha" operator="out"/>
<feColorMatrix type="matrix" values="0 0 0 0 0 0 0 0 0 0 0 0 0 0 0 0 0 0 0.09 0"/>
<feBlend mode="normal" in2="BackgroundImageFix" result="effect1_dropShadow_33_72"/>
<feBlend mode="normal" in="SourceGraphic" in2="effect1_dropShadow_33_72" result="shape"/>
</filter>
<clipPath id="clip0_33_72">
<rect x="-104" y="-1025" width="375" height="1065" rx="10" fill="white"/>
</clipPath>
</defs>
</svg>
