<svg width="76" height="29" viewBox="0 0 76 29" fill="none" xmlns="http://www.w3.org/2000/svg">
<path d="M24.9223 12C24.9223 12 37.8449 0 45.2297 0H61.8449C75.6909 0 90.46 12 90.46 15.692V32.3071L84.4538 34.0224C84.3836 27.7104 79.2493 22.6141 72.9219 22.6141C66.5501 22.6141 61.3836 27.7807 61.3836 34.1525H29.0762C29.0762 27.7807 23.9097 22.6141 17.5379 22.6141C11.2105 22.6141 6.07689 27.7104 6.00601 34.0224L-0.000175476 32.3065V22.1531C-0.000175476 18.4605 9.23049 13.8452 24.9226 11.999L24.9223 12ZM57.2296 12.8596L79.7969 12.0811C75.161 8.87332 68.2907 5.53874 61.8449 5.53874H57.2296V12.8596ZM51.6909 13.0502V5.53872H45.2296C42.596 5.53872 36.4695 9.4606 31.3244 13.7534L51.6909 13.0502Z" fill="#F0F0F0"/>
</svg>
