<svg width="18" height="10" viewBox="0 0 18 10" fill="none" xmlns="http://www.w3.org/2000/svg">
<path d="M0.984913 0.858855L6.09401 5.45904C6.09401 5.45904 6.17997 5.54114 6.09805 5.59702C4.7744 6.49916 1.46015 9.0444 0.95837 9.43051C0.95298 9.39646 0.950195 9.36161 0.950195 9.32603V1.10071C0.950195 1.01681 0.962233 0.93569 0.984779 0.859154L0.984913 0.858855ZM1.62961 0.262376C1.68675 0.250429 1.74594 0.244141 1.80658 0.244141H16.1915C16.2484 0.244141 16.304 0.24971 16.3578 0.26031L9.1678 6.56176C9.12316 6.59842 9.05929 6.61943 8.99255 6.61943C8.92589 6.61943 8.86202 6.59841 8.81738 6.56176L1.62961 0.262376ZM17.0105 0.849679C17.0347 0.928998 17.0478 1.01317 17.0478 1.10039V9.32571C17.0478 9.36434 17.0444 9.40216 17.0381 9.43899C16.5787 9.08397 13.2244 6.49684 11.8686 5.5825C11.8018 5.53741 11.877 5.47372 11.877 5.47363L17.0105 0.849679ZM16.496 9.98612C16.4573 9.99313 16.4174 9.99681 16.3768 9.99681H1.62146C1.59101 9.99681 1.56109 9.99474 1.53172 9.99079C2.3773 9.377 5.51951 7.09923 6.82548 6.19272C6.89204 6.14646 6.95061 6.19757 6.95061 6.19757L8.65153 7.55497C8.74361 7.63043 8.86479 7.67193 8.9927 7.67193C9.12071 7.67193 9.24189 7.63043 9.33388 7.55497L11.0155 6.21328C11.0155 6.21328 11.0906 6.14357 11.1755 6.2016C12.493 7.10358 15.6365 9.36635 16.4964 9.9861L16.496 9.98612Z" fill="#E35959"/>
</svg>
